<?xml version="1.0" encoding="utf-8" standalone="no"?>
<!DOCTYPE svg PUBLIC "-//W3C//DTD SVG 1.1//EN"
  "http://www.w3.org/Graphics/SVG/1.1/DTD/svg11.dtd">
<!-- Created with matplotlib (https://matplotlib.org/) -->
<svg height="360pt" version="1.1" viewBox="0 0 360 360" width="360pt" xmlns="http://www.w3.org/2000/svg" xmlns:xlink="http://www.w3.org/1999/xlink">
 <defs>
  <style type="text/css">
*{stroke-linecap:butt;stroke-linejoin:round;}
  </style>
 </defs>
 <g id="figure_1">
  <g id="patch_1">
   <path d="M 0 360 
L 360 360 
L 360 0 
L 0 0 
z
" style="fill:#ffffff;"/>
  </g>
  <g id="axes_1">
   <g id="patch_2">
    <path d="M 57.418125 310.12625 
L 345.7 310.12625 
L 345.7 25.918125 
L 57.418125 25.918125 
z
" style="fill:#ffffff;"/>
   </g>
   <g id="PolyCollection_1">
    <defs>
     <path d="M 105.857247 -62.792301 
L 105.072961 -62.792301 
L 105.03986 -64.559815 
L 105.006898 -66.32733 
L 104.97251 -68.094844 
L 104.934843 -69.862358 
L 104.892041 -71.629873 
L 104.842552 -73.397387 
L 104.785438 -75.164901 
L 104.720624 -76.932415 
L 104.649075 -78.69993 
L 104.572843 -80.467444 
L 104.494963 -82.234958 
L 104.419177 -84.002472 
L 104.349476 -85.769987 
L 104.289504 -87.537501 
L 104.241881 -89.305015 
L 104.207541 -91.07253 
L 104.18522 -92.840044 
L 104.171176 -94.607558 
L 104.159242 -96.375072 
L 104.141221 -98.142587 
L 104.107607 -99.910101 
L 104.048536 -101.677615 
L 103.954854 -103.445129 
L 103.819174 -105.212644 
L 103.636807 -106.980158 
L 103.406455 -108.747672 
L 103.130607 -110.515187 
L 102.81557 -112.282701 
L 102.471129 -114.050215 
L 102.10979 -115.817729 
L 101.74567 -117.585244 
L 101.393073 -119.352758 
L 101.064898 -121.120272 
L 100.771062 -122.887786 
L 100.517177 -124.655301 
L 100.303688 -126.422815 
L 100.125672 -128.190329 
L 99.973344 -129.957844 
L 99.833234 -131.725358 
L 99.689831 -133.492872 
L 99.527408 -135.260386 
L 99.331733 -137.027901 
L 99.091346 -138.795415 
L 98.798267 -140.562929 
L 98.448044 -142.330443 
L 98.039253 -144.097958 
L 97.572637 -145.865472 
L 97.050117 -147.632986 
L 96.473925 -149.400501 
L 95.846027 -151.168015 
L 95.167924 -152.935529 
L 94.4408 -154.703043 
L 93.665903 -156.470558 
L 92.845019 -158.238072 
L 91.980885 -160.005586 
L 91.077465 -161.773101 
L 90.1401 -163.540615 
L 89.175625 -165.308129 
L 88.192601 -167.075643 
L 87.201762 -168.843158 
L 86.21672 -170.610672 
L 85.254788 -172.378186 
L 84.337697 -174.1457 
L 83.491858 -175.913215 
L 82.747862 -177.680729 
L 82.139012 -179.448243 
L 81.698902 -181.215758 
L 81.458278 -182.983272 
L 81.441615 -184.750786 
L 81.663974 -186.5183 
L 82.128664 -188.285815 
L 82.826126 -190.053329 
L 83.734242 -191.820843 
L 84.820038 -193.588357 
L 86.042529 -195.355872 
L 87.356318 -197.123386 
L 88.715473 -198.8909 
L 90.077207 -200.658415 
L 91.404957 -202.425929 
L 92.670542 -204.193443 
L 93.855237 -205.960957 
L 94.949696 -207.728472 
L 95.952858 -209.495986 
L 96.870059 -211.2635 
L 97.710685 -213.031014 
L 98.485754 -214.798529 
L 99.205772 -216.566043 
L 99.879167 -218.333557 
L 100.511427 -220.101072 
L 101.104971 -221.868586 
L 101.659635 -223.6361 
L 102.173551 -225.403614 
L 102.64419 -227.171129 
L 103.069334 -228.938643 
L 103.447811 -230.706157 
L 103.779904 -232.473671 
L 104.067421 -234.241186 
L 104.313486 -236.0087 
L 104.52214 -237.776214 
L 106.408068 -237.776214 
L 106.408068 -237.776214 
L 106.616722 -236.0087 
L 106.862787 -234.241186 
L 107.150304 -232.473671 
L 107.482397 -230.706157 
L 107.860874 -228.938643 
L 108.286018 -227.171129 
L 108.756657 -225.403614 
L 109.270573 -223.6361 
L 109.825237 -221.868586 
L 110.418781 -220.101072 
L 111.051041 -218.333557 
L 111.724436 -216.566043 
L 112.444455 -214.798529 
L 113.219523 -213.031014 
L 114.060149 -211.2635 
L 114.97735 -209.495986 
L 115.980512 -207.728472 
L 117.074971 -205.960957 
L 118.259666 -204.193443 
L 119.525252 -202.425929 
L 120.853001 -200.658415 
L 122.214735 -198.8909 
L 123.573891 -197.123386 
L 124.88768 -195.355872 
L 126.11017 -193.588357 
L 127.195966 -191.820843 
L 128.104082 -190.053329 
L 128.801545 -188.285815 
L 129.266235 -186.5183 
L 129.488594 -184.750786 
L 129.47193 -182.983272 
L 129.231306 -181.215758 
L 128.791196 -179.448243 
L 128.182346 -177.680729 
L 127.43835 -175.913215 
L 126.592512 -174.1457 
L 125.67542 -172.378186 
L 124.713488 -170.610672 
L 123.728446 -168.843158 
L 122.737608 -167.075643 
L 121.754583 -165.308129 
L 120.790108 -163.540615 
L 119.852743 -161.773101 
L 118.949323 -160.005586 
L 118.08519 -158.238072 
L 117.264306 -156.470558 
L 116.489408 -154.703043 
L 115.762284 -152.935529 
L 115.084182 -151.168015 
L 114.456284 -149.400501 
L 113.880091 -147.632986 
L 113.357571 -145.865472 
L 112.890955 -144.097958 
L 112.482165 -142.330443 
L 112.131941 -140.562929 
L 111.838862 -138.795415 
L 111.598476 -137.027901 
L 111.4028 -135.260386 
L 111.240378 -133.492872 
L 111.096974 -131.725358 
L 110.956865 -129.957844 
L 110.804537 -128.190329 
L 110.62652 -126.422815 
L 110.413032 -124.655301 
L 110.159146 -122.887786 
L 109.86531 -121.120272 
L 109.537135 -119.352758 
L 109.184538 -117.585244 
L 108.820419 -115.817729 
L 108.45908 -114.050215 
L 108.114638 -112.282701 
L 107.799602 -110.515187 
L 107.523753 -108.747672 
L 107.293401 -106.980158 
L 107.111034 -105.212644 
L 106.975354 -103.445129 
L 106.881672 -101.677615 
L 106.822601 -99.910101 
L 106.788988 -98.142587 
L 106.770967 -96.375072 
L 106.759032 -94.607558 
L 106.744988 -92.840044 
L 106.722667 -91.07253 
L 106.688328 -89.305015 
L 106.640704 -87.537501 
L 106.580733 -85.769987 
L 106.511032 -84.002472 
L 106.435245 -82.234958 
L 106.357365 -80.467444 
L 106.281133 -78.69993 
L 106.209584 -76.932415 
L 106.144771 -75.164901 
L 106.087656 -73.397387 
L 106.038167 -71.629873 
L 105.995365 -69.862358 
L 105.957698 -68.094844 
L 105.92331 -66.32733 
L 105.890348 -64.559815 
L 105.857247 -62.792301 
z
" id="mb9cc4267bd" style="stroke:#000000;"/>
    </defs>
    <g clip-path="url(#pa78f5121e5)">
     <use style="fill:#440154;stroke:#000000;" x="0" xlink:href="#mb9cc4267bd" y="360"/>
    </g>
   </g>
   <g id="PolyCollection_2"/>
   <g id="PolyCollection_3">
    <defs>
     <path d="M 298.230209 -130.553561 
L 297.075833 -130.553561 
L 296.985578 -132.478912 
L 296.886503 -134.404263 
L 296.777173 -136.329614 
L 296.655793 -138.254965 
L 296.520057 -140.180316 
L 296.366836 -142.105667 
L 296.191748 -144.031019 
L 295.988638 -145.95637 
L 295.74907 -147.881721 
L 295.461941 -149.807072 
L 295.113295 -151.732423 
L 294.68644 -153.657774 
L 294.16245 -155.583125 
L 293.521146 -157.508477 
L 292.742628 -159.433828 
L 291.809408 -161.359179 
L 290.709087 -163.28453 
L 289.437354 -165.209881 
L 288.00091 -167.135232 
L 286.419745 -169.060583 
L 284.728142 -170.985935 
L 282.973888 -172.911286 
L 281.2155 -174.836637 
L 279.517644 -176.761988 
L 277.945432 -178.687339 
L 276.558544 -180.61269 
L 275.40621 -182.538041 
L 274.523867 -184.463393 
L 273.931856 -186.388744 
L 273.636008 -188.314095 
L 273.629531 -190.239446 
L 273.895434 -192.164797 
L 274.40878 -194.090148 
L 275.1384 -196.015499 
L 276.048055 -197.940851 
L 277.097398 -199.866202 
L 278.24318 -201.791553 
L 279.441102 -203.716904 
L 280.648386 -205.642255 
L 281.826834 -207.567606 
L 282.945823 -209.492957 
L 283.984557 -211.418309 
L 284.933013 -213.34366 
L 285.791231 -215.269011 
L 286.567073 -217.194362 
L 287.272879 -219.119713 
L 287.921778 -221.045064 
L 288.52447 -222.970415 
L 289.087127 -224.895767 
L 289.610804 -226.821118 
L 290.092322 -228.746469 
L 290.526264 -230.67182 
L 290.907481 -232.597171 
L 291.233456 -234.522522 
L 291.505956 -236.447873 
L 291.731663 -238.373225 
L 291.921681 -240.298576 
L 292.090125 -242.223927 
L 292.252107 -244.149278 
L 292.421562 -246.074629 
L 292.609328 -247.99998 
L 292.821807 -249.925331 
L 293.060417 -251.850683 
L 293.32188 -253.776034 
L 293.599252 -255.701385 
L 293.883474 -257.626736 
L 294.165127 -259.552087 
L 294.436072 -261.477438 
L 294.690675 -263.40279 
L 294.926413 -265.328141 
L 295.143806 -267.253492 
L 295.345744 -269.178843 
L 295.536429 -271.104194 
L 295.720187 -273.029545 
L 295.900431 -274.954896 
L 296.078979 -276.880248 
L 296.255799 -278.805599 
L 296.429172 -280.73095 
L 296.596147 -282.656301 
L 296.753124 -284.581652 
L 296.896425 -286.507003 
L 297.02276 -288.432354 
L 297.129537 -290.357706 
L 297.215039 -292.283057 
L 297.278508 -294.208408 
L 297.320165 -296.133759 
L 297.341205 -298.05911 
L 297.343762 -299.984461 
L 297.330825 -301.909812 
L 297.306099 -303.835164 
L 297.2738 -305.760515 
L 297.238382 -307.685866 
L 297.204232 -309.611217 
L 297.175344 -311.536568 
L 297.155031 -313.461919 
L 297.145691 -315.38727 
L 297.148655 -317.312622 
L 297.16414 -319.237973 
L 297.191297 -321.163324 
L 298.114745 -321.163324 
L 298.114745 -321.163324 
L 298.141901 -319.237973 
L 298.157386 -317.312622 
L 298.160351 -315.38727 
L 298.15101 -313.461919 
L 298.130698 -311.536568 
L 298.10181 -309.611217 
L 298.067659 -307.685866 
L 298.032242 -305.760515 
L 297.999942 -303.835164 
L 297.975216 -301.909812 
L 297.962279 -299.984461 
L 297.964836 -298.05911 
L 297.985877 -296.133759 
L 298.027534 -294.208408 
L 298.091002 -292.283057 
L 298.176505 -290.357706 
L 298.283282 -288.432354 
L 298.409617 -286.507003 
L 298.552918 -284.581652 
L 298.709894 -282.656301 
L 298.87687 -280.73095 
L 299.050243 -278.805599 
L 299.227063 -276.880248 
L 299.40561 -274.954896 
L 299.585855 -273.029545 
L 299.769612 -271.104194 
L 299.960297 -269.178843 
L 300.162236 -267.253492 
L 300.379629 -265.328141 
L 300.615367 -263.40279 
L 300.86997 -261.477438 
L 301.140915 -259.552087 
L 301.422568 -257.626736 
L 301.70679 -255.701385 
L 301.984162 -253.776034 
L 302.245625 -251.850683 
L 302.484234 -249.925331 
L 302.696714 -247.99998 
L 302.88448 -246.074629 
L 303.053935 -244.149278 
L 303.215917 -242.223927 
L 303.384361 -240.298576 
L 303.574379 -238.373225 
L 303.800085 -236.447873 
L 304.072586 -234.522522 
L 304.39856 -232.597171 
L 304.779778 -230.67182 
L 305.21372 -228.746469 
L 305.695237 -226.821118 
L 306.218914 -224.895767 
L 306.781572 -222.970415 
L 307.384264 -221.045064 
L 308.033163 -219.119713 
L 308.738968 -217.194362 
L 309.51481 -215.269011 
L 310.373029 -213.34366 
L 311.321484 -211.418309 
L 312.360219 -209.492957 
L 313.479207 -207.567606 
L 314.657656 -205.642255 
L 315.86494 -203.716904 
L 317.062862 -201.791553 
L 318.208644 -199.866202 
L 319.257986 -197.940851 
L 320.167642 -196.015499 
L 320.897262 -194.090148 
L 321.410608 -192.164797 
L 321.67651 -190.239446 
L 321.670034 -188.314095 
L 321.374185 -186.388744 
L 320.782175 -184.463393 
L 319.899832 -182.538041 
L 318.747497 -180.61269 
L 317.360609 -178.687339 
L 315.788397 -176.761988 
L 314.090541 -174.836637 
L 312.332153 -172.911286 
L 310.5779 -170.985935 
L 308.886296 -169.060583 
L 307.305132 -167.135232 
L 305.868688 -165.209881 
L 304.596955 -163.28453 
L 303.496633 -161.359179 
L 302.563413 -159.433828 
L 301.784895 -157.508477 
L 301.143591 -155.583125 
L 300.619602 -153.657774 
L 300.192746 -151.732423 
L 299.8441 -149.807072 
L 299.556972 -147.881721 
L 299.317404 -145.95637 
L 299.114293 -144.031019 
L 298.939206 -142.105667 
L 298.785985 -140.180316 
L 298.650248 -138.254965 
L 298.528869 -136.329614 
L 298.419538 -134.404263 
L 298.320463 -132.478912 
L 298.230209 -130.553561 
z
" id="m94b247e7b3" style="stroke:#000000;"/>
    </defs>
    <g clip-path="url(#pa78f5121e5)">
     <use style="fill:#fde725;stroke:#000000;" x="0" xlink:href="#m94b247e7b3" y="360"/>
    </g>
   </g>
   <g id="matplotlib.axis_1">
    <g id="xtick_1">
     <g id="line2d_1">
      <defs>
       <path d="M 0 0 
L 0 3.5 
" id="mca2a00fe97" style="stroke:#000000;stroke-width:0.8;"/>
      </defs>
      <g>
       <use style="stroke:#000000;stroke-width:0.8;" x="105.465104" xlink:href="#mca2a00fe97" y="310.12625"/>
      </g>
     </g>
     <g id="text_1">
      <text style="font-family:DejaVu Sans;font-size:10px;font-style:normal;font-weight:normal;" transform="translate(83.024479 324.724687)">Negative</text>
      <text style="font-family:DejaVu Sans;font-size:10px;font-style:normal;font-weight:normal;" transform="translate(64.139323 335.9225)">(Log.Skew&lt;-0.5,</text>
      <text style="font-family:DejaVu Sans;font-size:10px;font-style:normal;font-weight:normal;" transform="translate(85.017448 347.120313)">q&lt;0.05)</text>
     </g>
    </g>
    <g id="xtick_2">
     <g id="line2d_2">
      <g>
       <use style="stroke:#000000;stroke-width:0.8;" x="201.559062" xlink:href="#mca2a00fe97" y="310.12625"/>
      </g>
     </g>
     <g id="text_2">
      <text style="font-family:DejaVu Sans;font-size:10px;font-style:normal;font-weight:normal;" transform="translate(183.104375 324.724687)">Neutral</text>
      <text style="font-family:DejaVu Sans;font-size:10px;font-style:normal;font-weight:normal;" transform="translate(148.091875 335.9225)">(-0.5&lt;Log.Skew&lt;0.5,</text>
      <text style="font-family:DejaVu Sans;font-size:10px;font-style:normal;font-weight:normal;" transform="translate(181.111406 347.120313)">q&gt;0.05)</text>
     </g>
    </g>
    <g id="xtick_3">
     <g id="line2d_3">
      <g>
       <use style="stroke:#000000;stroke-width:0.8;" x="297.653021" xlink:href="#mca2a00fe97" y="310.12625"/>
      </g>
     </g>
     <g id="text_3">
      <text style="font-family:DejaVu Sans;font-size:10px;font-style:normal;font-weight:normal;" transform="translate(278.20224 324.724687)">Positive</text>
      <text style="font-family:DejaVu Sans;font-size:10px;font-style:normal;font-weight:normal;" transform="translate(259.720208 335.9225)">(Log.Skew&gt;05,</text>
      <text style="font-family:DejaVu Sans;font-size:10px;font-style:normal;font-weight:normal;" transform="translate(277.205365 347.120313)">q&lt;0.05)</text>
     </g>
    </g>
   </g>
   <g id="matplotlib.axis_2">
    <g id="ytick_1">
     <g id="line2d_4">
      <defs>
       <path d="M 0 0 
L -3.5 0 
" id="m294b54ae64" style="stroke:#000000;stroke-width:0.8;"/>
      </defs>
      <g>
       <use style="stroke:#000000;stroke-width:0.8;" x="57.418125" xlink:href="#m294b54ae64" y="291.906642"/>
      </g>
     </g>
     <g id="text_4">
      <text style="font-family:DejaVu Sans;font-size:10px;font-style:normal;font-weight:normal;text-anchor:end;" transform="rotate(-0, 50.418125, 295.70586)" x="50.418125" y="295.70586">−3</text>
     </g>
    </g>
    <g id="ytick_2">
     <g id="line2d_5">
      <g>
       <use style="stroke:#000000;stroke-width:0.8;" x="57.418125" xlink:href="#m294b54ae64" y="251.480813"/>
      </g>
     </g>
     <g id="text_5">
      <text style="font-family:DejaVu Sans;font-size:10px;font-style:normal;font-weight:normal;text-anchor:end;" transform="rotate(-0, 50.418125, 255.280032)" x="50.418125" y="255.280032">−2</text>
     </g>
    </g>
    <g id="ytick_3">
     <g id="line2d_6">
      <g>
       <use style="stroke:#000000;stroke-width:0.8;" x="57.418125" xlink:href="#m294b54ae64" y="211.054985"/>
      </g>
     </g>
     <g id="text_6">
      <text style="font-family:DejaVu Sans;font-size:10px;font-style:normal;font-weight:normal;text-anchor:end;" transform="rotate(-0, 50.418125, 214.854203)" x="50.418125" y="214.854203">−1</text>
     </g>
    </g>
    <g id="ytick_4">
     <g id="line2d_7">
      <g>
       <use style="stroke:#000000;stroke-width:0.8;" x="57.418125" xlink:href="#m294b54ae64" y="170.629156"/>
      </g>
     </g>
     <g id="text_7">
      <text style="font-family:DejaVu Sans;font-size:10px;font-style:normal;font-weight:normal;text-anchor:end;" transform="rotate(-0, 50.418125, 174.428375)" x="50.418125" y="174.428375">0</text>
     </g>
    </g>
    <g id="ytick_5">
     <g id="line2d_8">
      <g>
       <use style="stroke:#000000;stroke-width:0.8;" x="57.418125" xlink:href="#m294b54ae64" y="130.203328"/>
      </g>
     </g>
     <g id="text_8">
      <text style="font-family:DejaVu Sans;font-size:10px;font-style:normal;font-weight:normal;text-anchor:end;" transform="rotate(-0, 50.418125, 134.002546)" x="50.418125" y="134.002546">1</text>
     </g>
    </g>
    <g id="ytick_6">
     <g id="line2d_9">
      <g>
       <use style="stroke:#000000;stroke-width:0.8;" x="57.418125" xlink:href="#m294b54ae64" y="89.777499"/>
      </g>
     </g>
     <g id="text_9">
      <text style="font-family:DejaVu Sans;font-size:10px;font-style:normal;font-weight:normal;text-anchor:end;" transform="rotate(-0, 50.418125, 93.576718)" x="50.418125" y="93.576718">2</text>
     </g>
    </g>
    <g id="ytick_7">
     <g id="line2d_10">
      <g>
       <use style="stroke:#000000;stroke-width:0.8;" x="57.418125" xlink:href="#m294b54ae64" y="49.351671"/>
      </g>
     </g>
     <g id="text_10">
      <text style="font-family:DejaVu Sans;font-size:10px;font-style:normal;font-weight:normal;text-anchor:end;" transform="rotate(-0, 50.418125, 53.150889)" x="50.418125" y="53.150889">3</text>
     </g>
    </g>
    <g id="text_11">
     <text style="font-family:DejaVu Sans;font-size:10px;font-style:normal;font-weight:normal;" transform="translate(18.398438 206.512031)rotate(-90)">Predicted.Skew</text>
     <text style="font-family:DejaVu Sans;font-size:10px;font-style:normal;font-weight:normal;" transform="translate(29.59625 197.715938)rotate(-90)">log2(alt/ref)</text>
    </g>
   </g>
   <g id="line2d_11">
    <path clip-path="url(#pa78f5121e5)" d="M 91.05101 199.116901 
L 119.879198 199.116901 
L 119.879198 168.51451 
L 91.05101 168.51451 
L 91.05101 199.116901 
" style="fill:none;stroke:#000000;stroke-linecap:square;"/>
   </g>
   <g id="line2d_12">
    <path clip-path="url(#pa78f5121e5)" d="M 105.465104 199.116901 
L 105.465104 242.467952 
" style="fill:none;stroke:#000000;stroke-linecap:square;"/>
   </g>
   <g id="line2d_13">
    <path clip-path="url(#pa78f5121e5)" d="M 105.465104 168.51451 
L 105.465104 131.929676 
" style="fill:none;stroke:#000000;stroke-linecap:square;"/>
   </g>
   <g id="line2d_14">
    <path clip-path="url(#pa78f5121e5)" d="M 98.258057 242.467952 
L 112.672151 242.467952 
" style="fill:none;stroke:#000000;stroke-linecap:square;"/>
   </g>
   <g id="line2d_15">
    <path clip-path="url(#pa78f5121e5)" d="M 98.258057 131.929676 
L 112.672151 131.929676 
" style="fill:none;stroke:#000000;stroke-linecap:square;"/>
   </g>
   <g id="line2d_16">
    <defs>
     <path d="M 0 3 
C 0.795609 3 1.55874 2.683901 2.12132 2.12132 
C 2.683901 1.55874 3 0.795609 3 0 
C 3 -0.795609 2.683901 -1.55874 2.12132 -2.12132 
C 1.55874 -2.683901 0.795609 -3 0 -3 
C -0.795609 -3 -1.55874 -2.683901 -2.12132 -2.12132 
C -2.683901 -1.55874 -3 -0.795609 -3 0 
C -3 0.795609 -2.683901 1.55874 -2.12132 2.12132 
C -1.55874 2.683901 -0.795609 3 0 3 
z
" id="m247dc52faa" style="stroke:#000000;"/>
    </defs>
    <g clip-path="url(#pa78f5121e5)">
     <use style="fill-opacity:0;stroke:#000000;" x="105.465104" xlink:href="#m247dc52faa" y="247.269593"/>
     <use style="fill-opacity:0;stroke:#000000;" x="105.465104" xlink:href="#m247dc52faa" y="271.295243"/>
     <use style="fill-opacity:0;stroke:#000000;" x="105.465104" xlink:href="#m247dc52faa" y="282.242725"/>
     <use style="fill-opacity:0;stroke:#000000;" x="105.465104" xlink:href="#m247dc52faa" y="247.886211"/>
     <use style="fill-opacity:0;stroke:#000000;" x="105.465104" xlink:href="#m247dc52faa" y="268.278426"/>
     <use style="fill-opacity:0;stroke:#000000;" x="105.465104" xlink:href="#m247dc52faa" y="297.207699"/>
     <use style="fill-opacity:0;stroke:#000000;" x="105.465104" xlink:href="#m247dc52faa" y="261.860226"/>
     <use style="fill-opacity:0;stroke:#000000;" x="105.465104" xlink:href="#m247dc52faa" y="268.220866"/>
     <use style="fill-opacity:0;stroke:#000000;" x="105.465104" xlink:href="#m247dc52faa" y="122.223786"/>
    </g>
   </g>
   <g id="line2d_17">
    <path clip-path="url(#pa78f5121e5)" d="M 0 0 
" style="fill:none;stroke:#000000;stroke-linecap:square;"/>
   </g>
   <g id="line2d_18">
    <path clip-path="url(#pa78f5121e5)" d="M 0 0 
" style="fill:none;stroke:#000000;stroke-linecap:square;"/>
   </g>
   <g id="line2d_19">
    <path clip-path="url(#pa78f5121e5)" d="M 0 0 
" style="fill:none;stroke:#000000;stroke-linecap:square;"/>
   </g>
   <g id="line2d_20">
    <path clip-path="url(#pa78f5121e5)" d="M 0 0 
" style="fill:none;stroke:#000000;stroke-linecap:square;"/>
   </g>
   <g id="line2d_21">
    <path clip-path="url(#pa78f5121e5)" d="M 0 0 
" style="fill:none;stroke:#000000;stroke-linecap:square;"/>
   </g>
   <g id="line2d_22"/>
   <g id="line2d_23">
    <path clip-path="url(#pa78f5121e5)" d="M 283.238927 177.590752 
L 312.067115 177.590752 
L 312.067115 142.855769 
L 283.238927 142.855769 
L 283.238927 177.590752 
" style="fill:none;stroke:#000000;stroke-linecap:square;"/>
   </g>
   <g id="line2d_24">
    <path clip-path="url(#pa78f5121e5)" d="M 297.653021 177.590752 
L 297.653021 229.446439 
" style="fill:none;stroke:#000000;stroke-linecap:square;"/>
   </g>
   <g id="line2d_25">
    <path clip-path="url(#pa78f5121e5)" d="M 297.653021 142.855769 
L 297.653021 98.388906 
" style="fill:none;stroke:#000000;stroke-linecap:square;"/>
   </g>
   <g id="line2d_26">
    <path clip-path="url(#pa78f5121e5)" d="M 290.445974 229.446439 
L 304.860068 229.446439 
" style="fill:none;stroke:#000000;stroke-linecap:square;"/>
   </g>
   <g id="line2d_27">
    <path clip-path="url(#pa78f5121e5)" d="M 290.445974 98.388906 
L 304.860068 98.388906 
" style="fill:none;stroke:#000000;stroke-linecap:square;"/>
   </g>
   <g id="line2d_28">
    <g clip-path="url(#pa78f5121e5)">
     <use style="fill-opacity:0;stroke:#000000;" x="297.653021" xlink:href="#m247dc52faa" y="48.947538"/>
     <use style="fill-opacity:0;stroke:#000000;" x="297.653021" xlink:href="#m247dc52faa" y="38.836676"/>
     <use style="fill-opacity:0;stroke:#000000;" x="297.653021" xlink:href="#m247dc52faa" y="89.177845"/>
     <use style="fill-opacity:0;stroke:#000000;" x="297.653021" xlink:href="#m247dc52faa" y="86.867494"/>
     <use style="fill-opacity:0;stroke:#000000;" x="297.653021" xlink:href="#m247dc52faa" y="76.15823"/>
     <use style="fill-opacity:0;stroke:#000000;" x="297.653021" xlink:href="#m247dc52faa" y="88.075843"/>
     <use style="fill-opacity:0;stroke:#000000;" x="297.653021" xlink:href="#m247dc52faa" y="88.073916"/>
    </g>
   </g>
   <g id="line2d_29">
    <path clip-path="url(#pa78f5121e5)" d="M 57.418125 170.629156 
L 345.7 170.629156 
" style="fill:none;stroke:#000000;stroke-dasharray:5.55,2.4;stroke-dashoffset:0;stroke-width:1.5;"/>
   </g>
   <g id="line2d_30">
    <path clip-path="url(#pa78f5121e5)" d="M 91.05101 179.778084 
L 119.879198 179.778084 
" style="fill:none;stroke:#ff7f0e;stroke-linecap:square;"/>
   </g>
   <g id="line2d_31">
    <path clip-path="url(#pa78f5121e5)" d="M 0 0 
" style="fill:none;stroke:#ff7f0e;stroke-linecap:square;"/>
   </g>
   <g id="line2d_32">
    <path clip-path="url(#pa78f5121e5)" d="M 283.238927 164.978215 
L 312.067115 164.978215 
" style="fill:none;stroke:#ff7f0e;stroke-linecap:square;"/>
   </g>
   <g id="patch_3">
    <path d="M 57.418125 310.12625 
L 57.418125 25.918125 
" style="fill:none;stroke:#000000;stroke-linecap:square;stroke-linejoin:miter;stroke-width:0.8;"/>
   </g>
   <g id="patch_4">
    <path d="M 345.7 310.12625 
L 345.7 25.918125 
" style="fill:none;stroke:#000000;stroke-linecap:square;stroke-linejoin:miter;stroke-width:0.8;"/>
   </g>
   <g id="patch_5">
    <path d="M 57.418125 310.12625 
L 345.7 310.12625 
" style="fill:none;stroke:#000000;stroke-linecap:square;stroke-linejoin:miter;stroke-width:0.8;"/>
   </g>
   <g id="patch_6">
    <path d="M 57.418125 25.918125 
L 345.7 25.918125 
" style="fill:none;stroke:#000000;stroke-linecap:square;stroke-linejoin:miter;stroke-width:0.8;"/>
   </g>
   <g id="text_12">
    <text style="font-family:DejaVu Sans;font-size:12px;font-style:normal;font-weight:normal;text-anchor:middle;" transform="rotate(-0, 201.559062, 19.918125)" x="201.559062" y="19.918125">Predicted skews by category</text>
   </g>
  </g>
 </g>
 <defs>
  <clipPath id="pa78f5121e5">
   <rect height="284.208125" width="288.281875" x="57.418125" y="25.918125"/>
  </clipPath>
 </defs>
</svg>
