<?xml version="1.0" encoding="utf-8" standalone="no"?>
<!DOCTYPE svg PUBLIC "-//W3C//DTD SVG 1.1//EN"
  "http://www.w3.org/Graphics/SVG/1.1/DTD/svg11.dtd">
<!-- Created with matplotlib (https://matplotlib.org/) -->
<svg height="576pt" version="1.1" viewBox="0 0 576 576" width="576pt" xmlns="http://www.w3.org/2000/svg" xmlns:xlink="http://www.w3.org/1999/xlink">
 <defs>
  <style type="text/css">
*{stroke-linecap:butt;stroke-linejoin:round;}
  </style>
 </defs>
 <g id="figure_1">
  <g id="patch_1">
   <path d="M 0 576 
L 576 576 
L 576 0 
L 0 0 
z
" style="fill:#ffffff;"/>
  </g>
  <g id="axes_1">
   <g id="patch_2">
    <path d="M 94.938125 504.689375 
L 556.3 504.689375 
L 556.3 56.03325 
L 94.938125 56.03325 
z
" style="fill:#ffffff;"/>
   </g>
   <g id="PolyCollection_1">
    <defs>
     <path d="M 176.280965 -120.210933 
L 167.382577 -120.210933 
L 167.196564 -122.715735 
L 167.033125 -125.220537 
L 166.894293 -127.725339 
L 166.781484 -130.230141 
L 166.695422 -132.734943 
L 166.636086 -135.239745 
L 166.602674 -137.744547 
L 166.593596 -140.249349 
L 166.606483 -142.754151 
L 166.638224 -145.258953 
L 166.685031 -147.763755 
L 166.742519 -150.268557 
L 166.805811 -152.773359 
L 166.86966 -155.278162 
L 166.928588 -157.782964 
L 166.977036 -160.287766 
L 167.009515 -162.792568 
L 167.020768 -165.29737 
L 167.005917 -167.802172 
L 166.960615 -170.306974 
L 166.881163 -172.811776 
L 166.764627 -175.316578 
L 166.608909 -177.82138 
L 166.412805 -180.326182 
L 166.176015 -182.830984 
L 165.899127 -185.335786 
L 165.583561 -187.840588 
L 165.231479 -190.34539 
L 164.845668 -192.850192 
L 164.429393 -195.354994 
L 163.986234 -197.859796 
L 163.519911 -200.364598 
L 163.034106 -202.8694 
L 162.532297 -205.374202 
L 162.017603 -207.879004 
L 161.492655 -210.383806 
L 160.959498 -212.888608 
L 160.41953 -215.39341 
L 159.873477 -217.898212 
L 159.321413 -220.403014 
L 158.762806 -222.907816 
L 158.196609 -225.412618 
L 157.621367 -227.91742 
L 157.035344 -230.422222 
L 156.43666 -232.927024 
L 155.823427 -235.431826 
L 155.193869 -237.936628 
L 154.546436 -240.44143 
L 153.879882 -242.946232 
L 153.193326 -245.451034 
L 152.486275 -247.955836 
L 151.758637 -250.460638 
L 151.01069 -252.96544 
L 150.243055 -255.470242 
L 149.456647 -257.975044 
L 148.652632 -260.479846 
L 147.832393 -262.984648 
L 146.997504 -265.48945 
L 146.149733 -267.994252 
L 145.291071 -270.499054 
L 144.423774 -273.003856 
L 143.55045 -275.508658 
L 142.674141 -278.01346 
L 141.79844 -280.518262 
L 140.927591 -283.023064 
L 140.066595 -285.527866 
L 139.221287 -288.032668 
L 138.398388 -290.53747 
L 137.605514 -293.042272 
L 136.85114 -295.547074 
L 136.144507 -298.051877 
L 135.495481 -300.556679 
L 134.91436 -303.061481 
L 134.411629 -305.566283 
L 133.997689 -308.071085 
L 133.682555 -310.575887 
L 133.475539 -313.080689 
L 133.384948 -315.585491 
L 133.417791 -318.090293 
L 133.579522 -320.595095 
L 133.873826 -323.099897 
L 134.30246 -325.604699 
L 134.865158 -328.109501 
L 135.559597 -330.614303 
L 136.381423 -333.119105 
L 137.324351 -335.623907 
L 138.380306 -338.128709 
L 139.539623 -340.633511 
L 140.791271 -343.138313 
L 142.123119 -345.643115 
L 143.522205 -348.147917 
L 144.975018 -350.652719 
L 146.467769 -353.157521 
L 147.986664 -355.662323 
L 149.51814 -358.167125 
L 151.049096 -360.671927 
L 152.567087 -363.176729 
L 154.060492 -365.681531 
L 155.51866 -368.186333 
L 188.144882 -368.186333 
L 188.144882 -368.186333 
L 189.60305 -365.681531 
L 191.096455 -363.176729 
L 192.614445 -360.671927 
L 194.145402 -358.167125 
L 195.676878 -355.662323 
L 197.195772 -353.157521 
L 198.688524 -350.652719 
L 200.141336 -348.147917 
L 201.540423 -345.643115 
L 202.872271 -343.138313 
L 204.123919 -340.633511 
L 205.283235 -338.128709 
L 206.339191 -335.623907 
L 207.282119 -333.119105 
L 208.103945 -330.614303 
L 208.798383 -328.109501 
L 209.361082 -325.604699 
L 209.789716 -323.099897 
L 210.08402 -320.595095 
L 210.24575 -318.090293 
L 210.278594 -315.585491 
L 210.188003 -313.080689 
L 209.980987 -310.575887 
L 209.665852 -308.071085 
L 209.251913 -305.566283 
L 208.749182 -303.061481 
L 208.16806 -300.556679 
L 207.519035 -298.051877 
L 206.812402 -295.547074 
L 206.058027 -293.042272 
L 205.265154 -290.53747 
L 204.442255 -288.032668 
L 203.596947 -285.527866 
L 202.735951 -283.023064 
L 201.865102 -280.518262 
L 200.9894 -278.01346 
L 200.113092 -275.508658 
L 199.239767 -273.003856 
L 198.372471 -270.499054 
L 197.513808 -267.994252 
L 196.666038 -265.48945 
L 195.831149 -262.984648 
L 195.010909 -260.479846 
L 194.206895 -257.975044 
L 193.420487 -255.470242 
L 192.652852 -252.96544 
L 191.904905 -250.460638 
L 191.177266 -247.955836 
L 190.470216 -245.451034 
L 189.783659 -242.946232 
L 189.117105 -240.44143 
L 188.469672 -237.936628 
L 187.840115 -235.431826 
L 187.226881 -232.927024 
L 186.628198 -230.422222 
L 186.042174 -227.91742 
L 185.466932 -225.412618 
L 184.900736 -222.907816 
L 184.342129 -220.403014 
L 183.790064 -217.898212 
L 183.244012 -215.39341 
L 182.704043 -212.888608 
L 182.170886 -210.383806 
L 181.645938 -207.879004 
L 181.131244 -205.374202 
L 180.629436 -202.8694 
L 180.143631 -200.364598 
L 179.677307 -197.859796 
L 179.234148 -195.354994 
L 178.817874 -192.850192 
L 178.432063 -190.34539 
L 178.079981 -187.840588 
L 177.764414 -185.335786 
L 177.487526 -182.830984 
L 177.250736 -180.326182 
L 177.054632 -177.82138 
L 176.898915 -175.316578 
L 176.782378 -172.811776 
L 176.702927 -170.306974 
L 176.657624 -167.802172 
L 176.642774 -165.29737 
L 176.654026 -162.792568 
L 176.686506 -160.287766 
L 176.734953 -157.782964 
L 176.793882 -155.278162 
L 176.857731 -152.773359 
L 176.921022 -150.268557 
L 176.97851 -147.763755 
L 177.025317 -145.258953 
L 177.057059 -142.754151 
L 177.069945 -140.249349 
L 177.060867 -137.744547 
L 177.027456 -135.239745 
L 176.96812 -132.734943 
L 176.882058 -130.230141 
L 176.769249 -127.725339 
L 176.630417 -125.220537 
L 176.466978 -122.715735 
L 176.280965 -120.210933 
z
" id="m8497de2331" style="stroke:#000000;"/>
    </defs>
    <g clip-path="url(#p939b12c148)">
     <use style="fill:#440154;stroke:#000000;" x="0" xlink:href="#m8497de2331" y="576"/>
    </g>
   </g>
   <g id="PolyCollection_2">
    <defs>
     <path d="M 325.748333 -91.704085 
L 325.489792 -91.704085 
L 325.512207 -95.823976 
L 325.558711 -99.943867 
L 325.595772 -104.063758 
L 325.612921 -108.183649 
L 325.617956 -112.30354 
L 325.618926 -116.423431 
L 325.619051 -120.543322 
L 325.619062 -124.663213 
L 325.619062 -128.783104 
L 325.619062 -132.902995 
L 325.619062 -137.022886 
L 325.619062 -141.142777 
L 325.619063 -145.262668 
L 325.619063 -149.382559 
L 325.619063 -153.50245 
L 325.619063 -157.622341 
L 325.619063 -161.742231 
L 325.619063 -165.862122 
L 325.619063 -169.982013 
L 325.619063 -174.101904 
L 325.619062 -178.221795 
L 325.619062 -182.341686 
L 325.619062 -186.461577 
L 325.619062 -190.581468 
L 325.619062 -194.701359 
L 325.61905 -198.82125 
L 325.618908 -202.941141 
L 325.617709 -207.061032 
L 325.610925 -211.180923 
L 325.585358 -215.300814 
L 325.522643 -219.420705 
L 325.427029 -223.540596 
L 325.34711 -227.660487 
L 325.330775 -231.780378 
L 325.367253 -235.900269 
L 325.417344 -240.02016 
L 325.457415 -244.140051 
L 325.460377 -248.259942 
L 325.397768 -252.379832 
L 325.27734 -256.499723 
L 325.139525 -260.619614 
L 325.024919 -264.739505 
L 324.957906 -268.859396 
L 324.942723 -272.979287 
L 324.958797 -277.099178 
L 324.939784 -281.219069 
L 324.775654 -285.33896 
L 324.380713 -289.458851 
L 323.727412 -293.578742 
L 322.773796 -297.698633 
L 321.441196 -301.818524 
L 319.711192 -305.938415 
L 317.535791 -310.058306 
L 314.557276 -314.178197 
L 310.123951 -318.298088 
L 303.822472 -322.417979 
L 296.363547 -326.53787 
L 289.954742 -330.657761 
L 287.17224 -334.777652 
L 289.157586 -338.897543 
L 294.868102 -343.017433 
L 301.849103 -347.137324 
L 308.001632 -351.257215 
L 312.788783 -355.377106 
L 316.598712 -359.496997 
L 319.589644 -363.616888 
L 321.62035 -367.736779 
L 322.72257 -371.85667 
L 323.213507 -375.976561 
L 323.497564 -380.096452 
L 323.847666 -384.216343 
L 324.307688 -388.336234 
L 324.743366 -392.456125 
L 324.983134 -396.576016 
L 324.972407 -400.695907 
L 324.829838 -404.815798 
L 324.749859 -408.935689 
L 324.849444 -413.05558 
L 325.093294 -417.175471 
L 325.349584 -421.295362 
L 325.517718 -425.415253 
L 325.590075 -429.535144 
L 325.605036 -433.655034 
L 325.587826 -437.774925 
L 325.546508 -441.894816 
L 325.499552 -446.014707 
L 325.476036 -450.134598 
L 325.477742 -454.254489 
L 325.478267 -458.37438 
L 325.4754 -462.494271 
L 325.495575 -466.614162 
L 325.541338 -470.734053 
L 325.584871 -474.853944 
L 325.607709 -478.973835 
L 325.610812 -483.093726 
L 325.595475 -487.213617 
L 325.558682 -491.333508 
L 325.512205 -495.453399 
L 325.489792 -499.57329 
L 325.748333 -499.57329 
L 325.748333 -499.57329 
L 325.72592 -495.453399 
L 325.679443 -491.333508 
L 325.64265 -487.213617 
L 325.627313 -483.093726 
L 325.630416 -478.973835 
L 325.653254 -474.853944 
L 325.696787 -470.734053 
L 325.74255 -466.614162 
L 325.762725 -462.494271 
L 325.759858 -458.37438 
L 325.760383 -454.254489 
L 325.762089 -450.134598 
L 325.738573 -446.014707 
L 325.691617 -441.894816 
L 325.650299 -437.774925 
L 325.633089 -433.655034 
L 325.64805 -429.535144 
L 325.720407 -425.415253 
L 325.888541 -421.295362 
L 326.144831 -417.175471 
L 326.388681 -413.05558 
L 326.488266 -408.935689 
L 326.408287 -404.815798 
L 326.265718 -400.695907 
L 326.254991 -396.576016 
L 326.494759 -392.456125 
L 326.930437 -388.336234 
L 327.390459 -384.216343 
L 327.740561 -380.096452 
L 328.024618 -375.976561 
L 328.515555 -371.85667 
L 329.617775 -367.736779 
L 331.648481 -363.616888 
L 334.639413 -359.496997 
L 338.449342 -355.377106 
L 343.236493 -351.257215 
L 349.389022 -347.137324 
L 356.370023 -343.017433 
L 362.080539 -338.897543 
L 364.065885 -334.777652 
L 361.283383 -330.657761 
L 354.874578 -326.53787 
L 347.415653 -322.417979 
L 341.114174 -318.298088 
L 336.680849 -314.178197 
L 333.702334 -310.058306 
L 331.526933 -305.938415 
L 329.796929 -301.818524 
L 328.464329 -297.698633 
L 327.510713 -293.578742 
L 326.857412 -289.458851 
L 326.462471 -285.33896 
L 326.298341 -281.219069 
L 326.279328 -277.099178 
L 326.295402 -272.979287 
L 326.280219 -268.859396 
L 326.213206 -264.739505 
L 326.0986 -260.619614 
L 325.960785 -256.499723 
L 325.840357 -252.379832 
L 325.777748 -248.259942 
L 325.78071 -244.140051 
L 325.820781 -240.02016 
L 325.870872 -235.900269 
L 325.90735 -231.780378 
L 325.891015 -227.660487 
L 325.811096 -223.540596 
L 325.715482 -219.420705 
L 325.652767 -215.300814 
L 325.6272 -211.180923 
L 325.620416 -207.061032 
L 325.619217 -202.941141 
L 325.619075 -198.82125 
L 325.619063 -194.701359 
L 325.619063 -190.581468 
L 325.619063 -186.461577 
L 325.619063 -182.341686 
L 325.619063 -178.221795 
L 325.619063 -174.101904 
L 325.619063 -169.982013 
L 325.619063 -165.862122 
L 325.619063 -161.742231 
L 325.619063 -157.622341 
L 325.619063 -153.50245 
L 325.619063 -149.382559 
L 325.619063 -145.262668 
L 325.619063 -141.142777 
L 325.619063 -137.022886 
L 325.619063 -132.902995 
L 325.619063 -128.783104 
L 325.619063 -124.663213 
L 325.619074 -120.543322 
L 325.619199 -116.423431 
L 325.620169 -112.30354 
L 325.625204 -108.183649 
L 325.642353 -104.063758 
L 325.679414 -99.943867 
L 325.725918 -95.823976 
L 325.748333 -91.704085 
z
" id="mcdb7472ffc" style="stroke:#000000;"/>
    </defs>
    <g clip-path="url(#p939b12c148)">
     <use style="fill:#238a8d;stroke:#000000;" x="0" xlink:href="#mcdb7472ffc" y="576"/>
    </g>
   </g>
   <g id="PolyCollection_3">
    <defs>
     <path d="M 503.083119 -317.399824 
L 455.72959 -317.399824 
L 454.328751 -318.871487 
L 452.947331 -320.34315 
L 451.596164 -321.814813 
L 450.286086 -323.286476 
L 449.027765 -324.758139 
L 447.831539 -326.229802 
L 446.707244 -327.701465 
L 445.664066 -329.173128 
L 444.710389 -330.64479 
L 443.853671 -332.116453 
L 443.100324 -333.588116 
L 442.455621 -335.059779 
L 441.92363 -336.531442 
L 441.507152 -338.003105 
L 441.207706 -339.474768 
L 441.025515 -340.946431 
L 440.959531 -342.418094 
L 441.007475 -343.889757 
L 441.165894 -345.36142 
L 441.430246 -346.833083 
L 441.794993 -348.304746 
L 442.253709 -349.776409 
L 442.799205 -351.248072 
L 443.42366 -352.719735 
L 444.118752 -354.191398 
L 444.8758 -355.66306 
L 445.685904 -357.134723 
L 446.540084 -358.606386 
L 447.429408 -360.078049 
L 448.345124 -361.549712 
L 449.278771 -363.021375 
L 450.222292 -364.493038 
L 451.168122 -365.964701 
L 452.109272 -367.436364 
L 453.039393 -368.908027 
L 453.952829 -370.37969 
L 454.844649 -371.851353 
L 455.710666 -373.323016 
L 456.547444 -374.794679 
L 457.352284 -376.266342 
L 458.123199 -377.738005 
L 458.858879 -379.209668 
L 459.558635 -380.681331 
L 460.222346 -382.152993 
L 460.850387 -383.624656 
L 461.443556 -385.096319 
L 462.002997 -386.567982 
L 462.530116 -388.039645 
L 463.026504 -389.511308 
L 463.493858 -390.982971 
L 463.933906 -392.454634 
L 464.348339 -393.926297 
L 464.738753 -395.39796 
L 465.106598 -396.869623 
L 465.453135 -398.341286 
L 465.779414 -399.812949 
L 466.086252 -401.284612 
L 466.374236 -402.756275 
L 466.643723 -404.227938 
L 466.894869 -405.699601 
L 467.127654 -407.171264 
L 467.341927 -408.642926 
L 467.537448 -410.114589 
L 467.713946 -411.586252 
L 467.871171 -413.057915 
L 468.00896 -414.529578 
L 468.127282 -416.001241 
L 468.226301 -417.472904 
L 468.306418 -418.944567 
L 468.368311 -420.41623 
L 468.412965 -421.887893 
L 468.441693 -423.359556 
L 468.456139 -424.831219 
L 468.458276 -426.302882 
L 468.450388 -427.774545 
L 468.435041 -429.246208 
L 468.415041 -430.717871 
L 468.393386 -432.189534 
L 468.373206 -433.661197 
L 468.357701 -435.132859 
L 468.35007 -436.604522 
L 468.353442 -438.076185 
L 468.37081 -439.547848 
L 468.404959 -441.019511 
L 468.458405 -442.491174 
L 468.533344 -443.962837 
L 468.6316 -445.4345 
L 468.754589 -446.906163 
L 468.903293 -448.377826 
L 469.078242 -449.849489 
L 469.279509 -451.321152 
L 469.506718 -452.792815 
L 469.759054 -454.264478 
L 470.035297 -455.736141 
L 470.333847 -457.207804 
L 470.652771 -458.679467 
L 470.989848 -460.151129 
L 471.342619 -461.622792 
L 471.708444 -463.094455 
L 487.104264 -463.094455 
L 487.104264 -463.094455 
L 487.470089 -461.622792 
L 487.822861 -460.151129 
L 488.159938 -458.679467 
L 488.478862 -457.207804 
L 488.777412 -455.736141 
L 489.053654 -454.264478 
L 489.305991 -452.792815 
L 489.533199 -451.321152 
L 489.734467 -449.849489 
L 489.909416 -448.377826 
L 490.05812 -446.906163 
L 490.181109 -445.4345 
L 490.279364 -443.962837 
L 490.354303 -442.491174 
L 490.40775 -441.019511 
L 490.441898 -439.547848 
L 490.459266 -438.076185 
L 490.462639 -436.604522 
L 490.455007 -435.132859 
L 490.439502 -433.661197 
L 490.419322 -432.189534 
L 490.397667 -430.717871 
L 490.377667 -429.246208 
L 490.36232 -427.774545 
L 490.354433 -426.302882 
L 490.35657 -424.831219 
L 490.371015 -423.359556 
L 490.399743 -421.887893 
L 490.444397 -420.41623 
L 490.50629 -418.944567 
L 490.586407 -417.472904 
L 490.685426 -416.001241 
L 490.803749 -414.529578 
L 490.941537 -413.057915 
L 491.098763 -411.586252 
L 491.27526 -410.114589 
L 491.470781 -408.642926 
L 491.685054 -407.171264 
L 491.91784 -405.699601 
L 492.168986 -404.227938 
L 492.438473 -402.756275 
L 492.726456 -401.284612 
L 493.033295 -399.812949 
L 493.359574 -398.341286 
L 493.706111 -396.869623 
L 494.073955 -395.39796 
L 494.464369 -393.926297 
L 494.878802 -392.454634 
L 495.31885 -390.982971 
L 495.786204 -389.511308 
L 496.282592 -388.039645 
L 496.809711 -386.567982 
L 497.369152 -385.096319 
L 497.962321 -383.624656 
L 498.590362 -382.152993 
L 499.254073 -380.681331 
L 499.95383 -379.209668 
L 500.689509 -377.738005 
L 501.460424 -376.266342 
L 502.265264 -374.794679 
L 503.102042 -373.323016 
L 503.968059 -371.851353 
L 504.859879 -370.37969 
L 505.773315 -368.908027 
L 506.703437 -367.436364 
L 507.644587 -365.964701 
L 508.590417 -364.493038 
L 509.533937 -363.021375 
L 510.467585 -361.549712 
L 511.3833 -360.078049 
L 512.272624 -358.606386 
L 513.126804 -357.134723 
L 513.936909 -355.66306 
L 514.693957 -354.191398 
L 515.389048 -352.719735 
L 516.013503 -351.248072 
L 516.559 -349.776409 
L 517.017716 -348.304746 
L 517.382462 -346.833083 
L 517.646814 -345.36142 
L 517.805233 -343.889757 
L 517.853177 -342.418094 
L 517.787194 -340.946431 
L 517.605003 -339.474768 
L 517.305556 -338.003105 
L 516.889079 -336.531442 
L 516.357087 -335.059779 
L 515.712385 -333.588116 
L 514.959037 -332.116453 
L 514.102319 -330.64479 
L 513.148643 -329.173128 
L 512.105464 -327.701465 
L 510.98117 -326.229802 
L 509.784943 -324.758139 
L 508.526622 -323.286476 
L 507.216544 -321.814813 
L 505.865377 -320.34315 
L 504.483958 -318.871487 
L 503.083119 -317.399824 
z
" id="mcceb67e60a" style="stroke:#000000;"/>
    </defs>
    <g clip-path="url(#p939b12c148)">
     <use style="fill:#fde725;stroke:#000000;" x="0" xlink:href="#mcceb67e60a" y="576"/>
    </g>
   </g>
   <g id="matplotlib.axis_1">
    <g id="xtick_1">
     <g id="line2d_1">
      <defs>
       <path d="M 0 0 
L 0 3.5 
" id="mdb8f646d3a" style="stroke:#000000;stroke-width:0.8;"/>
      </defs>
      <g>
       <use style="stroke:#000000;stroke-width:0.8;" x="171.831771" xlink:href="#mdb8f646d3a" y="504.689375"/>
      </g>
     </g>
     <g id="text_1">
      <text style="font-family:DejaVu Sans;font-size:15px;font-style:normal;font-weight:normal;" transform="translate(138.170833 523.087031)">Negative</text>
      <text style="font-family:DejaVu Sans;font-size:15px;font-style:normal;font-weight:normal;" transform="translate(109.843099 539.88375)">(Log.Skew&lt;-0.5,</text>
      <text style="font-family:DejaVu Sans;font-size:15px;font-style:normal;font-weight:normal;" transform="translate(141.160286 556.680469)">q&lt;0.05)</text>
     </g>
    </g>
    <g id="xtick_2">
     <g id="line2d_2">
      <g>
       <use style="stroke:#000000;stroke-width:0.8;" x="325.619063" xlink:href="#mdb8f646d3a" y="504.689375"/>
      </g>
     </g>
     <g id="text_2">
      <text style="font-family:DejaVu Sans;font-size:15px;font-style:normal;font-weight:normal;" transform="translate(297.937031 523.087031)">Neutral</text>
      <text style="font-family:DejaVu Sans;font-size:15px;font-style:normal;font-weight:normal;" transform="translate(245.418281 539.88375)">(-0.5&lt;Log.Skew&lt;0.5,</text>
      <text style="font-family:DejaVu Sans;font-size:15px;font-style:normal;font-weight:normal;" transform="translate(294.947578 556.680469)">q&gt;0.05)</text>
     </g>
    </g>
    <g id="xtick_3">
     <g id="line2d_3">
      <g>
       <use style="stroke:#000000;stroke-width:0.8;" x="479.406354" xlink:href="#mdb8f646d3a" y="504.689375"/>
      </g>
     </g>
     <g id="text_3">
      <text style="font-family:DejaVu Sans;font-size:15px;font-style:normal;font-weight:normal;" transform="translate(450.230182 523.087031)">Positive</text>
      <text style="font-family:DejaVu Sans;font-size:15px;font-style:normal;font-weight:normal;" transform="translate(422.507135 539.88375)">(Log.Skew&gt;05,</text>
      <text style="font-family:DejaVu Sans;font-size:15px;font-style:normal;font-weight:normal;" transform="translate(448.73487 556.680469)">q&lt;0.05)</text>
     </g>
    </g>
   </g>
   <g id="matplotlib.axis_2">
    <g id="ytick_1">
     <g id="line2d_4">
      <defs>
       <path d="M 0 0 
L -3.5 0 
" id="m20b22da910" style="stroke:#000000;stroke-width:0.8;"/>
      </defs>
      <g>
       <use style="stroke:#000000;stroke-width:0.8;" x="94.938125" xlink:href="#m20b22da910" y="471.291389"/>
      </g>
     </g>
     <g id="text_4">
      <text style="font-family:DejaVu Sans;font-size:15px;font-style:normal;font-weight:normal;text-anchor:end;" transform="rotate(-0, 87.938125, 476.990218)" x="87.938125" y="476.990218">−0.6</text>
     </g>
    </g>
    <g id="ytick_2">
     <g id="line2d_5">
      <g>
       <use style="stroke:#000000;stroke-width:0.8;" x="94.938125" xlink:href="#m20b22da910" y="394.5805"/>
      </g>
     </g>
     <g id="text_5">
      <text style="font-family:DejaVu Sans;font-size:15px;font-style:normal;font-weight:normal;text-anchor:end;" transform="rotate(-0, 87.938125, 400.279328)" x="87.938125" y="400.279328">−0.4</text>
     </g>
    </g>
    <g id="ytick_3">
     <g id="line2d_6">
      <g>
       <use style="stroke:#000000;stroke-width:0.8;" x="94.938125" xlink:href="#m20b22da910" y="317.869611"/>
      </g>
     </g>
     <g id="text_6">
      <text style="font-family:DejaVu Sans;font-size:15px;font-style:normal;font-weight:normal;text-anchor:end;" transform="rotate(-0, 87.938125, 323.568439)" x="87.938125" y="323.568439">−0.2</text>
     </g>
    </g>
    <g id="ytick_4">
     <g id="line2d_7">
      <g>
       <use style="stroke:#000000;stroke-width:0.8;" x="94.938125" xlink:href="#m20b22da910" y="241.158721"/>
      </g>
     </g>
     <g id="text_7">
      <text style="font-family:DejaVu Sans;font-size:15px;font-style:normal;font-weight:normal;text-anchor:end;" transform="rotate(-0, 87.938125, 246.857549)" x="87.938125" y="246.857549">0.0</text>
     </g>
    </g>
    <g id="ytick_5">
     <g id="line2d_8">
      <g>
       <use style="stroke:#000000;stroke-width:0.8;" x="94.938125" xlink:href="#m20b22da910" y="164.447832"/>
      </g>
     </g>
     <g id="text_8">
      <text style="font-family:DejaVu Sans;font-size:15px;font-style:normal;font-weight:normal;text-anchor:end;" transform="rotate(-0, 87.938125, 170.14666)" x="87.938125" y="170.14666">0.2</text>
     </g>
    </g>
    <g id="ytick_6">
     <g id="line2d_9">
      <g>
       <use style="stroke:#000000;stroke-width:0.8;" x="94.938125" xlink:href="#m20b22da910" y="87.736942"/>
      </g>
     </g>
     <g id="text_9">
      <text style="font-family:DejaVu Sans;font-size:15px;font-style:normal;font-weight:normal;text-anchor:end;" transform="rotate(-0, 87.938125, 93.43577)" x="87.938125" y="93.43577">0.4</text>
     </g>
    </g>
    <g id="text_10">
     <text style="font-family:DejaVu Sans;font-size:15px;font-style:normal;font-weight:normal;" transform="translate(27.597656 338.096078)rotate(-90)">Predicted.Skew</text>
     <text style="font-family:DejaVu Sans;font-size:15px;font-style:normal;font-weight:normal;" transform="translate(44.394375 324.901937)rotate(-90)">log2(alt/ref)</text>
    </g>
   </g>
   <g id="line2d_10">
    <path clip-path="url(#p939b12c148)" d="M 148.763677 316.634552 
L 194.899865 316.634552 
L 194.899865 247.512424 
L 148.763677 247.512424 
L 148.763677 316.634552 
" style="fill:none;stroke:#000000;stroke-linecap:square;"/>
   </g>
   <g id="line2d_11">
    <path clip-path="url(#p939b12c148)" d="M 171.831771 316.634552 
L 171.831771 419.986113 
" style="fill:none;stroke:#000000;stroke-linecap:square;"/>
   </g>
   <g id="line2d_12">
    <path clip-path="url(#p939b12c148)" d="M 171.831771 247.512424 
L 171.831771 207.813667 
" style="fill:none;stroke:#000000;stroke-linecap:square;"/>
   </g>
   <g id="line2d_13">
    <path clip-path="url(#p939b12c148)" d="M 160.297724 419.986113 
L 183.365818 419.986113 
" style="fill:none;stroke:#000000;stroke-linecap:square;"/>
   </g>
   <g id="line2d_14">
    <path clip-path="url(#p939b12c148)" d="M 160.297724 207.813667 
L 183.365818 207.813667 
" style="fill:none;stroke:#000000;stroke-linecap:square;"/>
   </g>
   <g id="line2d_15">
    <defs>
     <path d="M 0 3 
C 0.795609 3 1.55874 2.683901 2.12132 2.12132 
C 2.683901 1.55874 3 0.795609 3 0 
C 3 -0.795609 2.683901 -1.55874 2.12132 -2.12132 
C 1.55874 -2.683901 0.795609 -3 0 -3 
C -0.795609 -3 -1.55874 -2.683901 -2.12132 -2.12132 
C -2.683901 -1.55874 -3 -0.795609 -3 0 
C -3 0.795609 -2.683901 1.55874 -2.12132 2.12132 
C -1.55874 2.683901 -0.795609 3 0 3 
z
" id="mfb815407f4" style="stroke:#000000;"/>
    </defs>
    <g clip-path="url(#p939b12c148)">
     <use style="fill-opacity:0;stroke:#000000;" x="171.831771" xlink:href="#mfb815407f4" y="455.789067"/>
     <use style="fill-opacity:0;stroke:#000000;" x="171.831771" xlink:href="#mfb815407f4" y="433.807521"/>
     <use style="fill-opacity:0;stroke:#000000;" x="171.831771" xlink:href="#mfb815407f4" y="447.633867"/>
    </g>
   </g>
   <g id="line2d_16">
    <path clip-path="url(#p939b12c148)" d="M 302.550969 248.791807 
L 348.687156 248.791807 
L 348.687156 232.341129 
L 302.550969 232.341129 
L 302.550969 248.791807 
" style="fill:none;stroke:#000000;stroke-linecap:square;"/>
   </g>
   <g id="line2d_17">
    <path clip-path="url(#p939b12c148)" d="M 325.619063 248.791807 
L 325.619063 273.186397 
" style="fill:none;stroke:#000000;stroke-linecap:square;"/>
   </g>
   <g id="line2d_18">
    <path clip-path="url(#p939b12c148)" d="M 325.619063 232.341129 
L 325.619063 208.432394 
" style="fill:none;stroke:#000000;stroke-linecap:square;"/>
   </g>
   <g id="line2d_19">
    <path clip-path="url(#p939b12c148)" d="M 314.085016 273.186397 
L 337.153109 273.186397 
" style="fill:none;stroke:#000000;stroke-linecap:square;"/>
   </g>
   <g id="line2d_20">
    <path clip-path="url(#p939b12c148)" d="M 314.085016 208.432394 
L 337.153109 208.432394 
" style="fill:none;stroke:#000000;stroke-linecap:square;"/>
   </g>
   <g id="line2d_21">
    <g clip-path="url(#p939b12c148)">
     <use style="fill-opacity:0;stroke:#000000;" x="325.619063" xlink:href="#mfb815407f4" y="310.765241"/>
     <use style="fill-opacity:0;stroke:#000000;" x="325.619063" xlink:href="#mfb815407f4" y="283.807085"/>
     <use style="fill-opacity:0;stroke:#000000;" x="325.619063" xlink:href="#mfb815407f4" y="306.915663"/>
     <use style="fill-opacity:0;stroke:#000000;" x="325.619063" xlink:href="#mfb815407f4" y="346.183113"/>
     <use style="fill-opacity:0;stroke:#000000;" x="325.619063" xlink:href="#mfb815407f4" y="307.328773"/>
     <use style="fill-opacity:0;stroke:#000000;" x="325.619063" xlink:href="#mfb815407f4" y="281.776882"/>
     <use style="fill-opacity:0;stroke:#000000;" x="325.619063" xlink:href="#mfb815407f4" y="279.560767"/>
     <use style="fill-opacity:0;stroke:#000000;" x="325.619063" xlink:href="#mfb815407f4" y="278.356051"/>
     <use style="fill-opacity:0;stroke:#000000;" x="325.619063" xlink:href="#mfb815407f4" y="335.458633"/>
     <use style="fill-opacity:0;stroke:#000000;" x="325.619063" xlink:href="#mfb815407f4" y="289.491126"/>
     <use style="fill-opacity:0;stroke:#000000;" x="325.619063" xlink:href="#mfb815407f4" y="348.045558"/>
     <use style="fill-opacity:0;stroke:#000000;" x="325.619063" xlink:href="#mfb815407f4" y="280.790357"/>
     <use style="fill-opacity:0;stroke:#000000;" x="325.619063" xlink:href="#mfb815407f4" y="300.412582"/>
     <use style="fill-opacity:0;stroke:#000000;" x="325.619063" xlink:href="#mfb815407f4" y="276.527486"/>
     <use style="fill-opacity:0;stroke:#000000;" x="325.619063" xlink:href="#mfb815407f4" y="299.434196"/>
     <use style="fill-opacity:0;stroke:#000000;" x="325.619063" xlink:href="#mfb815407f4" y="288.79028"/>
     <use style="fill-opacity:0;stroke:#000000;" x="325.619063" xlink:href="#mfb815407f4" y="319.645429"/>
     <use style="fill-opacity:0;stroke:#000000;" x="325.619063" xlink:href="#mfb815407f4" y="297.79927"/>
     <use style="fill-opacity:0;stroke:#000000;" x="325.619063" xlink:href="#mfb815407f4" y="484.295915"/>
     <use style="fill-opacity:0;stroke:#000000;" x="325.619063" xlink:href="#mfb815407f4" y="279.180944"/>
     <use style="fill-opacity:0;stroke:#000000;" x="325.619063" xlink:href="#mfb815407f4" y="282.635473"/>
     <use style="fill-opacity:0;stroke:#000000;" x="325.619063" xlink:href="#mfb815407f4" y="314.664337"/>
     <use style="fill-opacity:0;stroke:#000000;" x="325.619063" xlink:href="#mfb815407f4" y="277.377756"/>
     <use style="fill-opacity:0;stroke:#000000;" x="325.619063" xlink:href="#mfb815407f4" y="278.330811"/>
     <use style="fill-opacity:0;stroke:#000000;" x="325.619063" xlink:href="#mfb815407f4" y="171.328843"/>
     <use style="fill-opacity:0;stroke:#000000;" x="325.619063" xlink:href="#mfb815407f4" y="198.421928"/>
     <use style="fill-opacity:0;stroke:#000000;" x="325.619063" xlink:href="#mfb815407f4" y="198.177766"/>
     <use style="fill-opacity:0;stroke:#000000;" x="325.619063" xlink:href="#mfb815407f4" y="187.221926"/>
     <use style="fill-opacity:0;stroke:#000000;" x="325.619063" xlink:href="#mfb815407f4" y="190.746548"/>
     <use style="fill-opacity:0;stroke:#000000;" x="325.619063" xlink:href="#mfb815407f4" y="198.173651"/>
     <use style="fill-opacity:0;stroke:#000000;" x="325.619063" xlink:href="#mfb815407f4" y="196.186335"/>
     <use style="fill-opacity:0;stroke:#000000;" x="325.619063" xlink:href="#mfb815407f4" y="197.297959"/>
     <use style="fill-opacity:0;stroke:#000000;" x="325.619063" xlink:href="#mfb815407f4" y="189.383081"/>
     <use style="fill-opacity:0;stroke:#000000;" x="325.619063" xlink:href="#mfb815407f4" y="197.542258"/>
     <use style="fill-opacity:0;stroke:#000000;" x="325.619063" xlink:href="#mfb815407f4" y="183.757475"/>
     <use style="fill-opacity:0;stroke:#000000;" x="325.619063" xlink:href="#mfb815407f4" y="207.094074"/>
     <use style="fill-opacity:0;stroke:#000000;" x="325.619063" xlink:href="#mfb815407f4" y="202.003979"/>
     <use style="fill-opacity:0;stroke:#000000;" x="325.619063" xlink:href="#mfb815407f4" y="204.890214"/>
     <use style="fill-opacity:0;stroke:#000000;" x="325.619063" xlink:href="#mfb815407f4" y="200.994044"/>
     <use style="fill-opacity:0;stroke:#000000;" x="325.619063" xlink:href="#mfb815407f4" y="161.042345"/>
     <use style="fill-opacity:0;stroke:#000000;" x="325.619063" xlink:href="#mfb815407f4" y="162.034357"/>
     <use style="fill-opacity:0;stroke:#000000;" x="325.619063" xlink:href="#mfb815407f4" y="165.013501"/>
     <use style="fill-opacity:0;stroke:#000000;" x="325.619063" xlink:href="#mfb815407f4" y="76.42671"/>
     <use style="fill-opacity:0;stroke:#000000;" x="325.619063" xlink:href="#mfb815407f4" y="126.877199"/>
     <use style="fill-opacity:0;stroke:#000000;" x="325.619063" xlink:href="#mfb815407f4" y="207.538322"/>
     <use style="fill-opacity:0;stroke:#000000;" x="325.619063" xlink:href="#mfb815407f4" y="169.534617"/>
     <use style="fill-opacity:0;stroke:#000000;" x="325.619063" xlink:href="#mfb815407f4" y="202.00087"/>
     <use style="fill-opacity:0;stroke:#000000;" x="325.619063" xlink:href="#mfb815407f4" y="168.065163"/>
     <use style="fill-opacity:0;stroke:#000000;" x="325.619063" xlink:href="#mfb815407f4" y="191.626447"/>
     <use style="fill-opacity:0;stroke:#000000;" x="325.619063" xlink:href="#mfb815407f4" y="112.059207"/>
     <use style="fill-opacity:0;stroke:#000000;" x="325.619063" xlink:href="#mfb815407f4" y="204.976539"/>
     <use style="fill-opacity:0;stroke:#000000;" x="325.619063" xlink:href="#mfb815407f4" y="207.613399"/>
     <use style="fill-opacity:0;stroke:#000000;" x="325.619063" xlink:href="#mfb815407f4" y="173.82108"/>
     <use style="fill-opacity:0;stroke:#000000;" x="325.619063" xlink:href="#mfb815407f4" y="195.958908"/>
     <use style="fill-opacity:0;stroke:#000000;" x="325.619063" xlink:href="#mfb815407f4" y="188.828366"/>
     <use style="fill-opacity:0;stroke:#000000;" x="325.619063" xlink:href="#mfb815407f4" y="192.52436"/>
     <use style="fill-opacity:0;stroke:#000000;" x="325.619063" xlink:href="#mfb815407f4" y="193.078526"/>
     <use style="fill-opacity:0;stroke:#000000;" x="325.619063" xlink:href="#mfb815407f4" y="164.85283"/>
    </g>
   </g>
   <g id="line2d_22">
    <path clip-path="url(#p939b12c148)" d="M 456.33826 240.612991 
L 502.474448 240.612991 
L 502.474448 181.830354 
L 456.33826 181.830354 
L 456.33826 240.612991 
" style="fill:none;stroke:#000000;stroke-linecap:square;"/>
   </g>
   <g id="line2d_23">
    <path clip-path="url(#p939b12c148)" d="M 479.406354 240.612991 
L 479.406354 258.600176 
" style="fill:none;stroke:#000000;stroke-linecap:square;"/>
   </g>
   <g id="line2d_24">
    <path clip-path="url(#p939b12c148)" d="M 479.406354 181.830354 
L 479.406354 112.905545 
" style="fill:none;stroke:#000000;stroke-linecap:square;"/>
   </g>
   <g id="line2d_25">
    <path clip-path="url(#p939b12c148)" d="M 467.872307 258.600176 
L 490.940401 258.600176 
" style="fill:none;stroke:#000000;stroke-linecap:square;"/>
   </g>
   <g id="line2d_26">
    <path clip-path="url(#p939b12c148)" d="M 467.872307 112.905545 
L 490.940401 112.905545 
" style="fill:none;stroke:#000000;stroke-linecap:square;"/>
   </g>
   <g id="line2d_27"/>
   <g id="line2d_28">
    <path clip-path="url(#p939b12c148)" d="M 94.938125 241.158721 
L 556.3 241.158721 
" style="fill:none;stroke:#000000;stroke-dasharray:5.55,2.4;stroke-dashoffset:0;stroke-width:1.5;"/>
   </g>
   <g id="line2d_29">
    <path clip-path="url(#p939b12c148)" d="M 148.763677 271.93486 
L 194.899865 271.93486 
" style="fill:none;stroke:#ff7f0e;stroke-linecap:square;"/>
   </g>
   <g id="line2d_30">
    <path clip-path="url(#p939b12c148)" d="M 302.550969 240.657228 
L 348.687156 240.657228 
" style="fill:none;stroke:#ff7f0e;stroke-linecap:square;"/>
   </g>
   <g id="line2d_31">
    <path clip-path="url(#p939b12c148)" d="M 456.33826 223.038321 
L 502.474448 223.038321 
" style="fill:none;stroke:#ff7f0e;stroke-linecap:square;"/>
   </g>
   <g id="patch_3">
    <path d="M 94.938125 504.689375 
L 94.938125 56.03325 
" style="fill:none;stroke:#000000;stroke-linecap:square;stroke-linejoin:miter;stroke-width:0.8;"/>
   </g>
   <g id="patch_4">
    <path d="M 556.3 504.689375 
L 556.3 56.03325 
" style="fill:none;stroke:#000000;stroke-linecap:square;stroke-linejoin:miter;stroke-width:0.8;"/>
   </g>
   <g id="patch_5">
    <path d="M 94.938125 504.689375 
L 556.3 504.689375 
" style="fill:none;stroke:#000000;stroke-linecap:square;stroke-linejoin:miter;stroke-width:0.8;"/>
   </g>
   <g id="patch_6">
    <path d="M 94.938125 56.03325 
L 556.3 56.03325 
" style="fill:none;stroke:#000000;stroke-linecap:square;stroke-linejoin:miter;stroke-width:0.8;"/>
   </g>
   <g id="text_11">
    <text style="font-family:DejaVu Sans;font-size:18px;font-style:normal;font-weight:normal;" transform="translate(196.135781 29.877187)">Predicted skews by category</text>
    <text style="font-family:DejaVu Sans;font-size:18px;font-style:normal;font-weight:normal;" transform="translate(116.983594 50.03325)">(Variants overlapping GM12878 DNase peaks)</text>
   </g>
  </g>
 </g>
 <defs>
  <clipPath id="p939b12c148">
   <rect height="448.656125" width="461.361875" x="94.938125" y="56.03325"/>
  </clipPath>
 </defs>
</svg>
