<?xml version="1.0" encoding="utf-8" standalone="no"?>
<!DOCTYPE svg PUBLIC "-//W3C//DTD SVG 1.1//EN"
  "http://www.w3.org/Graphics/SVG/1.1/DTD/svg11.dtd">
<!-- Created with matplotlib (https://matplotlib.org/) -->
<svg height="288pt" version="1.1" viewBox="0 0 432 288" width="432pt" xmlns="http://www.w3.org/2000/svg" xmlns:xlink="http://www.w3.org/1999/xlink">
 <defs>
  <style type="text/css">
*{stroke-linecap:butt;stroke-linejoin:round;}
  </style>
 </defs>
 <g id="figure_1">
  <g id="patch_1">
   <path d="M 0 288 
L 432 288 
L 432 0 
L 0 0 
z
" style="fill:#ffffff;"/>
  </g>
  <g id="axes_1">
   <g id="patch_2">
    <path d="M 53.74375 246.84375 
L 417.7 246.84375 
L 417.7 30.419062 
L 53.74375 30.419062 
z
" style="fill:#ffffff;"/>
   </g>
   <g id="matplotlib.axis_1">
    <g id="xtick_1">
     <g id="line2d_1">
      <defs>
       <path d="M 0 0 
L 0 3.5 
" id="m2f93b055df" style="stroke:#000000;stroke-width:0.8;"/>
      </defs>
      <g>
       <use style="stroke:#000000;stroke-width:0.8;" x="136.46108" xlink:href="#m2f93b055df" y="246.84375"/>
      </g>
     </g>
     <g id="text_1">
      <!-- $\mathdefault{10^{-3}}$ -->
      <g transform="translate(124.71108 261.442187)">
       <text>
        <tspan style="font-family:DejaVu Sans;font-size:10px;font-style:book;font-weight:book;" x="0 6.362305" y="-0.9765625">10</tspan>
        <tspan style="font-family:DejaVu Sans;font-size:7px;font-style:book;font-weight:book;" x="12.820312 18.685547" y="-4.8046875">−3</tspan>
       </text>
      </g>
     </g>
    </g>
    <g id="xtick_2">
     <g id="line2d_2">
      <g>
       <use style="stroke:#000000;stroke-width:0.8;" x="268.808807" xlink:href="#m2f93b055df" y="246.84375"/>
      </g>
     </g>
     <g id="text_2">
      <!-- $\mathdefault{10^{-2}}$ -->
      <g transform="translate(257.058807 261.442187)">
       <text>
        <tspan style="font-family:DejaVu Sans;font-size:10px;font-style:book;font-weight:book;" x="0 6.362305" y="-0.9765625">10</tspan>
        <tspan style="font-family:DejaVu Sans;font-size:7px;font-style:book;font-weight:book;" x="12.820312 18.685547" y="-4.8046875">−2</tspan>
       </text>
      </g>
     </g>
    </g>
    <g id="xtick_3">
     <g id="line2d_3">
      <g>
       <use style="stroke:#000000;stroke-width:0.8;" x="401.156534" xlink:href="#m2f93b055df" y="246.84375"/>
      </g>
     </g>
     <g id="text_3">
      <!-- $\mathdefault{10^{-1}}$ -->
      <g transform="translate(389.406534 261.442187)">
       <text>
        <tspan style="font-family:DejaVu Sans;font-size:10px;font-style:book;font-weight:book;" x="0 6.362305" y="-0.06406250000000036">10</tspan>
        <tspan style="font-family:DejaVu Sans;font-size:7px;font-style:book;font-weight:book;" x="12.820312 18.685547" y="-3.8921875000000004">−1</tspan>
       </text>
      </g>
     </g>
    </g>
    <g id="xtick_4">
     <g id="line2d_4">
      <defs>
       <path d="M 0 0 
L 0 2 
" id="m94f21f149d" style="stroke:#000000;stroke-width:0.6;"/>
      </defs>
      <g>
       <use style="stroke:#000000;stroke-width:0.6;" x="67.259266" xlink:href="#m94f21f149d" y="246.84375"/>
      </g>
     </g>
    </g>
    <g id="xtick_5">
     <g id="line2d_5">
      <g>
       <use style="stroke:#000000;stroke-width:0.6;" x="83.794624" xlink:href="#m94f21f149d" y="246.84375"/>
      </g>
     </g>
    </g>
    <g id="xtick_6">
     <g id="line2d_6">
      <g>
       <use style="stroke:#000000;stroke-width:0.6;" x="96.620444" xlink:href="#m94f21f149d" y="246.84375"/>
      </g>
     </g>
    </g>
    <g id="xtick_7">
     <g id="line2d_7">
      <g>
       <use style="stroke:#000000;stroke-width:0.6;" x="107.099902" xlink:href="#m94f21f149d" y="246.84375"/>
      </g>
     </g>
    </g>
    <g id="xtick_8">
     <g id="line2d_8">
      <g>
       <use style="stroke:#000000;stroke-width:0.6;" x="115.960157" xlink:href="#m94f21f149d" y="246.84375"/>
      </g>
     </g>
    </g>
    <g id="xtick_9">
     <g id="line2d_9">
      <g>
       <use style="stroke:#000000;stroke-width:0.6;" x="123.63526" xlink:href="#m94f21f149d" y="246.84375"/>
      </g>
     </g>
    </g>
    <g id="xtick_10">
     <g id="line2d_10">
      <g>
       <use style="stroke:#000000;stroke-width:0.6;" x="130.40518" xlink:href="#m94f21f149d" y="246.84375"/>
      </g>
     </g>
    </g>
    <g id="xtick_11">
     <g id="line2d_11">
      <g>
       <use style="stroke:#000000;stroke-width:0.6;" x="176.301715" xlink:href="#m94f21f149d" y="246.84375"/>
      </g>
     </g>
    </g>
    <g id="xtick_12">
     <g id="line2d_12">
      <g>
       <use style="stroke:#000000;stroke-width:0.6;" x="199.606993" xlink:href="#m94f21f149d" y="246.84375"/>
      </g>
     </g>
    </g>
    <g id="xtick_13">
     <g id="line2d_13">
      <g>
       <use style="stroke:#000000;stroke-width:0.6;" x="216.142351" xlink:href="#m94f21f149d" y="246.84375"/>
      </g>
     </g>
    </g>
    <g id="xtick_14">
     <g id="line2d_14">
      <g>
       <use style="stroke:#000000;stroke-width:0.6;" x="228.968171" xlink:href="#m94f21f149d" y="246.84375"/>
      </g>
     </g>
    </g>
    <g id="xtick_15">
     <g id="line2d_15">
      <g>
       <use style="stroke:#000000;stroke-width:0.6;" x="239.447629" xlink:href="#m94f21f149d" y="246.84375"/>
      </g>
     </g>
    </g>
    <g id="xtick_16">
     <g id="line2d_16">
      <g>
       <use style="stroke:#000000;stroke-width:0.6;" x="248.307884" xlink:href="#m94f21f149d" y="246.84375"/>
      </g>
     </g>
    </g>
    <g id="xtick_17">
     <g id="line2d_17">
      <g>
       <use style="stroke:#000000;stroke-width:0.6;" x="255.982987" xlink:href="#m94f21f149d" y="246.84375"/>
      </g>
     </g>
    </g>
    <g id="xtick_18">
     <g id="line2d_18">
      <g>
       <use style="stroke:#000000;stroke-width:0.6;" x="262.752907" xlink:href="#m94f21f149d" y="246.84375"/>
      </g>
     </g>
    </g>
    <g id="xtick_19">
     <g id="line2d_19">
      <g>
       <use style="stroke:#000000;stroke-width:0.6;" x="308.649443" xlink:href="#m94f21f149d" y="246.84375"/>
      </g>
     </g>
    </g>
    <g id="xtick_20">
     <g id="line2d_20">
      <g>
       <use style="stroke:#000000;stroke-width:0.6;" x="331.954721" xlink:href="#m94f21f149d" y="246.84375"/>
      </g>
     </g>
    </g>
    <g id="xtick_21">
     <g id="line2d_21">
      <g>
       <use style="stroke:#000000;stroke-width:0.6;" x="348.490078" xlink:href="#m94f21f149d" y="246.84375"/>
      </g>
     </g>
    </g>
    <g id="xtick_22">
     <g id="line2d_22">
      <g>
       <use style="stroke:#000000;stroke-width:0.6;" x="361.315898" xlink:href="#m94f21f149d" y="246.84375"/>
      </g>
     </g>
    </g>
    <g id="xtick_23">
     <g id="line2d_23">
      <g>
       <use style="stroke:#000000;stroke-width:0.6;" x="371.795356" xlink:href="#m94f21f149d" y="246.84375"/>
      </g>
     </g>
    </g>
    <g id="xtick_24">
     <g id="line2d_24">
      <g>
       <use style="stroke:#000000;stroke-width:0.6;" x="380.655612" xlink:href="#m94f21f149d" y="246.84375"/>
      </g>
     </g>
    </g>
    <g id="xtick_25">
     <g id="line2d_25">
      <g>
       <use style="stroke:#000000;stroke-width:0.6;" x="388.330714" xlink:href="#m94f21f149d" y="246.84375"/>
      </g>
     </g>
    </g>
    <g id="xtick_26">
     <g id="line2d_26">
      <g>
       <use style="stroke:#000000;stroke-width:0.6;" x="395.100634" xlink:href="#m94f21f149d" y="246.84375"/>
      </g>
     </g>
    </g>
    <g id="text_4">
     <text style="font-family:DejaVu Sans;font-size:10px;font-style:normal;font-weight:normal;text-anchor:middle;" transform="rotate(-0, 235.721875, 275.120313)" x="235.721875" y="275.120313">FDR q-value cutoff to define emVAR</text>
    </g>
   </g>
   <g id="matplotlib.axis_2">
    <g id="ytick_1">
     <g id="line2d_27">
      <defs>
       <path d="M 0 0 
L -3.5 0 
" id="m2333dc76af" style="stroke:#000000;stroke-width:0.8;"/>
      </defs>
      <g>
       <use style="stroke:#000000;stroke-width:0.8;" x="53.74375" xlink:href="#m2333dc76af" y="237.006264"/>
      </g>
     </g>
     <g id="text_5">
      <text style="font-family:DejaVu Sans;font-size:10px;font-style:normal;font-weight:normal;text-anchor:end;" transform="rotate(-0, 46.74375, 240.805483)" x="46.74375" y="240.805483">0.50</text>
     </g>
    </g>
    <g id="ytick_2">
     <g id="line2d_28">
      <g>
       <use style="stroke:#000000;stroke-width:0.8;" x="53.74375" xlink:href="#m2333dc76af" y="205.907116"/>
      </g>
     </g>
     <g id="text_6">
      <text style="font-family:DejaVu Sans;font-size:10px;font-style:normal;font-weight:normal;text-anchor:end;" transform="rotate(-0, 46.74375, 209.706334)" x="46.74375" y="209.706334">0.55</text>
     </g>
    </g>
    <g id="ytick_3">
     <g id="line2d_29">
      <g>
       <use style="stroke:#000000;stroke-width:0.8;" x="53.74375" xlink:href="#m2333dc76af" y="174.807967"/>
      </g>
     </g>
     <g id="text_7">
      <text style="font-family:DejaVu Sans;font-size:10px;font-style:normal;font-weight:normal;text-anchor:end;" transform="rotate(-0, 46.74375, 178.607186)" x="46.74375" y="178.607186">0.60</text>
     </g>
    </g>
    <g id="ytick_4">
     <g id="line2d_30">
      <g>
       <use style="stroke:#000000;stroke-width:0.8;" x="53.74375" xlink:href="#m2333dc76af" y="143.708818"/>
      </g>
     </g>
     <g id="text_8">
      <text style="font-family:DejaVu Sans;font-size:10px;font-style:normal;font-weight:normal;text-anchor:end;" transform="rotate(-0, 46.74375, 147.508037)" x="46.74375" y="147.508037">0.65</text>
     </g>
    </g>
    <g id="ytick_5">
     <g id="line2d_31">
      <g>
       <use style="stroke:#000000;stroke-width:0.8;" x="53.74375" xlink:href="#m2333dc76af" y="112.60967"/>
      </g>
     </g>
     <g id="text_9">
      <text style="font-family:DejaVu Sans;font-size:10px;font-style:normal;font-weight:normal;text-anchor:end;" transform="rotate(-0, 46.74375, 116.408888)" x="46.74375" y="116.408888">0.70</text>
     </g>
    </g>
    <g id="ytick_6">
     <g id="line2d_32">
      <g>
       <use style="stroke:#000000;stroke-width:0.8;" x="53.74375" xlink:href="#m2333dc76af" y="81.510521"/>
      </g>
     </g>
     <g id="text_10">
      <text style="font-family:DejaVu Sans;font-size:10px;font-style:normal;font-weight:normal;text-anchor:end;" transform="rotate(-0, 46.74375, 85.30974)" x="46.74375" y="85.30974">0.75</text>
     </g>
    </g>
    <g id="ytick_7">
     <g id="line2d_33">
      <g>
       <use style="stroke:#000000;stroke-width:0.8;" x="53.74375" xlink:href="#m2333dc76af" y="50.411372"/>
      </g>
     </g>
     <g id="text_11">
      <text style="font-family:DejaVu Sans;font-size:10px;font-style:normal;font-weight:normal;text-anchor:end;" transform="rotate(-0, 46.74375, 54.210591)" x="46.74375" y="54.210591">0.80</text>
     </g>
    </g>
    <g id="text_12">
     <text style="font-family:DejaVu Sans;font-size:10px;font-style:normal;font-weight:normal;text-anchor:middle;" transform="rotate(-90, 18.398438, 138.631406)" x="18.398438" y="138.631406">Accuracy of prediction of direction of emVAR affect</text>
    </g>
   </g>
   <g id="line2d_34">
    <path clip-path="url(#p15cc8028a4)" d="M 70.287216 112.60967 
L 77.039651 114.056142 
L 83.792086 107.426478 
L 90.544521 103.724199 
L 97.296956 109.550737 
L 104.049391 99.804138 
L 110.801826 103.724199 
L 117.554261 89.694507 
L 124.306696 93.471732 
L 131.059131 106.823782 
L 137.811567 106.38984 
L 144.564002 110.306029 
L 151.316437 110.665973 
L 158.068872 112.155667 
L 164.821307 120.648905 
L 171.573742 107.587447 
L 178.326177 121.495141 
L 185.078612 120.811643 
L 191.831047 124.195627 
L 198.583482 119.141911 
L 205.335917 118.018217 
L 212.088352 115.201265 
L 218.840787 114.876004 
L 225.593222 113.330113 
L 232.345657 116.551815 
L 239.098093 119.520592 
L 245.850528 119.307948 
L 252.602963 115.553968 
L 259.355398 113.596944 
L 266.107833 121.361189 
L 272.860268 125.406448 
L 279.612703 128.835312 
L 286.365138 133.342435 
L 293.117573 136.050073 
L 299.870008 140.157704 
L 306.622443 144.632555 
L 313.374878 146.02965 
L 320.127313 151.245381 
L 326.879748 151.453196 
L 333.632183 150.38655 
L 340.384619 149.45978 
L 347.137054 154.870815 
L 353.889489 151.830252 
L 360.641924 151.406627 
L 367.394359 151.286127 
L 374.146794 150.604105 
L 380.899229 155.969566 
L 387.651664 160.370842 
L 394.404099 161.875187 
L 401.156534 160.917309 
" style="fill:none;stroke:#1f77b4;stroke-linecap:square;stroke-width:1.5;"/>
   </g>
   <g id="line2d_35">
    <path clip-path="url(#p15cc8028a4)" d="M 70.287216 50.411372 
L 77.039651 56.19726 
L 83.792086 42.636585 
L 90.544521 40.256548 
L 97.296956 68.764968 
L 104.049391 63.216904 
L 110.801826 68.182314 
L 117.554261 73.326535 
L 124.306696 77.523451 
L 131.059131 77.894341 
L 137.811567 75.290691 
L 144.564002 69.992318 
L 151.316437 76.651279 
L 158.068872 71.295472 
L 164.821307 82.568315 
L 171.573742 76.681461 
L 178.326177 93.061633 
L 185.078612 96.889221 
L 191.831047 96.755202 
L 198.583482 93.580967 
L 205.335917 99.088301 
L 212.088352 97.060095 
L 218.840787 97.248957 
L 225.593222 96.519763 
L 232.345657 103.41133 
L 239.098093 103.724199 
L 245.850528 109.738979 
L 252.602963 106.353036 
L 259.355398 103.724199 
L 266.107833 111.984561 
L 272.860268 110.526473 
L 279.612703 115.313943 
L 286.365138 119.603856 
L 293.117573 119.804249 
L 299.870008 118.635802 
L 306.622443 118.973192 
L 313.374878 120.036332 
L 320.127313 123.524691 
L 326.879748 125.50345 
L 333.632183 125.201963 
L 340.384619 124.551157 
L 347.137054 124.684283 
L 353.889489 130.04104 
L 360.641924 128.005288 
L 367.394359 132.562275 
L 374.146794 133.154809 
L 380.899229 138.078346 
L 387.651664 138.616271 
L 394.404099 140.475623 
L 401.156534 138.356049 
" style="fill:none;stroke:#ff7f0e;stroke-linecap:square;stroke-width:1.5;"/>
   </g>
   <g id="line2d_36">
    <path clip-path="url(#p15cc8028a4)" d="M 70.287216 81.510521 
L 77.039651 99.591421 
L 83.792086 94.4685 
L 90.544521 91.030669 
L 97.296956 99.354295 
L 104.049391 90.657329 
L 110.801826 85.953257 
L 117.554261 89.694507 
L 124.306696 93.471732 
L 131.059131 99.591421 
L 137.811567 112.60967 
L 144.564002 98.787826 
L 151.316437 110.665973 
L 158.068872 103.075624 
L 164.821307 112.186552 
L 171.573742 103.724199 
L 178.326177 100.17001 
L 185.078612 100.30671 
L 191.831047 90.657329 
L 198.583482 90.740862 
L 205.335917 85.566932 
L 212.088352 84.102117 
L 218.840787 82.140058 
L 225.593222 89.315327 
L 232.345657 81.510521 
L 239.098093 83.978707 
L 245.850528 82.945866 
L 252.602963 80.590428 
L 259.355398 87.269623 
L 266.107833 88.542992 
L 272.860268 85.230515 
L 279.612703 89.623342 
L 286.365138 95.873582 
L 293.117573 103.558425 
L 299.870008 102.494376 
L 306.622443 101.524825 
L 313.374878 103.326342 
L 320.127313 108.798075 
L 326.879748 109.284858 
L 333.632183 107.649069 
L 340.384619 109.899025 
L 347.137054 113.452084 
L 353.889489 118.156015 
L 360.641924 122.462865 
L 367.394359 124.95571 
L 374.146794 126.400242 
L 380.899229 131.763798 
L 387.651664 135.649738 
L 394.404099 133.962713 
L 401.156534 135.259405 
" style="fill:none;stroke:#2ca02c;stroke-linecap:square;stroke-width:1.5;"/>
   </g>
   <g id="line2d_37">
    <path clip-path="url(#p15cc8028a4)" d="M 70.287216 190.357541 
L 77.039651 186.379743 
L 83.792086 198.132328 
L 90.544521 205.272439 
L 97.296956 211.515159 
L 104.049391 237.006264 
L 110.801826 237.006264 
L 117.554261 228.822278 
L 124.306696 221.057983 
L 131.059131 222.541544 
L 137.811567 218.346775 
L 144.564002 213.969858 
L 151.316437 217.569296 
L 158.068872 230.196232 
L 164.821307 234.890676 
L 171.573742 227.348144 
L 178.326177 235.22917 
L 185.078612 233.588775 
L 191.831047 230.908392 
L 198.583482 232.746107 
L 205.335917 228.893443 
L 212.088352 226.639881 
L 218.840787 225.674591 
L 225.593222 228.601089 
L 232.345657 237.006264 
L 239.098093 236.01899 
L 245.850528 236.049367 
L 252.602963 235.166078 
L 259.355398 230.424434 
L 266.107833 229.192408 
L 272.860268 234.030269 
L 279.612703 231.597717 
L 286.365138 225.765608 
L 293.117573 221.920856 
L 299.870008 220.864838 
L 306.622443 218.531522 
L 313.374878 222.152939 
L 320.127313 221.413376 
L 326.879748 218.760349 
L 333.632183 220.598124 
L 340.384619 221.255223 
L 347.137054 220.157967 
L 353.889489 218.518448 
L 360.641924 214.836574 
L 367.394359 214.479129 
L 374.146794 217.024006 
L 380.899229 223.324744 
L 387.651664 226.128979 
L 394.404099 223.747839 
L 401.156534 222.407802 
" style="fill:none;stroke:#d62728;stroke-linecap:square;stroke-width:1.5;"/>
   </g>
   <g id="patch_3">
    <path d="M 53.74375 246.84375 
L 53.74375 30.419062 
" style="fill:none;stroke:#000000;stroke-linecap:square;stroke-linejoin:miter;stroke-width:0.8;"/>
   </g>
   <g id="patch_4">
    <path d="M 417.7 246.84375 
L 417.7 30.419062 
" style="fill:none;stroke:#000000;stroke-linecap:square;stroke-linejoin:miter;stroke-width:0.8;"/>
   </g>
   <g id="patch_5">
    <path d="M 53.74375 246.84375 
L 417.7 246.84375 
" style="fill:none;stroke:#000000;stroke-linecap:square;stroke-linejoin:miter;stroke-width:0.8;"/>
   </g>
   <g id="patch_6">
    <path d="M 53.74375 30.419062 
L 417.7 30.419062 
" style="fill:none;stroke:#000000;stroke-linecap:square;stroke-linejoin:miter;stroke-width:0.8;"/>
   </g>
   <g id="legend_1">
    <g id="patch_7">
     <path d="M 289.748437 97.131562 
L 410.7 97.131562 
Q 412.7 97.131562 412.7 95.131562 
L 412.7 37.419062 
Q 412.7 35.419062 410.7 35.419062 
L 289.748437 35.419062 
Q 287.748437 35.419062 287.748437 37.419062 
L 287.748437 95.131562 
Q 287.748437 97.131562 289.748437 97.131562 
z
" style="fill:#ffffff;opacity:0.8;stroke:#cccccc;stroke-linejoin:miter;"/>
    </g>
    <g id="line2d_38">
     <path d="M 291.748437 43.5175 
L 311.748437 43.5175 
" style="fill:none;stroke:#1f77b4;stroke-linecap:square;stroke-width:1.5;"/>
    </g>
    <g id="line2d_39"/>
    <g id="text_13">
     <text style="font-family:DejaVu Sans;font-size:10px;font-style:normal;font-weight:normal;text-anchor:start;" transform="rotate(-0, 319.748437, 47.0175)" x="319.748437" y="47.0175">DNase classifier</text>
    </g>
    <g id="line2d_40">
     <path d="M 291.748437 58.195625 
L 311.748437 58.195625 
" style="fill:none;stroke:#ff7f0e;stroke-linecap:square;stroke-width:1.5;"/>
    </g>
    <g id="line2d_41"/>
    <g id="text_14">
     <text style="font-family:DejaVu Sans;font-size:10px;font-style:normal;font-weight:normal;text-anchor:start;" transform="rotate(-0, 319.748437, 61.695625)" x="319.748437" y="61.695625">DNase regression</text>
    </g>
    <g id="line2d_42">
     <path d="M 291.748437 72.87375 
L 311.748437 72.87375 
" style="fill:none;stroke:#2ca02c;stroke-linecap:square;stroke-width:1.5;"/>
    </g>
    <g id="line2d_43"/>
    <g id="text_15">
     <text style="font-family:DejaVu Sans;font-size:10px;font-style:normal;font-weight:normal;text-anchor:start;" transform="rotate(-0, 319.748437, 76.37375)" x="319.748437" y="76.37375">MPRA regression</text>
    </g>
    <g id="line2d_44">
     <path d="M 291.748437 87.551875 
L 311.748437 87.551875 
" style="fill:none;stroke:#d62728;stroke-linecap:square;stroke-width:1.5;"/>
    </g>
    <g id="line2d_45"/>
    <g id="text_16">
     <text style="font-family:DejaVu Sans;font-size:10px;font-style:normal;font-weight:normal;text-anchor:start;" transform="rotate(-0, 319.748437, 91.051875)" x="319.748437" y="91.051875">Majority Direction</text>
    </g>
   </g>
  </g>
 </g>
 <defs>
  <clipPath id="p15cc8028a4">
   <rect height="216.424688" width="363.95625" x="53.74375" y="30.419062"/>
  </clipPath>
 </defs>
</svg>
