<?xml version="1.0" encoding="utf-8" standalone="no"?>
<!DOCTYPE svg PUBLIC "-//W3C//DTD SVG 1.1//EN"
  "http://www.w3.org/Graphics/SVG/1.1/DTD/svg11.dtd">
<!-- Created with matplotlib (https://matplotlib.org/) -->
<svg height="576pt" version="1.1" viewBox="0 0 576 576" width="576pt" xmlns="http://www.w3.org/2000/svg" xmlns:xlink="http://www.w3.org/1999/xlink">
 <defs>
  <style type="text/css">
*{stroke-linecap:butt;stroke-linejoin:round;}
  </style>
 </defs>
 <g id="figure_1">
  <g id="patch_1">
   <path d="M 0 576 
L 576 576 
L 576 0 
L 0 0 
z
" style="fill:#ffffff;"/>
  </g>
  <g id="axes_1">
   <g id="patch_2">
    <path d="M 57.418125 526.12625 
L 561.7 526.12625 
L 561.7 14.3 
L 57.418125 14.3 
z
" style="fill:#ffffff;"/>
   </g>
   <g id="PolyCollection_1">
    <defs>
     <path d="M 85.669942 -172.697021 
L 85.197627 -172.697021 
L 85.202304 -175.064095 
L 85.215785 -177.43117 
L 85.23653 -179.798245 
L 85.262295 -182.165319 
L 85.290528 -184.532394 
L 85.318773 -186.899469 
L 85.344999 -189.266544 
L 85.367784 -191.633618 
L 85.386346 -194.000693 
L 85.400446 -196.367768 
L 85.410206 -198.734842 
L 85.415907 -201.101917 
L 85.417799 -203.468992 
L 85.41598 -205.836067 
L 85.41035 -208.203141 
L 85.400653 -210.570216 
L 85.386592 -212.937291 
L 85.368004 -215.304365 
L 85.345055 -217.67144 
L 85.318398 -220.038515 
L 85.28924 -222.40559 
L 85.259273 -224.772664 
L 85.230441 -227.139739 
L 85.204564 -229.506814 
L 85.182914 -231.873888 
L 85.165822 -234.240963 
L 85.152477 -236.608038 
L 85.140993 -238.975113 
L 85.128777 -241.342187 
L 85.113147 -243.709262 
L 85.092063 -246.076337 
L 85.06475 -248.443411 
L 85.032045 -250.810486 
L 84.996298 -253.177561 
L 84.960805 -255.544636 
L 84.928861 -257.91171 
L 84.902647 -260.278785 
L 84.882216 -262.64586 
L 84.864863 -265.012934 
L 84.845062 -267.380009 
L 84.81503 -269.747084 
L 84.765835 -272.114159 
L 84.688825 -274.481233 
L 84.577088 -276.848308 
L 84.426623 -279.215383 
L 84.236955 -281.582458 
L 84.011057 -283.949532 
L 83.754543 -286.316607 
L 83.474313 -288.683682 
L 83.176952 -291.050756 
L 82.867272 -293.417831 
L 82.547427 -295.784906 
L 82.216841 -298.151981 
L 81.873018 -300.519055 
L 81.512982 -302.88613 
L 81.134877 -305.253205 
L 80.739149 -307.620279 
L 80.328827 -309.987354 
L 79.9087 -312.354429 
L 79.483529 -314.721504 
L 79.055828 -317.088578 
L 78.623911 -319.455653 
L 78.18092 -321.822728 
L 77.715333 -324.189802 
L 77.213052 -326.556877 
L 76.660802 -328.923952 
L 76.050199 -331.291027 
L 75.381649 -333.658101 
L 74.667225 -336.025176 
L 73.931825 -338.392251 
L 73.212208 -340.759325 
L 72.553899 -343.1264 
L 72.006357 -345.493475 
L 71.617133 -347.86055 
L 71.425955 -350.227624 
L 71.459702 -352.594699 
L 71.729046 -354.961774 
L 72.227238 -357.328848 
L 72.931115 -359.695923 
L 73.804024 -362.062998 
L 74.800122 -364.430073 
L 75.869336 -366.797147 
L 76.96229 -369.164222 
L 78.034609 -371.531297 
L 79.050148 -373.898371 
L 79.982881 -376.265446 
L 80.81737 -378.632521 
L 81.547929 -380.999596 
L 82.176787 -383.36667 
L 82.711653 -385.733745 
L 83.163203 -388.10082 
L 83.542917 -390.467894 
L 83.86158 -392.834969 
L 84.128534 -395.202044 
L 84.351587 -397.569119 
L 84.537321 -399.936193 
L 84.691507 -402.303268 
L 84.819412 -404.670343 
L 84.925884 -407.037417 
L 85.941686 -407.037417 
L 85.941686 -407.037417 
L 86.048157 -404.670343 
L 86.176062 -402.303268 
L 86.330249 -399.936193 
L 86.515982 -397.569119 
L 86.739036 -395.202044 
L 87.00599 -392.834969 
L 87.324652 -390.467894 
L 87.704366 -388.10082 
L 88.155916 -385.733745 
L 88.690782 -383.36667 
L 89.31964 -380.999596 
L 90.0502 -378.632521 
L 90.884688 -376.265446 
L 91.817421 -373.898371 
L 92.832961 -371.531297 
L 93.90528 -369.164222 
L 94.998233 -366.797147 
L 96.067447 -364.430073 
L 97.063546 -362.062998 
L 97.936455 -359.695923 
L 98.640331 -357.328848 
L 99.138524 -354.961774 
L 99.407868 -352.594699 
L 99.441615 -350.227624 
L 99.250437 -347.86055 
L 98.861212 -345.493475 
L 98.31367 -343.1264 
L 97.655362 -340.759325 
L 96.935745 -338.392251 
L 96.200345 -336.025176 
L 95.485921 -333.658101 
L 94.81737 -331.291027 
L 94.206767 -328.923952 
L 93.654517 -326.556877 
L 93.152236 -324.189802 
L 92.686649 -321.822728 
L 92.243659 -319.455653 
L 91.811741 -317.088578 
L 91.384041 -314.721504 
L 90.95887 -312.354429 
L 90.538742 -309.987354 
L 90.128421 -307.620279 
L 89.732692 -305.253205 
L 89.354587 -302.88613 
L 88.994552 -300.519055 
L 88.650729 -298.151981 
L 88.320142 -295.784906 
L 88.000297 -293.417831 
L 87.690618 -291.050756 
L 87.393256 -288.683682 
L 87.113027 -286.316607 
L 86.856512 -283.949532 
L 86.630614 -281.582458 
L 86.440947 -279.215383 
L 86.290481 -276.848308 
L 86.178745 -274.481233 
L 86.101735 -272.114159 
L 86.052539 -269.747084 
L 86.022507 -267.380009 
L 86.002707 -265.012934 
L 85.985354 -262.64586 
L 85.964923 -260.278785 
L 85.938708 -257.91171 
L 85.906764 -255.544636 
L 85.871271 -253.177561 
L 85.835524 -250.810486 
L 85.80282 -248.443411 
L 85.775507 -246.076337 
L 85.754422 -243.709262 
L 85.738793 -241.342187 
L 85.726576 -238.975113 
L 85.715092 -236.608038 
L 85.701748 -234.240963 
L 85.684655 -231.873888 
L 85.663005 -229.506814 
L 85.637129 -227.139739 
L 85.608296 -224.772664 
L 85.578329 -222.40559 
L 85.549171 -220.038515 
L 85.522514 -217.67144 
L 85.499565 -215.304365 
L 85.480978 -212.937291 
L 85.466916 -210.570216 
L 85.457219 -208.203141 
L 85.45159 -205.836067 
L 85.449771 -203.468992 
L 85.451662 -201.101917 
L 85.457363 -198.734842 
L 85.467124 -196.367768 
L 85.481224 -194.000693 
L 85.499785 -191.633618 
L 85.52257 -189.266544 
L 85.548797 -186.899469 
L 85.577042 -184.532394 
L 85.605274 -182.165319 
L 85.631039 -179.798245 
L 85.651784 -177.43117 
L 85.665266 -175.064095 
L 85.669942 -172.697021 
z
" id="m3917a14714" style="stroke:#000000;"/>
    </defs>
    <g clip-path="url(#pfa5df21e29)">
     <use style="fill:#1f77b4;stroke:#000000;" x="0" xlink:href="#m3917a14714" y="576"/>
    </g>
   </g>
   <g id="PolyCollection_2">
    <defs>
     <path d="M 141.779335 -189.408033 
L 141.150873 -189.408033 
L 141.132197 -191.411141 
L 141.119093 -193.41425 
L 141.111955 -195.417358 
L 141.110765 -197.420467 
L 141.11509 -199.423575 
L 141.124102 -201.426684 
L 141.136649 -203.429793 
L 141.151358 -205.432901 
L 141.166774 -207.43601 
L 141.181525 -209.439118 
L 141.194487 -211.442227 
L 141.204924 -213.445335 
L 141.212582 -215.448444 
L 141.217715 -217.451552 
L 141.22102 -219.454661 
L 141.223504 -221.45777 
L 141.22629 -223.460878 
L 141.230396 -225.463987 
L 141.236533 -227.467095 
L 141.244951 -229.470204 
L 141.255357 -231.473312 
L 141.266926 -233.476421 
L 141.278393 -235.479529 
L 141.288205 -237.482638 
L 141.294705 -239.485747 
L 141.296317 -241.488855 
L 141.291707 -243.491964 
L 141.279885 -245.495072 
L 141.260267 -247.498181 
L 141.23267 -249.501289 
L 141.197277 -251.504398 
L 141.154576 -253.507507 
L 141.105295 -255.510615 
L 141.050344 -257.513724 
L 140.990776 -259.516832 
L 140.927749 -261.519941 
L 140.862485 -263.523049 
L 140.796209 -265.526158 
L 140.730064 -267.529266 
L 140.665005 -269.532375 
L 140.601686 -271.535484 
L 140.540382 -273.538592 
L 140.480967 -275.541701 
L 140.422976 -277.544809 
L 140.365753 -279.547918 
L 140.308651 -281.551026 
L 140.251237 -283.554135 
L 140.193433 -285.557243 
L 140.135532 -287.560352 
L 140.078057 -289.563461 
L 140.021453 -291.566569 
L 139.965661 -293.569678 
L 139.909647 -295.572786 
L 139.850964 -297.575895 
L 139.785442 -299.579003 
L 139.707058 -301.582112 
L 139.608008 -303.58522 
L 139.478994 -305.588329 
L 139.309669 -307.591438 
L 139.089231 -309.594546 
L 138.807104 -311.597655 
L 138.453696 -313.600763 
L 138.02119 -315.603872 
L 137.504352 -317.60698 
L 136.901296 -319.610089 
L 136.214154 -321.613197 
L 135.449556 -323.616306 
L 134.618861 -325.619415 
L 133.738062 -327.622523 
L 132.827363 -329.625632 
L 131.910435 -331.62874 
L 131.013424 -333.631849 
L 130.163801 -335.634957 
L 129.389126 -337.638066 
L 128.715809 -339.641175 
L 128.167888 -341.644283 
L 127.765863 -343.647392 
L 127.525588 -345.6505 
L 127.457274 -347.653609 
L 127.564679 -349.656717 
L 127.84459 -351.659826 
L 128.286727 -353.662934 
L 128.874168 -355.666043 
L 129.584324 -357.669152 
L 130.390431 -359.67226 
L 131.26341 -361.675369 
L 132.173877 -363.678477 
L 133.094077 -365.681586 
L 133.999494 -367.684694 
L 134.86997 -369.687803 
L 135.690273 -371.690911 
L 136.450108 -373.69402 
L 137.143682 -375.697129 
L 137.768965 -377.700237 
L 138.326817 -379.703346 
L 138.820102 -381.706454 
L 139.252924 -383.709563 
L 139.630006 -385.712671 
L 139.956258 -387.71578 
L 142.97395 -387.71578 
L 142.97395 -387.71578 
L 143.300203 -385.712671 
L 143.677284 -383.709563 
L 144.110106 -381.706454 
L 144.603392 -379.703346 
L 145.161243 -377.700237 
L 145.786527 -375.697129 
L 146.4801 -373.69402 
L 147.239935 -371.690911 
L 148.060239 -369.687803 
L 148.930715 -367.684694 
L 149.836131 -365.681586 
L 150.756332 -363.678477 
L 151.666799 -361.675369 
L 152.539777 -359.67226 
L 153.345885 -357.669152 
L 154.056041 -355.666043 
L 154.643481 -353.662934 
L 155.085619 -351.659826 
L 155.365529 -349.656717 
L 155.472934 -347.653609 
L 155.40462 -345.6505 
L 155.164345 -343.647392 
L 154.76232 -341.644283 
L 154.2144 -339.641175 
L 153.541082 -337.638066 
L 152.766408 -335.634957 
L 151.916784 -333.631849 
L 151.019774 -331.62874 
L 150.102845 -329.625632 
L 149.192147 -327.622523 
L 148.311348 -325.619415 
L 147.480652 -323.616306 
L 146.716054 -321.613197 
L 146.028912 -319.610089 
L 145.425857 -317.60698 
L 144.909019 -315.603872 
L 144.476512 -313.600763 
L 144.123104 -311.597655 
L 143.840977 -309.594546 
L 143.620539 -307.591438 
L 143.451214 -305.588329 
L 143.3222 -303.58522 
L 143.223151 -301.582112 
L 143.144766 -299.579003 
L 143.079245 -297.575895 
L 143.020562 -295.572786 
L 142.964547 -293.569678 
L 142.908755 -291.566569 
L 142.852151 -289.563461 
L 142.794676 -287.560352 
L 142.736775 -285.557243 
L 142.678971 -283.554135 
L 142.621557 -281.551026 
L 142.564455 -279.547918 
L 142.507232 -277.544809 
L 142.449241 -275.541701 
L 142.389826 -273.538592 
L 142.328522 -271.535484 
L 142.265203 -269.532375 
L 142.200144 -267.529266 
L 142.133999 -265.526158 
L 142.067723 -263.523049 
L 142.002459 -261.519941 
L 141.939432 -259.516832 
L 141.879865 -257.513724 
L 141.824914 -255.510615 
L 141.775632 -253.507507 
L 141.732931 -251.504398 
L 141.697538 -249.501289 
L 141.669942 -247.498181 
L 141.650324 -245.495072 
L 141.638502 -243.491964 
L 141.633891 -241.488855 
L 141.635503 -239.485747 
L 141.642003 -237.482638 
L 141.651815 -235.479529 
L 141.663283 -233.476421 
L 141.674852 -231.473312 
L 141.685257 -229.470204 
L 141.693675 -227.467095 
L 141.699812 -225.463987 
L 141.703919 -223.460878 
L 141.706704 -221.45777 
L 141.709188 -219.454661 
L 141.712493 -217.451552 
L 141.717626 -215.448444 
L 141.725285 -213.445335 
L 141.735721 -211.442227 
L 141.748683 -209.439118 
L 141.763434 -207.43601 
L 141.77885 -205.432901 
L 141.793559 -203.429793 
L 141.806106 -201.426684 
L 141.815119 -199.423575 
L 141.819443 -197.420467 
L 141.818254 -195.417358 
L 141.811115 -193.41425 
L 141.798011 -191.411141 
L 141.779335 -189.408033 
z
" id="m421fb890d2" style="stroke:#000000;"/>
    </defs>
    <g clip-path="url(#pfa5df21e29)">
     <use style="fill:#ff7f0e;stroke:#000000;" x="0" xlink:href="#m421fb890d2" y="576"/>
    </g>
   </g>
   <g id="PolyCollection_3">
    <defs>
     <path d="M 197.772645 -206.990756 
L 197.220202 -206.990756 
L 197.224326 -209.043509 
L 197.236332 -211.096262 
L 197.255176 -213.149015 
L 197.279283 -215.201768 
L 197.306767 -217.25452 
L 197.335665 -219.307273 
L 197.364163 -221.360026 
L 197.390763 -223.412779 
L 197.414372 -225.465532 
L 197.434323 -227.518285 
L 197.450308 -229.571037 
L 197.462283 -231.62379 
L 197.470321 -233.676543 
L 197.47448 -235.729296 
L 197.474666 -237.782049 
L 197.470534 -239.834802 
L 197.461409 -241.887554 
L 197.446264 -243.940307 
L 197.42373 -245.99306 
L 197.392163 -248.045813 
L 197.349751 -250.098566 
L 197.294658 -252.151319 
L 197.225179 -254.204071 
L 197.139887 -256.256824 
L 197.037741 -258.309577 
L 196.918124 -260.36233 
L 196.780821 -262.415083 
L 196.625924 -264.467836 
L 196.453724 -266.520588 
L 196.264622 -268.573341 
L 196.059116 -270.626094 
L 195.837894 -272.678847 
L 195.602035 -274.7316 
L 195.353258 -276.784353 
L 195.094138 -278.837105 
L 194.828171 -280.889858 
L 194.559606 -282.942611 
L 194.292984 -284.995364 
L 194.03242 -287.048117 
L 193.780744 -289.10087 
L 193.538679 -291.153622 
L 193.304251 -293.206375 
L 193.072611 -295.259128 
L 192.836353 -297.311881 
L 192.58632 -299.364634 
L 192.31276 -301.417387 
L 192.006628 -303.470139 
L 191.660798 -305.522892 
L 191.270972 -307.575645 
L 190.836138 -309.628398 
L 190.35855 -311.681151 
L 189.843262 -313.733903 
L 189.297366 -315.786656 
L 188.729099 -317.839409 
L 188.147023 -319.892162 
L 187.559444 -321.944915 
L 186.974207 -323.997668 
L 186.39892 -326.05042 
L 185.841568 -328.103173 
L 185.311361 -330.155926 
L 184.819582 -332.208679 
L 184.38012 -334.261432 
L 184.009407 -336.314185 
L 183.725552 -338.366937 
L 183.546674 -340.41969 
L 183.488594 -342.472443 
L 183.562308 -344.525196 
L 183.771748 -346.577949 
L 184.112331 -348.630702 
L 184.57069 -350.683454 
L 185.12572 -352.736207 
L 185.750787 -354.78896 
L 186.416719 -356.841713 
L 187.095036 -358.894466 
L 187.760853 -360.947219 
L 188.395018 -362.999971 
L 188.985233 -365.052724 
L 189.526122 -367.105477 
L 190.018416 -369.15823 
L 190.467535 -371.210983 
L 190.881882 -373.263736 
L 191.271145 -375.316488 
L 191.644817 -377.369241 
L 192.011046 -379.421994 
L 192.375882 -381.474747 
L 192.742883 -383.5275 
L 193.113076 -385.580253 
L 193.48518 -387.633005 
L 193.856055 -389.685758 
L 194.221292 -391.738511 
L 194.575866 -393.791264 
L 194.914783 -395.844017 
L 195.233639 -397.89677 
L 195.529031 -399.949522 
L 195.798791 -402.002275 
L 196.042025 -404.055028 
L 196.258989 -406.107781 
L 196.450847 -408.160534 
L 196.619364 -410.213286 
L 198.373483 -410.213286 
L 198.373483 -410.213286 
L 198.542 -408.160534 
L 198.733858 -406.107781 
L 198.950823 -404.055028 
L 199.194056 -402.002275 
L 199.463816 -399.949522 
L 199.759208 -397.89677 
L 200.078064 -395.844017 
L 200.416981 -393.791264 
L 200.771555 -391.738511 
L 201.136792 -389.685758 
L 201.507667 -387.633005 
L 201.879771 -385.580253 
L 202.249964 -383.5275 
L 202.616966 -381.474747 
L 202.981801 -379.421994 
L 203.348031 -377.369241 
L 203.721702 -375.316488 
L 204.110966 -373.263736 
L 204.525312 -371.210983 
L 204.974431 -369.15823 
L 205.466725 -367.105477 
L 206.007614 -365.052724 
L 206.597829 -362.999971 
L 207.231995 -360.947219 
L 207.897811 -358.894466 
L 208.576128 -356.841713 
L 209.242061 -354.78896 
L 209.867127 -352.736207 
L 210.422157 -350.683454 
L 210.880516 -348.630702 
L 211.221099 -346.577949 
L 211.430539 -344.525196 
L 211.504253 -342.472443 
L 211.446173 -340.41969 
L 211.267295 -338.366937 
L 210.983441 -336.314185 
L 210.612727 -334.261432 
L 210.173265 -332.208679 
L 209.681486 -330.155926 
L 209.151279 -328.103173 
L 208.593927 -326.05042 
L 208.01864 -323.997668 
L 207.433403 -321.944915 
L 206.845824 -319.892162 
L 206.263748 -317.839409 
L 205.695482 -315.786656 
L 205.149585 -313.733903 
L 204.634297 -311.681151 
L 204.156709 -309.628398 
L 203.721875 -307.575645 
L 203.332049 -305.522892 
L 202.986219 -303.470139 
L 202.680087 -301.417387 
L 202.406527 -299.364634 
L 202.156495 -297.311881 
L 201.920237 -295.259128 
L 201.688596 -293.206375 
L 201.454168 -291.153622 
L 201.212103 -289.10087 
L 200.960427 -287.048117 
L 200.699863 -284.995364 
L 200.433241 -282.942611 
L 200.164676 -280.889858 
L 199.898709 -278.837105 
L 199.639589 -276.784353 
L 199.390812 -274.7316 
L 199.154953 -272.678847 
L 198.933731 -270.626094 
L 198.728225 -268.573341 
L 198.539123 -266.520588 
L 198.366923 -264.467836 
L 198.212026 -262.415083 
L 198.074723 -260.36233 
L 197.955106 -258.309577 
L 197.85296 -256.256824 
L 197.767668 -254.204071 
L 197.698189 -252.151319 
L 197.643096 -250.098566 
L 197.600684 -248.045813 
L 197.569118 -245.99306 
L 197.546584 -243.940307 
L 197.531438 -241.887554 
L 197.522314 -239.834802 
L 197.518181 -237.782049 
L 197.518367 -235.729296 
L 197.522526 -233.676543 
L 197.530564 -231.62379 
L 197.542539 -229.571037 
L 197.558525 -227.518285 
L 197.578475 -225.465532 
L 197.602085 -223.412779 
L 197.628684 -221.360026 
L 197.657182 -219.307273 
L 197.68608 -217.25452 
L 197.713564 -215.201768 
L 197.737671 -213.149015 
L 197.756515 -211.096262 
L 197.768522 -209.043509 
L 197.772645 -206.990756 
z
" id="m19de667a97" style="stroke:#000000;"/>
    </defs>
    <g clip-path="url(#pfa5df21e29)">
     <use style="fill:#2ca02c;stroke:#000000;" x="0" xlink:href="#m19de667a97" y="576"/>
    </g>
   </g>
   <g id="PolyCollection_4">
    <defs>
     <path d="M 253.560046 -114.207027 
L 253.49544 -114.207027 
L 253.50074 -118.492159 
L 253.51197 -122.777292 
L 253.521305 -127.062425 
L 253.525907 -131.347558 
L 253.527377 -135.63269 
L 253.527692 -139.917823 
L 253.527738 -144.202956 
L 253.527743 -148.488089 
L 253.527743 -152.773221 
L 253.527739 -157.058354 
L 253.527698 -161.343487 
L 253.527371 -165.62862 
L 253.525617 -169.913753 
L 253.519249 -174.198885 
L 253.504026 -178.484018 
L 253.48147 -182.769151 
L 253.464658 -187.054284 
L 253.467642 -191.339416 
L 253.487704 -195.624549 
L 253.508874 -199.909682 
L 253.520296 -204.194815 
L 253.521117 -208.479947 
L 253.513671 -212.76508 
L 253.501633 -217.050213 
L 253.490592 -221.335346 
L 253.480552 -225.620478 
L 253.460953 -229.905611 
L 253.425063 -234.190744 
L 253.385132 -238.475877 
L 253.359632 -242.76101 
L 253.351936 -247.046142 
L 253.353247 -251.331275 
L 253.355615 -255.616408 
L 253.352923 -259.901541 
L 253.340605 -264.186673 
L 253.317173 -268.471806 
L 253.277118 -272.756939 
L 253.204671 -277.042072 
L 253.079811 -281.327204 
L 252.89446 -285.612337 
L 252.661979 -289.89747 
L 252.403923 -294.182603 
L 252.13853 -298.467736 
L 251.874622 -302.752868 
L 251.564042 -307.038001 
L 251.078848 -311.323134 
L 250.332592 -315.608267 
L 249.39548 -319.893399 
L 248.358775 -324.178532 
L 247.116513 -328.463665 
L 245.455137 -332.748798 
L 243.413013 -337.03393 
L 241.449295 -341.319063 
L 240.128623 -345.604196 
L 239.596013 -349.889329 
L 239.519913 -354.174461 
L 239.672824 -358.459594 
L 240.280798 -362.744727 
L 241.583643 -367.02986 
L 243.380219 -371.314993 
L 245.216753 -375.600125 
L 246.779069 -379.885258 
L 247.992209 -384.170391 
L 248.9165 -388.455524 
L 249.641716 -392.740656 
L 250.24689 -397.025789 
L 250.809826 -401.310922 
L 251.363499 -405.596055 
L 251.844463 -409.881187 
L 252.182912 -414.16632 
L 252.41508 -418.451453 
L 252.631896 -422.736586 
L 252.869487 -427.021719 
L 253.097269 -431.306851 
L 253.267356 -435.591984 
L 253.353778 -439.877117 
L 253.369751 -444.16225 
L 253.354305 -448.447382 
L 253.341406 -452.732515 
L 253.347513 -457.017648 
L 253.373828 -461.302781 
L 253.406783 -465.587913 
L 253.430372 -469.873046 
L 253.444524 -474.158179 
L 253.458778 -478.443312 
L 253.473342 -482.728444 
L 253.483063 -487.013577 
L 253.4908 -491.29871 
L 253.501679 -495.583843 
L 253.512831 -499.868976 
L 253.517432 -504.154108 
L 253.512647 -508.439241 
L 253.502297 -512.724374 
L 253.495233 -517.009507 
L 253.497254 -521.294639 
L 253.503444 -525.579772 
L 253.50419 -529.864905 
L 253.498372 -534.150038 
L 253.494936 -538.43517 
L 253.56055 -538.43517 
L 253.56055 -538.43517 
L 253.557114 -534.150038 
L 253.551296 -529.864905 
L 253.552042 -525.579772 
L 253.558232 -521.294639 
L 253.560253 -517.009507 
L 253.553189 -512.724374 
L 253.542839 -508.439241 
L 253.538054 -504.154108 
L 253.542655 -499.868976 
L 253.553807 -495.583843 
L 253.564686 -491.29871 
L 253.572423 -487.013577 
L 253.582145 -482.728444 
L 253.596708 -478.443312 
L 253.610962 -474.158179 
L 253.625114 -469.873046 
L 253.648703 -465.587913 
L 253.681658 -461.302781 
L 253.707973 -457.017648 
L 253.71408 -452.732515 
L 253.701181 -448.447382 
L 253.685735 -444.16225 
L 253.701708 -439.877117 
L 253.78813 -435.591984 
L 253.958217 -431.306851 
L 254.185999 -427.021719 
L 254.42359 -422.736586 
L 254.640406 -418.451453 
L 254.872574 -414.16632 
L 255.211024 -409.881187 
L 255.691987 -405.596055 
L 256.24566 -401.310922 
L 256.808597 -397.025789 
L 257.41377 -392.740656 
L 258.138986 -388.455524 
L 259.063277 -384.170391 
L 260.276417 -379.885258 
L 261.838734 -375.600125 
L 263.675267 -371.314993 
L 265.471844 -367.02986 
L 266.774688 -362.744727 
L 267.382662 -358.459594 
L 267.535573 -354.174461 
L 267.459473 -349.889329 
L 266.926863 -345.604196 
L 265.606191 -341.319063 
L 263.642473 -337.03393 
L 261.600349 -332.748798 
L 259.938973 -328.463665 
L 258.696711 -324.178532 
L 257.660006 -319.893399 
L 256.722894 -315.608267 
L 255.976638 -311.323134 
L 255.491444 -307.038001 
L 255.180864 -302.752868 
L 254.916956 -298.467736 
L 254.651563 -294.182603 
L 254.393507 -289.89747 
L 254.161026 -285.612337 
L 253.975675 -281.327204 
L 253.850815 -277.042072 
L 253.778368 -272.756939 
L 253.738313 -268.471806 
L 253.714881 -264.186673 
L 253.702563 -259.901541 
L 253.699871 -255.616408 
L 253.702239 -251.331275 
L 253.70355 -247.046142 
L 253.695854 -242.76101 
L 253.670354 -238.475877 
L 253.630423 -234.190744 
L 253.594533 -229.905611 
L 253.574934 -225.620478 
L 253.564894 -221.335346 
L 253.553853 -217.050213 
L 253.541815 -212.76508 
L 253.534369 -208.479947 
L 253.53519 -204.194815 
L 253.546612 -199.909682 
L 253.567783 -195.624549 
L 253.587844 -191.339416 
L 253.590828 -187.054284 
L 253.574016 -182.769151 
L 253.55146 -178.484018 
L 253.536237 -174.198885 
L 253.529869 -169.913753 
L 253.528115 -165.62862 
L 253.527788 -161.343487 
L 253.527747 -157.058354 
L 253.527743 -152.773221 
L 253.527743 -148.488089 
L 253.527748 -144.202956 
L 253.527794 -139.917823 
L 253.528109 -135.63269 
L 253.529579 -131.347558 
L 253.534181 -127.062425 
L 253.543516 -122.777292 
L 253.554746 -118.492159 
L 253.560046 -114.207027 
z
" id="m35dffe6e92" style="stroke:#000000;"/>
    </defs>
    <g clip-path="url(#pfa5df21e29)">
     <use style="fill:#1f77b4;stroke:#000000;" x="0" xlink:href="#m35dffe6e92" y="576"/>
    </g>
   </g>
   <g id="PolyCollection_5">
    <defs>
     <path d="M 309.622203 -73.13858 
L 309.495922 -73.13858 
L 309.505306 -77.684801 
L 309.528453 -82.231023 
L 309.547406 -86.777244 
L 309.556094 -91.323466 
L 309.558557 -95.869688 
L 309.559005 -100.415909 
L 309.559058 -104.962131 
L 309.559062 -109.508352 
L 309.559062 -114.054574 
L 309.559062 -118.600796 
L 309.559062 -123.147017 
L 309.559062 -127.693239 
L 309.559062 -132.23946 
L 309.559062 -136.785682 
L 309.559062 -141.331904 
L 309.559062 -145.878125 
L 309.559062 -150.424347 
L 309.559062 -154.970568 
L 309.559062 -159.51679 
L 309.559062 -164.063011 
L 309.559062 -168.609233 
L 309.559062 -173.155455 
L 309.559047 -177.701676 
L 309.558896 -182.247898 
L 309.557854 -186.794119 
L 309.553032 -191.340341 
L 309.538294 -195.886563 
L 309.509216 -200.432784 
L 309.474428 -204.979006 
L 309.454846 -209.525227 
L 309.462424 -214.071449 
L 309.48874 -218.617671 
L 309.517745 -223.163892 
L 309.537464 -227.710114 
L 309.542275 -232.256335 
L 309.534761 -236.802557 
L 309.52479 -241.348779 
L 309.519199 -245.895 
L 309.511956 -250.441222 
L 309.493032 -254.987443 
L 309.46338 -259.533665 
L 309.431387 -264.079887 
L 309.393825 -268.626108 
L 309.327129 -273.17233 
L 309.210363 -277.718551 
L 309.046286 -282.264773 
L 308.847438 -286.810995 
L 308.615383 -291.357216 
L 308.319455 -295.903438 
L 307.912554 -300.449659 
L 307.413217 -304.995881 
L 306.90373 -309.542103 
L 306.384013 -314.088324 
L 305.705315 -318.634546 
L 304.705266 -323.180767 
L 303.341049 -327.726989 
L 301.670346 -332.273211 
L 299.797625 -336.819432 
L 297.912867 -341.365654 
L 296.363317 -345.911875 
L 295.551233 -350.458097 
L 295.625445 -355.004319 
L 296.34968 -359.55054 
L 297.399511 -364.096762 
L 298.654757 -368.642983 
L 300.106253 -373.189205 
L 301.65164 -377.735427 
L 303.08653 -382.281648 
L 304.290965 -386.82787 
L 305.337087 -391.374091 
L 306.317372 -395.920313 
L 307.185278 -400.466535 
L 307.838575 -405.012756 
L 308.259263 -409.558978 
L 308.534844 -414.105199 
L 308.766768 -418.651421 
L 308.980579 -423.197643 
L 309.141382 -427.743864 
L 309.227683 -432.290086 
L 309.25873 -436.836307 
L 309.272395 -441.382529 
L 309.296377 -445.928751 
L 309.329847 -450.474972 
L 309.358665 -455.021194 
L 309.381856 -459.567415 
L 309.40653 -464.113637 
L 309.432556 -468.659859 
L 309.453353 -473.20608 
L 309.468423 -477.752302 
L 309.487911 -482.298523 
L 309.515369 -486.844745 
L 309.539972 -491.390967 
L 309.55334 -495.937188 
L 309.557713 -500.48341 
L 309.557656 -505.029631 
L 309.5539 -509.575853 
L 309.544929 -514.122075 
L 309.533161 -518.668296 
L 309.527365 -523.214518 
L 309.59076 -523.214518 
L 309.59076 -523.214518 
L 309.584964 -518.668296 
L 309.573196 -514.122075 
L 309.564225 -509.575853 
L 309.560469 -505.029631 
L 309.560412 -500.48341 
L 309.564785 -495.937188 
L 309.578153 -491.390967 
L 309.602756 -486.844745 
L 309.630214 -482.298523 
L 309.649702 -477.752302 
L 309.664772 -473.20608 
L 309.685569 -468.659859 
L 309.711595 -464.113637 
L 309.736269 -459.567415 
L 309.75946 -455.021194 
L 309.788278 -450.474972 
L 309.821748 -445.928751 
L 309.84573 -441.382529 
L 309.859395 -436.836307 
L 309.890442 -432.290086 
L 309.976743 -427.743864 
L 310.137546 -423.197643 
L 310.351357 -418.651421 
L 310.583281 -414.105199 
L 310.858862 -409.558978 
L 311.27955 -405.012756 
L 311.932847 -400.466535 
L 312.800753 -395.920313 
L 313.781038 -391.374091 
L 314.82716 -386.82787 
L 316.031595 -382.281648 
L 317.466485 -377.735427 
L 319.011872 -373.189205 
L 320.463368 -368.642983 
L 321.718614 -364.096762 
L 322.768445 -359.55054 
L 323.49268 -355.004319 
L 323.566892 -350.458097 
L 322.754808 -345.911875 
L 321.205258 -341.365654 
L 319.3205 -336.819432 
L 317.447779 -332.273211 
L 315.777076 -327.726989 
L 314.412859 -323.180767 
L 313.41281 -318.634546 
L 312.734112 -314.088324 
L 312.214395 -309.542103 
L 311.704908 -304.995881 
L 311.205571 -300.449659 
L 310.79867 -295.903438 
L 310.502742 -291.357216 
L 310.270687 -286.810995 
L 310.071839 -282.264773 
L 309.907762 -277.718551 
L 309.790996 -273.17233 
L 309.7243 -268.626108 
L 309.686738 -264.079887 
L 309.654745 -259.533665 
L 309.625093 -254.987443 
L 309.606169 -250.441222 
L 309.598926 -245.895 
L 309.593335 -241.348779 
L 309.583364 -236.802557 
L 309.57585 -232.256335 
L 309.580661 -227.710114 
L 309.60038 -223.163892 
L 309.629385 -218.617671 
L 309.655701 -214.071449 
L 309.663279 -209.525227 
L 309.643697 -204.979006 
L 309.608909 -200.432784 
L 309.579831 -195.886563 
L 309.565093 -191.340341 
L 309.560271 -186.794119 
L 309.559229 -182.247898 
L 309.559078 -177.701676 
L 309.559063 -173.155455 
L 309.559063 -168.609233 
L 309.559063 -164.063011 
L 309.559063 -159.51679 
L 309.559063 -154.970568 
L 309.559062 -150.424347 
L 309.559062 -145.878125 
L 309.559062 -141.331904 
L 309.559062 -136.785682 
L 309.559062 -132.23946 
L 309.559063 -127.693239 
L 309.559063 -123.147017 
L 309.559063 -118.600796 
L 309.559063 -114.054574 
L 309.559063 -109.508352 
L 309.559067 -104.962131 
L 309.55912 -100.415909 
L 309.559568 -95.869688 
L 309.562031 -91.323466 
L 309.570719 -86.777244 
L 309.589672 -82.231023 
L 309.612819 -77.684801 
L 309.622203 -73.13858 
z
" id="mb55f77bc78" style="stroke:#000000;"/>
    </defs>
    <g clip-path="url(#pfa5df21e29)">
     <use style="fill:#ff7f0e;stroke:#000000;" x="0" xlink:href="#mb55f77bc78" y="576"/>
    </g>
   </g>
   <g id="PolyCollection_6">
    <defs>
     <path d="M 365.62288 -207.597511 
L 365.557884 -207.597511 
L 365.560136 -210.353601 
L 365.56591 -213.10969 
L 365.572673 -215.86578 
L 365.577617 -218.62187 
L 365.578581 -221.377959 
L 365.574394 -224.134049 
L 365.565053 -226.890138 
L 365.552041 -229.646228 
L 365.538377 -232.402318 
L 365.527595 -235.158407 
L 365.521647 -237.914497 
L 365.519044 -240.670586 
L 365.514974 -243.426676 
L 365.503847 -246.182765 
L 365.482477 -248.938855 
L 365.451188 -251.694945 
L 365.411717 -254.451034 
L 365.364044 -257.207124 
L 365.305662 -259.963213 
L 365.234441 -262.719303 
L 365.152208 -265.475393 
L 365.065343 -268.231482 
L 364.98193 -270.987572 
L 364.907881 -273.743661 
L 364.843844 -276.499751 
L 364.783334 -279.25584 
L 364.713302 -282.01193 
L 364.618733 -284.76802 
L 364.489567 -287.524109 
L 364.32456 -290.280199 
L 364.12847 -293.036288 
L 363.905335 -295.792378 
L 363.654533 -298.548468 
L 363.373254 -301.304557 
L 363.062035 -304.060647 
L 362.726688 -306.816736 
L 362.374301 -309.572826 
L 362.00777 -312.328915 
L 361.623751 -315.085005 
L 361.21252 -317.841095 
L 360.755222 -320.597184 
L 360.220494 -323.353274 
L 359.569814 -326.109363 
L 358.775755 -328.865453 
L 357.842057 -331.621543 
L 356.807792 -334.377632 
L 355.731304 -337.133722 
L 354.669792 -339.889811 
L 353.67381 -342.645901 
L 352.798092 -345.401991 
L 352.11121 -348.15808 
L 351.687468 -350.91417 
L 351.582552 -353.670259 
L 351.809312 -356.426349 
L 352.329155 -359.182438 
L 353.063777 -361.938528 
L 353.922271 -364.694618 
L 354.832361 -367.450707 
L 355.760355 -370.206797 
L 356.70694 -372.962886 
L 357.679894 -375.718976 
L 358.663047 -378.475066 
L 359.605984 -381.231155 
L 360.442915 -383.987245 
L 361.125813 -386.743334 
L 361.647952 -389.499424 
L 362.04432 -392.255513 
L 362.371397 -395.011603 
L 362.678561 -397.767693 
L 362.986577 -400.523782 
L 363.285447 -403.279872 
L 363.551913 -406.035961 
L 363.771902 -408.792051 
L 363.950149 -411.548141 
L 364.102815 -414.30423 
L 364.244207 -417.06032 
L 364.380107 -419.816409 
L 364.510074 -422.572499 
L 364.632926 -425.328589 
L 364.749488 -428.084678 
L 364.8612 -430.840768 
L 364.9672 -433.596857 
L 365.063603 -436.352947 
L 365.146416 -439.109036 
L 365.2155 -441.865126 
L 365.275366 -444.621216 
L 365.331523 -447.377305 
L 365.385778 -450.133395 
L 365.434968 -452.889484 
L 365.474065 -455.645574 
L 365.500412 -458.401664 
L 365.515454 -461.157753 
L 365.523283 -463.913843 
L 365.527987 -466.669932 
L 365.531937 -469.426022 
L 365.535765 -472.182111 
L 365.539455 -474.938201 
L 365.543419 -477.694291 
L 365.548624 -480.45038 
L 365.63214 -480.45038 
L 365.63214 -480.45038 
L 365.637345 -477.694291 
L 365.641309 -474.938201 
L 365.644998 -472.182111 
L 365.648826 -469.426022 
L 365.652777 -466.669932 
L 365.657481 -463.913843 
L 365.66531 -461.157753 
L 365.680351 -458.401664 
L 365.706699 -455.645574 
L 365.745796 -452.889484 
L 365.794986 -450.133395 
L 365.849241 -447.377305 
L 365.905398 -444.621216 
L 365.965264 -441.865126 
L 366.034348 -439.109036 
L 366.117161 -436.352947 
L 366.213564 -433.596857 
L 366.319564 -430.840768 
L 366.431276 -428.084678 
L 366.547838 -425.328589 
L 366.67069 -422.572499 
L 366.800657 -419.816409 
L 366.936557 -417.06032 
L 367.077949 -414.30423 
L 367.230614 -411.548141 
L 367.408862 -408.792051 
L 367.628851 -406.035961 
L 367.895317 -403.279872 
L 368.194187 -400.523782 
L 368.502203 -397.767693 
L 368.809367 -395.011603 
L 369.136443 -392.255513 
L 369.532812 -389.499424 
L 370.054951 -386.743334 
L 370.737849 -383.987245 
L 371.57478 -381.231155 
L 372.517717 -378.475066 
L 373.50087 -375.718976 
L 374.473824 -372.962886 
L 375.420409 -370.206797 
L 376.348403 -367.450707 
L 377.258493 -364.694618 
L 378.116987 -361.938528 
L 378.851609 -359.182438 
L 379.371452 -356.426349 
L 379.598212 -353.670259 
L 379.493296 -350.91417 
L 379.069554 -348.15808 
L 378.382672 -345.401991 
L 377.506954 -342.645901 
L 376.510972 -339.889811 
L 375.44946 -337.133722 
L 374.372972 -334.377632 
L 373.338707 -331.621543 
L 372.405009 -328.865453 
L 371.61095 -326.109363 
L 370.96027 -323.353274 
L 370.425541 -320.597184 
L 369.968243 -317.841095 
L 369.557013 -315.085005 
L 369.172994 -312.328915 
L 368.806463 -309.572826 
L 368.454076 -306.816736 
L 368.118729 -304.060647 
L 367.80751 -301.304557 
L 367.526231 -298.548468 
L 367.275429 -295.792378 
L 367.052294 -293.036288 
L 366.856204 -290.280199 
L 366.691197 -287.524109 
L 366.562031 -284.76802 
L 366.467462 -282.01193 
L 366.39743 -279.25584 
L 366.33692 -276.499751 
L 366.272883 -273.743661 
L 366.198834 -270.987572 
L 366.115421 -268.231482 
L 366.028555 -265.475393 
L 365.946323 -262.719303 
L 365.875102 -259.963213 
L 365.81672 -257.207124 
L 365.769047 -254.451034 
L 365.729576 -251.694945 
L 365.698287 -248.938855 
L 365.676917 -246.182765 
L 365.66579 -243.426676 
L 365.66172 -240.670586 
L 365.659117 -237.914497 
L 365.653169 -235.158407 
L 365.642387 -232.402318 
L 365.628722 -229.646228 
L 365.615711 -226.890138 
L 365.60637 -224.134049 
L 365.602183 -221.377959 
L 365.603147 -218.62187 
L 365.608091 -215.86578 
L 365.614854 -213.10969 
L 365.620628 -210.353601 
L 365.62288 -207.597511 
z
" id="m14e56ef249" style="stroke:#000000;"/>
    </defs>
    <g clip-path="url(#pfa5df21e29)">
     <use style="fill:#2ca02c;stroke:#000000;" x="0" xlink:href="#m14e56ef249" y="576"/>
    </g>
   </g>
   <g id="PolyCollection_7">
    <defs>
     <path d="M 424.041388 -323.587539 
L 419.202014 -323.587539 
L 418.712162 -325.432767 
L 418.156585 -327.277995 
L 417.536194 -329.123222 
L 416.854962 -330.96845 
L 416.120134 -332.813678 
L 415.342119 -334.658905 
L 414.534047 -336.504133 
L 413.711038 -338.349361 
L 412.889276 -340.194588 
L 412.08503 -342.039816 
L 411.313767 -343.885044 
L 410.589487 -345.730271 
L 409.924353 -347.575499 
L 409.328636 -349.420727 
L 408.810913 -351.265954 
L 408.378409 -353.111182 
L 408.037356 -354.956409 
L 407.79323 -356.801637 
L 407.650789 -358.646865 
L 407.613872 -360.492092 
L 407.684986 -362.33732 
L 407.864786 -364.182548 
L 408.151543 -366.027775 
L 408.54074 -367.873003 
L 409.024891 -369.718231 
L 409.593643 -371.563458 
L 410.234157 -373.408686 
L 410.931734 -375.253914 
L 411.670576 -377.099141 
L 412.434595 -378.944369 
L 413.208154 -380.789597 
L 413.97667 -382.634824 
L 414.727025 -384.480052 
L 415.447792 -386.32528 
L 416.129304 -388.170507 
L 416.763613 -390.015735 
L 417.344409 -391.860962 
L 417.866936 -393.70619 
L 418.327936 -395.551418 
L 418.725632 -397.396645 
L 419.059725 -399.241873 
L 419.33138 -401.087101 
L 419.543178 -402.932328 
L 419.699005 -404.777556 
L 419.803887 -406.622784 
L 419.863766 -408.468011 
L 419.885252 -410.313239 
L 419.875371 -412.158467 
L 419.841337 -414.003694 
L 419.790343 -415.848922 
L 419.72939 -417.69415 
L 419.665131 -419.539377 
L 419.60372 -421.384605 
L 419.550656 -423.229833 
L 419.510611 -425.07506 
L 419.487265 -426.920288 
L 419.483163 -428.765516 
L 419.499612 -430.610743 
L 419.536663 -432.455971 
L 419.593177 -434.301198 
L 419.666989 -436.146426 
L 419.755161 -437.991654 
L 419.854282 -439.836881 
L 419.960796 -441.682109 
L 420.071299 -443.527337 
L 420.182787 -445.372564 
L 420.29282 -447.217792 
L 420.399599 -449.06302 
L 420.501958 -450.908247 
L 420.599289 -452.753475 
L 420.691422 -454.598703 
L 420.778484 -456.44393 
L 420.860764 -458.289158 
L 420.938589 -460.134386 
L 421.012233 -461.979613 
L 421.081851 -463.824841 
L 421.147451 -465.670069 
L 421.20889 -467.515296 
L 421.265887 -469.360524 
L 421.318062 -471.205752 
L 421.364978 -473.050979 
L 421.406187 -474.896207 
L 421.441277 -476.741434 
L 421.469912 -478.586662 
L 421.491868 -480.43189 
L 421.507063 -482.277117 
L 421.515576 -484.122345 
L 421.517676 -485.967573 
L 421.51383 -487.8128 
L 421.504723 -489.658028 
L 421.491256 -491.503256 
L 421.474541 -493.348483 
L 421.455866 -495.193711 
L 421.436645 -497.038939 
L 421.418341 -498.884166 
L 421.40237 -500.729394 
L 421.389992 -502.574622 
L 421.382212 -504.419849 
L 421.379689 -506.265077 
L 421.863714 -506.265077 
L 421.863714 -506.265077 
L 421.861191 -504.419849 
L 421.85341 -502.574622 
L 421.841033 -500.729394 
L 421.825062 -498.884166 
L 421.806758 -497.038939 
L 421.787537 -495.193711 
L 421.768862 -493.348483 
L 421.752146 -491.503256 
L 421.73868 -489.658028 
L 421.729572 -487.8128 
L 421.725727 -485.967573 
L 421.727826 -484.122345 
L 421.73634 -482.277117 
L 421.751534 -480.43189 
L 421.773491 -478.586662 
L 421.802126 -476.741434 
L 421.837216 -474.896207 
L 421.878425 -473.050979 
L 421.925341 -471.205752 
L 421.977516 -469.360524 
L 422.034513 -467.515296 
L 422.095952 -465.670069 
L 422.161552 -463.824841 
L 422.23117 -461.979613 
L 422.304814 -460.134386 
L 422.382639 -458.289158 
L 422.464919 -456.44393 
L 422.551981 -454.598703 
L 422.644114 -452.753475 
L 422.741445 -450.908247 
L 422.843804 -449.06302 
L 422.950583 -447.217792 
L 423.060616 -445.372564 
L 423.172104 -443.527337 
L 423.282607 -441.682109 
L 423.38912 -439.836881 
L 423.488242 -437.991654 
L 423.576414 -436.146426 
L 423.650226 -434.301198 
L 423.706739 -432.455971 
L 423.743791 -430.610743 
L 423.76024 -428.765516 
L 423.756138 -426.920288 
L 423.732792 -425.07506 
L 423.692747 -423.229833 
L 423.639682 -421.384605 
L 423.578272 -419.539377 
L 423.514013 -417.69415 
L 423.45306 -415.848922 
L 423.402066 -414.003694 
L 423.368032 -412.158467 
L 423.358151 -410.313239 
L 423.379637 -408.468011 
L 423.439515 -406.622784 
L 423.544398 -404.777556 
L 423.700225 -402.932328 
L 423.912023 -401.087101 
L 424.183678 -399.241873 
L 424.51777 -397.396645 
L 424.915467 -395.551418 
L 425.376467 -393.70619 
L 425.898993 -391.860962 
L 426.47979 -390.015735 
L 427.114099 -388.170507 
L 427.79561 -386.32528 
L 428.516378 -384.480052 
L 429.266733 -382.634824 
L 430.035249 -380.789597 
L 430.808808 -378.944369 
L 431.572827 -377.099141 
L 432.311669 -375.253914 
L 433.009246 -373.408686 
L 433.64976 -371.563458 
L 434.218512 -369.718231 
L 434.702663 -367.873003 
L 435.09186 -366.027775 
L 435.378617 -364.182548 
L 435.558417 -362.33732 
L 435.629531 -360.492092 
L 435.592613 -358.646865 
L 435.450173 -356.801637 
L 435.206047 -354.956409 
L 434.864994 -353.111182 
L 434.43249 -351.265954 
L 433.914767 -349.420727 
L 433.31905 -347.575499 
L 432.653916 -345.730271 
L 431.929636 -343.885044 
L 431.158373 -342.039816 
L 430.354127 -340.194588 
L 429.532365 -338.349361 
L 428.709356 -336.504133 
L 427.901284 -334.658905 
L 427.123269 -332.813678 
L 426.388441 -330.96845 
L 425.707209 -329.123222 
L 425.086818 -327.277995 
L 424.531241 -325.432767 
L 424.041388 -323.587539 
z
" id="m77d2857e7d" style="stroke:#000000;"/>
    </defs>
    <g clip-path="url(#pfa5df21e29)">
     <use style="fill:#1f77b4;stroke:#000000;" x="0" xlink:href="#m77d2857e7d" y="576"/>
    </g>
   </g>
   <g id="PolyCollection_8">
    <defs>
     <path d="M 479.040686 -318.938566 
L 476.265355 -318.938566 
L 475.941817 -320.865737 
L 475.554789 -322.792909 
L 475.096277 -324.720081 
L 474.559527 -326.647253 
L 473.939988 -328.574425 
L 473.236348 -330.501597 
L 472.451483 -332.428769 
L 471.593231 -334.355941 
L 470.674835 -336.283113 
L 469.714966 -338.210285 
L 468.737246 -340.137457 
L 467.769267 -342.064629 
L 466.84115 -343.991801 
L 465.983751 -345.918973 
L 465.22668 -347.846145 
L 464.596309 -349.773317 
L 464.113963 -351.700489 
L 463.794469 -353.627661 
L 463.645191 -355.554833 
L 463.665624 -357.482005 
L 463.847575 -359.409177 
L 464.175896 -361.336349 
L 464.629697 -363.263521 
L 465.183934 -365.190693 
L 465.811234 -367.117865 
L 466.483814 -369.045037 
L 467.175338 -370.972209 
L 467.862547 -372.899381 
L 468.526524 -374.826553 
L 469.153481 -376.753725 
L 469.734989 -378.680897 
L 470.267661 -380.608069 
L 470.752346 -382.535241 
L 471.192966 -384.462413 
L 471.595176 -386.389585 
L 471.965052 -388.316757 
L 472.307976 -390.243929 
L 472.627858 -392.171101 
L 472.926761 -394.098273 
L 473.204912 -396.025445 
L 473.461029 -397.952617 
L 473.692854 -399.879789 
L 473.897762 -401.806961 
L 474.073357 -403.734133 
L 474.217964 -405.661305 
L 474.331011 -407.588477 
L 474.413286 -409.515649 
L 474.467093 -411.442821 
L 474.496315 -413.369993 
L 474.506389 -415.297165 
L 474.504166 -417.224337 
L 474.49763 -419.151509 
L 474.49545 -421.078681 
L 474.506373 -423.005853 
L 474.538482 -424.933025 
L 474.598414 -426.860197 
L 474.690637 -428.787369 
L 474.816914 -430.714541 
L 474.976057 -432.641713 
L 475.164024 -434.568885 
L 475.374387 -436.496057 
L 475.599072 -438.423229 
L 475.829288 -440.350401 
L 476.056481 -442.277573 
L 476.273175 -444.204745 
L 476.473587 -446.131917 
L 476.65394 -448.059089 
L 476.812483 -449.986261 
L 476.949239 -451.913433 
L 477.065591 -453.840605 
L 477.163782 -455.767777 
L 477.246429 -457.694949 
L 477.316127 -459.622121 
L 477.375175 -461.549292 
L 477.425435 -463.476464 
L 477.468306 -465.403636 
L 477.504779 -467.330808 
L 477.535533 -469.25798 
L 477.56104 -471.185152 
L 477.581653 -473.112324 
L 477.59766 -475.039496 
L 477.609314 -476.966668 
L 477.616833 -478.89384 
L 477.620392 -480.821012 
L 477.620111 -482.748184 
L 477.616069 -484.675356 
L 477.608315 -486.602528 
L 477.596918 -488.5297 
L 477.582026 -490.456872 
L 477.563928 -492.384044 
L 477.543121 -494.311216 
L 477.520344 -496.238388 
L 477.496595 -498.16556 
L 477.473091 -500.092732 
L 477.4512 -502.019904 
L 477.432322 -503.947076 
L 477.417755 -505.874248 
L 477.408555 -507.80142 
L 477.40541 -509.728592 
L 477.900631 -509.728592 
L 477.900631 -509.728592 
L 477.897487 -507.80142 
L 477.888287 -505.874248 
L 477.87372 -503.947076 
L 477.854842 -502.019904 
L 477.832951 -500.092732 
L 477.809447 -498.16556 
L 477.785697 -496.238388 
L 477.762921 -494.311216 
L 477.742113 -492.384044 
L 477.724016 -490.456872 
L 477.709124 -488.5297 
L 477.697727 -486.602528 
L 477.689973 -484.675356 
L 477.68593 -482.748184 
L 477.68565 -480.821012 
L 477.689208 -478.89384 
L 477.696727 -476.966668 
L 477.708382 -475.039496 
L 477.724389 -473.112324 
L 477.745002 -471.185152 
L 477.770509 -469.25798 
L 477.801263 -467.330808 
L 477.837736 -465.403636 
L 477.880607 -463.476464 
L 477.930867 -461.549292 
L 477.989915 -459.622121 
L 478.059613 -457.694949 
L 478.14226 -455.767777 
L 478.24045 -453.840605 
L 478.356803 -451.913433 
L 478.493559 -449.986261 
L 478.652101 -448.059089 
L 478.832455 -446.131917 
L 479.032867 -444.204745 
L 479.249561 -442.277573 
L 479.476753 -440.350401 
L 479.706969 -438.423229 
L 479.931654 -436.496057 
L 480.142017 -434.568885 
L 480.329985 -432.641713 
L 480.489127 -430.714541 
L 480.615405 -428.787369 
L 480.707628 -426.860197 
L 480.76756 -424.933025 
L 480.799669 -423.005853 
L 480.810592 -421.078681 
L 480.808412 -419.151509 
L 480.801876 -417.224337 
L 480.799653 -415.297165 
L 480.809727 -413.369993 
L 480.838949 -411.442821 
L 480.892755 -409.515649 
L 480.975031 -407.588477 
L 481.088078 -405.661305 
L 481.232685 -403.734133 
L 481.408279 -401.806961 
L 481.613188 -399.879789 
L 481.845012 -397.952617 
L 482.101129 -396.025445 
L 482.37928 -394.098273 
L 482.678184 -392.171101 
L 482.998066 -390.243929 
L 483.34099 -388.316757 
L 483.710866 -386.389585 
L 484.113076 -384.462413 
L 484.553695 -382.535241 
L 485.038381 -380.608069 
L 485.571053 -378.680897 
L 486.152561 -376.753725 
L 486.779518 -374.826553 
L 487.443495 -372.899381 
L 488.130703 -370.972209 
L 488.822227 -369.045037 
L 489.494808 -367.117865 
L 490.122107 -365.190693 
L 490.676344 -363.263521 
L 491.130145 -361.336349 
L 491.458466 -359.409177 
L 491.640417 -357.482005 
L 491.660851 -355.554833 
L 491.511573 -353.627661 
L 491.192079 -351.700489 
L 490.709733 -349.773317 
L 490.079361 -347.846145 
L 489.322291 -345.918973 
L 488.464892 -343.991801 
L 487.536774 -342.064629 
L 486.568795 -340.137457 
L 485.591075 -338.210285 
L 484.631206 -336.283113 
L 483.712811 -334.355941 
L 482.854558 -332.428769 
L 482.069693 -330.501597 
L 481.366053 -328.574425 
L 480.746515 -326.647253 
L 480.209764 -324.720081 
L 479.751253 -322.792909 
L 479.364225 -320.865737 
L 479.040686 -318.938566 
z
" id="m17335e5383" style="stroke:#000000;"/>
    </defs>
    <g clip-path="url(#pfa5df21e29)">
     <use style="fill:#ff7f0e;stroke:#000000;" x="0" xlink:href="#m17335e5383" y="576"/>
    </g>
   </g>
   <g id="PolyCollection_9">
    <defs>
     <path d="M 536.464109 -316.880429 
L 530.904571 -316.880429 
L 530.561413 -318.670043 
L 530.209668 -320.459657 
L 529.849669 -322.24927 
L 529.480225 -324.038884 
L 529.098753 -325.828498 
L 528.701632 -327.618111 
L 528.284773 -329.407725 
L 527.844298 -331.197339 
L 527.377258 -332.986952 
L 526.882259 -334.776566 
L 526.359927 -336.56618 
L 525.813126 -338.355793 
L 525.246919 -340.145407 
L 524.668288 -341.935021 
L 524.085659 -343.724635 
L 523.508325 -345.514248 
L 522.945841 -347.303862 
L 522.407485 -349.093476 
L 521.901817 -350.883089 
L 521.436379 -352.672703 
L 521.017536 -354.462317 
L 520.650408 -356.25193 
L 520.338901 -358.041544 
L 520.085761 -359.831158 
L 519.892667 -361.620771 
L 519.760321 -363.410385 
L 519.688565 -365.199999 
L 519.67651 -366.989612 
L 519.722697 -368.779226 
L 519.825276 -370.56884 
L 519.982207 -372.358453 
L 520.191443 -374.148067 
L 520.451066 -375.937681 
L 520.759357 -377.727295 
L 521.114766 -379.516908 
L 521.515782 -381.306522 
L 521.960707 -383.096136 
L 522.447366 -384.885749 
L 522.972799 -386.675363 
L 523.532977 -388.464977 
L 524.122586 -390.25459 
L 524.734935 -392.044204 
L 525.361994 -393.833818 
L 525.99458 -395.623431 
L 526.622675 -397.413045 
L 527.23585 -399.202659 
L 527.823762 -400.992272 
L 528.376669 -402.781886 
L 528.88593 -404.5715 
L 529.344447 -406.361113 
L 529.747026 -408.150727 
L 530.090621 -409.940341 
L 530.374472 -411.729955 
L 530.600122 -413.519568 
L 530.771306 -415.309182 
L 530.893742 -417.098796 
L 530.974807 -418.888409 
L 531.023117 -420.678023 
L 531.048033 -422.467637 
L 531.059115 -424.25725 
L 531.065556 -426.046864 
L 531.075643 -427.836478 
L 531.096303 -429.626091 
L 531.132755 -431.415705 
L 531.188334 -433.205319 
L 531.264478 -434.994932 
L 531.360883 -436.784546 
L 531.475797 -438.57416 
L 531.606396 -440.363773 
L 531.749195 -442.153387 
L 531.900438 -443.943001 
L 532.056417 -445.732615 
L 532.213702 -447.522228 
L 532.369266 -449.311842 
L 532.520535 -451.101456 
L 532.665368 -452.891069 
L 532.802005 -454.680683 
L 532.92901 -456.470297 
L 533.045228 -458.25991 
L 533.149753 -460.049524 
L 533.241922 -461.839138 
L 533.321319 -463.628751 
L 533.387778 -465.418365 
L 533.441389 -467.207979 
L 533.48249 -468.997592 
L 533.511659 -470.787206 
L 533.52969 -472.57682 
L 533.537585 -474.366433 
L 533.536531 -476.156047 
L 533.527896 -477.945661 
L 533.513208 -479.735275 
L 533.494142 -481.524888 
L 533.472477 -483.314502 
L 533.450048 -485.104116 
L 533.428666 -486.893729 
L 533.410024 -488.683343 
L 533.3956 -490.472957 
L 533.38655 -492.26257 
L 533.383632 -494.052184 
L 533.985049 -494.052184 
L 533.985049 -494.052184 
L 533.98213 -492.26257 
L 533.973081 -490.472957 
L 533.958656 -488.683343 
L 533.940015 -486.893729 
L 533.918632 -485.104116 
L 533.896203 -483.314502 
L 533.874539 -481.524888 
L 533.855472 -479.735275 
L 533.840785 -477.945661 
L 533.832149 -476.156047 
L 533.831096 -474.366433 
L 533.83899 -472.57682 
L 533.857022 -470.787206 
L 533.88619 -468.997592 
L 533.927292 -467.207979 
L 533.980903 -465.418365 
L 534.047362 -463.628751 
L 534.126758 -461.839138 
L 534.218927 -460.049524 
L 534.323452 -458.25991 
L 534.43967 -456.470297 
L 534.566676 -454.680683 
L 534.703312 -452.891069 
L 534.848145 -451.101456 
L 534.999415 -449.311842 
L 535.154979 -447.522228 
L 535.312263 -445.732615 
L 535.468243 -443.943001 
L 535.619486 -442.153387 
L 535.762285 -440.363773 
L 535.892883 -438.57416 
L 536.007797 -436.784546 
L 536.104203 -434.994932 
L 536.180347 -433.205319 
L 536.235926 -431.415705 
L 536.272378 -429.626091 
L 536.293037 -427.836478 
L 536.303125 -426.046864 
L 536.309566 -424.25725 
L 536.320648 -422.467637 
L 536.345564 -420.678023 
L 536.393873 -418.888409 
L 536.474938 -417.098796 
L 536.597375 -415.309182 
L 536.768559 -413.519568 
L 536.994208 -411.729955 
L 537.27806 -409.940341 
L 537.621655 -408.150727 
L 538.024233 -406.361113 
L 538.482751 -404.5715 
L 538.992011 -402.781886 
L 539.544918 -400.992272 
L 540.13283 -399.202659 
L 540.746006 -397.413045 
L 541.3741 -395.623431 
L 542.006686 -393.833818 
L 542.633746 -392.044204 
L 543.246095 -390.25459 
L 543.835704 -388.464977 
L 544.395881 -386.675363 
L 544.921315 -384.885749 
L 545.407974 -383.096136 
L 545.852898 -381.306522 
L 546.253914 -379.516908 
L 546.609324 -377.727295 
L 546.917615 -375.937681 
L 547.177238 -374.148067 
L 547.386473 -372.358453 
L 547.543405 -370.56884 
L 547.645984 -368.779226 
L 547.69217 -366.989612 
L 547.680116 -365.199999 
L 547.60836 -363.410385 
L 547.476014 -361.620771 
L 547.282919 -359.831158 
L 547.02978 -358.041544 
L 546.718272 -356.25193 
L 546.351145 -354.462317 
L 545.932301 -352.672703 
L 545.466864 -350.883089 
L 544.961195 -349.093476 
L 544.422839 -347.303862 
L 543.860356 -345.514248 
L 543.283021 -343.724635 
L 542.700392 -341.935021 
L 542.121761 -340.145407 
L 541.555555 -338.355793 
L 541.008753 -336.56618 
L 540.486421 -334.776566 
L 539.991423 -332.986952 
L 539.524383 -331.197339 
L 539.083908 -329.407725 
L 538.667048 -327.618111 
L 538.269928 -325.828498 
L 537.888455 -324.038884 
L 537.519012 -322.24927 
L 537.159013 -320.459657 
L 536.807268 -318.670043 
L 536.464109 -316.880429 
z
" id="maf69377fa0" style="stroke:#000000;"/>
    </defs>
    <g clip-path="url(#pfa5df21e29)">
     <use style="fill:#2ca02c;stroke:#000000;" x="0" xlink:href="#maf69377fa0" y="576"/>
    </g>
   </g>
   <g id="matplotlib.axis_1">
    <g id="xtick_1">
     <g id="line2d_1">
      <defs>
       <path d="M 0 0 
L 0 3.5 
" id="m5266218285" style="stroke:#000000;stroke-width:0.8;"/>
      </defs>
      <g>
       <use style="stroke:#000000;stroke-width:0.8;" x="141.465104" xlink:href="#m5266218285" y="526.12625"/>
      </g>
     </g>
     <g id="text_1">
      <text style="font-family:DejaVu Sans;font-size:10px;font-style:normal;font-weight:normal;" transform="translate(84.35651 540.724687)">Skew Negative emVAR</text>
      <text style="font-family:DejaVu Sans;font-size:10px;font-style:normal;font-weight:normal;" transform="translate(119.066667 551.9225)">(q&lt;0.01)</text>
     </g>
    </g>
    <g id="xtick_2">
     <g id="line2d_2">
      <g>
       <use style="stroke:#000000;stroke-width:0.8;" x="309.559062" xlink:href="#m5266218285" y="526.12625"/>
      </g>
     </g>
     <g id="text_2">
      <text style="font-family:DejaVu Sans;font-size:10px;font-style:normal;font-weight:normal;" transform="translate(291.104375 540.724687)">Neutral</text>
      <text style="font-family:DejaVu Sans;font-size:10px;font-style:normal;font-weight:normal;" transform="translate(256.091875 551.9225)">(-0.2&lt;Log.Skew&lt;0.2,</text>
      <text style="font-family:DejaVu Sans;font-size:10px;font-style:normal;font-weight:normal;" transform="translate(289.111406 563.120312)">q&gt;0.01)</text>
     </g>
    </g>
    <g id="xtick_3">
     <g id="line2d_3">
      <g>
       <use style="stroke:#000000;stroke-width:0.8;" x="477.653021" xlink:href="#m5266218285" y="526.12625"/>
      </g>
     </g>
     <g id="text_3">
      <text style="font-family:DejaVu Sans;font-size:10px;font-style:normal;font-weight:normal;" transform="translate(423.534271 540.724687)">Skew Positive emVAR</text>
      <text style="font-family:DejaVu Sans;font-size:10px;font-style:normal;font-weight:normal;" transform="translate(455.254583 551.9225)">(q&lt;0.01)</text>
     </g>
    </g>
   </g>
   <g id="matplotlib.axis_2">
    <g id="ytick_1">
     <g id="line2d_4">
      <defs>
       <path d="M 0 0 
L -3.5 0 
" id="m00959dc83f" style="stroke:#000000;stroke-width:0.8;"/>
      </defs>
      <g>
       <use style="stroke:#000000;stroke-width:0.8;" x="57.418125" xlink:href="#m00959dc83f" y="467.780411"/>
      </g>
     </g>
     <g id="text_4">
      <text style="font-family:DejaVu Sans;font-size:10px;font-style:normal;font-weight:normal;text-anchor:end;" transform="rotate(-0, 50.418125, 471.57963)" x="50.418125" y="471.57963">8</text>
     </g>
    </g>
    <g id="ytick_2">
     <g id="line2d_5">
      <g>
       <use style="stroke:#000000;stroke-width:0.8;" x="57.418125" xlink:href="#m00959dc83f" y="406.273389"/>
      </g>
     </g>
     <g id="text_5">
      <text style="font-family:DejaVu Sans;font-size:10px;font-style:normal;font-weight:normal;text-anchor:end;" transform="rotate(-0, 50.418125, 410.072608)" x="50.418125" y="410.072608">6</text>
     </g>
    </g>
    <g id="ytick_3">
     <g id="line2d_6">
      <g>
       <use style="stroke:#000000;stroke-width:0.8;" x="57.418125" xlink:href="#m00959dc83f" y="344.766367"/>
      </g>
     </g>
     <g id="text_6">
      <text style="font-family:DejaVu Sans;font-size:10px;font-style:normal;font-weight:normal;text-anchor:end;" transform="rotate(-0, 50.418125, 348.565586)" x="50.418125" y="348.565586">4</text>
     </g>
    </g>
    <g id="ytick_4">
     <g id="line2d_7">
      <g>
       <use style="stroke:#000000;stroke-width:0.8;" x="57.418125" xlink:href="#m00959dc83f" y="283.259345"/>
      </g>
     </g>
     <g id="text_7">
      <text style="font-family:DejaVu Sans;font-size:10px;font-style:normal;font-weight:normal;text-anchor:end;" transform="rotate(-0, 50.418125, 287.058564)" x="50.418125" y="287.058564">2</text>
     </g>
    </g>
    <g id="ytick_5">
     <g id="line2d_8">
      <g>
       <use style="stroke:#000000;stroke-width:0.8;" x="57.418125" xlink:href="#m00959dc83f" y="221.752324"/>
      </g>
     </g>
     <g id="text_8">
      <text style="font-family:DejaVu Sans;font-size:10px;font-style:normal;font-weight:normal;text-anchor:end;" transform="rotate(-0, 50.418125, 225.551542)" x="50.418125" y="225.551542">0</text>
     </g>
    </g>
    <g id="ytick_6">
     <g id="line2d_9">
      <g>
       <use style="stroke:#000000;stroke-width:0.8;" x="57.418125" xlink:href="#m00959dc83f" y="160.245302"/>
      </g>
     </g>
     <g id="text_9">
      <text style="font-family:DejaVu Sans;font-size:10px;font-style:normal;font-weight:normal;text-anchor:end;" transform="rotate(-0, 50.418125, 164.04452)" x="50.418125" y="164.04452">2</text>
     </g>
    </g>
    <g id="ytick_7">
     <g id="line2d_10">
      <g>
       <use style="stroke:#000000;stroke-width:0.8;" x="57.418125" xlink:href="#m00959dc83f" y="98.73828"/>
      </g>
     </g>
     <g id="text_10">
      <text style="font-family:DejaVu Sans;font-size:10px;font-style:normal;font-weight:normal;text-anchor:end;" transform="rotate(-0, 50.418125, 102.537499)" x="50.418125" y="102.537499">4</text>
     </g>
    </g>
    <g id="ytick_8">
     <g id="line2d_11">
      <g>
       <use style="stroke:#000000;stroke-width:0.8;" x="57.418125" xlink:href="#m00959dc83f" y="37.231258"/>
      </g>
     </g>
     <g id="text_11">
      <text style="font-family:DejaVu Sans;font-size:10px;font-style:normal;font-weight:normal;text-anchor:end;" transform="rotate(-0, 50.418125, 41.030477)" x="50.418125" y="41.030477">6</text>
     </g>
    </g>
    <g id="text_12">
     <text style="font-family:DejaVu Sans;font-size:10px;font-style:normal;font-weight:normal;" transform="translate(18.398438 308.702969)rotate(-90)">Predicted.Skew</text>
     <text style="font-family:DejaVu Sans;font-size:10px;font-style:normal;font-weight:normal;" transform="translate(29.59625 299.906875)rotate(-90)">log2(alt/ref)</text>
    </g>
   </g>
   <g id="line2d_12">
    <path clip-path="url(#pfa5df21e29)" d="M 71.425955 250.126329 
L 99.441615 250.126329 
L 99.441615 217.590418 
L 71.425955 217.590418 
L 71.425955 250.126329 
" style="fill:none;stroke:#000000;stroke-linecap:square;"/>
   </g>
   <g id="line2d_13">
    <path clip-path="url(#pfa5df21e29)" d="M 85.433785 250.126329 
L 85.433785 289.833132 
" style="fill:none;stroke:#000000;stroke-linecap:square;"/>
   </g>
   <g id="line2d_14">
    <path clip-path="url(#pfa5df21e29)" d="M 85.433785 217.590418 
L 85.433785 168.962583 
" style="fill:none;stroke:#000000;stroke-linecap:square;"/>
   </g>
   <g id="line2d_15">
    <path clip-path="url(#pfa5df21e29)" d="M 78.42987 289.833132 
L 92.4377 289.833132 
" style="fill:none;stroke:#000000;stroke-linecap:square;"/>
   </g>
   <g id="line2d_16">
    <path clip-path="url(#pfa5df21e29)" d="M 78.42987 168.962583 
L 92.4377 168.962583 
" style="fill:none;stroke:#000000;stroke-linecap:square;"/>
   </g>
   <g id="line2d_17">
    <defs>
     <path d="M 0 3 
C 0.795609 3 1.55874 2.683901 2.12132 2.12132 
C 2.683901 1.55874 3 0.795609 3 0 
C 3 -0.795609 2.683901 -1.55874 2.12132 -2.12132 
C 1.55874 -2.683901 0.795609 -3 0 -3 
C -0.795609 -3 -1.55874 -2.683901 -2.12132 -2.12132 
C -2.683901 -1.55874 -3 -0.795609 -3 0 
C -3 0.795609 -2.683901 1.55874 -2.12132 2.12132 
C -1.55874 2.683901 -0.795609 3 0 3 
z
" id="m5bb067b133" style="stroke:#000000;"/>
    </defs>
    <g clip-path="url(#pfa5df21e29)">
     <use style="fill-opacity:0;stroke:#000000;" x="85.433785" xlink:href="#m5bb067b133" y="403.302979"/>
     <use style="fill-opacity:0;stroke:#000000;" x="85.433785" xlink:href="#m5bb067b133" y="314.293423"/>
     <use style="fill-opacity:0;stroke:#000000;" x="85.433785" xlink:href="#m5bb067b133" y="341.709364"/>
     <use style="fill-opacity:0;stroke:#000000;" x="85.433785" xlink:href="#m5bb067b133" y="314.238872"/>
    </g>
   </g>
   <g id="line2d_18">
    <path clip-path="url(#pfa5df21e29)" d="M 127.457274 241.431175 
L 155.472934 241.431175 
L 155.472934 220.24495 
L 127.457274 220.24495 
L 127.457274 241.431175 
" style="fill:none;stroke:#000000;stroke-linecap:square;"/>
   </g>
   <g id="line2d_19">
    <path clip-path="url(#pfa5df21e29)" d="M 141.465104 241.431175 
L 141.465104 272.972162 
" style="fill:none;stroke:#000000;stroke-linecap:square;"/>
   </g>
   <g id="line2d_20">
    <path clip-path="url(#pfa5df21e29)" d="M 141.465104 220.24495 
L 141.465104 191.715989 
" style="fill:none;stroke:#000000;stroke-linecap:square;"/>
   </g>
   <g id="line2d_21">
    <path clip-path="url(#pfa5df21e29)" d="M 134.461189 272.972162 
L 148.469019 272.972162 
" style="fill:none;stroke:#000000;stroke-linecap:square;"/>
   </g>
   <g id="line2d_22">
    <path clip-path="url(#pfa5df21e29)" d="M 134.461189 191.715989 
L 148.469019 191.715989 
" style="fill:none;stroke:#000000;stroke-linecap:square;"/>
   </g>
   <g id="line2d_23">
    <g clip-path="url(#pfa5df21e29)">
     <use style="fill-opacity:0;stroke:#000000;" x="141.465104" xlink:href="#m5bb067b133" y="316.383697"/>
     <use style="fill-opacity:0;stroke:#000000;" x="141.465104" xlink:href="#m5bb067b133" y="276.739183"/>
     <use style="fill-opacity:0;stroke:#000000;" x="141.465104" xlink:href="#m5bb067b133" y="302.893885"/>
     <use style="fill-opacity:0;stroke:#000000;" x="141.465104" xlink:href="#m5bb067b133" y="286.627725"/>
     <use style="fill-opacity:0;stroke:#000000;" x="141.465104" xlink:href="#m5bb067b133" y="283.701118"/>
     <use style="fill-opacity:0;stroke:#000000;" x="141.465104" xlink:href="#m5bb067b133" y="300.418502"/>
     <use style="fill-opacity:0;stroke:#000000;" x="141.465104" xlink:href="#m5bb067b133" y="373.713955"/>
     <use style="fill-opacity:0;stroke:#000000;" x="141.465104" xlink:href="#m5bb067b133" y="349.076049"/>
     <use style="fill-opacity:0;stroke:#000000;" x="141.465104" xlink:href="#m5bb067b133" y="386.591967"/>
     <use style="fill-opacity:0;stroke:#000000;" x="141.465104" xlink:href="#m5bb067b133" y="278.347319"/>
     <use style="fill-opacity:0;stroke:#000000;" x="141.465104" xlink:href="#m5bb067b133" y="298.946151"/>
     <use style="fill-opacity:0;stroke:#000000;" x="141.465104" xlink:href="#m5bb067b133" y="280.459179"/>
     <use style="fill-opacity:0;stroke:#000000;" x="141.465104" xlink:href="#m5bb067b133" y="188.28422"/>
    </g>
   </g>
   <g id="line2d_24">
    <path clip-path="url(#pfa5df21e29)" d="M 183.488594 253.461086 
L 211.504253 253.461086 
L 211.504253 221.304171 
L 183.488594 221.304171 
L 183.488594 253.461086 
" style="fill:none;stroke:#000000;stroke-linecap:square;"/>
   </g>
   <g id="line2d_25">
    <path clip-path="url(#pfa5df21e29)" d="M 197.496424 253.461086 
L 197.496424 297.43562 
" style="fill:none;stroke:#000000;stroke-linecap:square;"/>
   </g>
   <g id="line2d_26">
    <path clip-path="url(#pfa5df21e29)" d="M 197.496424 221.304171 
L 197.496424 176.411985 
" style="fill:none;stroke:#000000;stroke-linecap:square;"/>
   </g>
   <g id="line2d_27">
    <path clip-path="url(#pfa5df21e29)" d="M 190.492509 297.43562 
L 204.500339 297.43562 
" style="fill:none;stroke:#000000;stroke-linecap:square;"/>
   </g>
   <g id="line2d_28">
    <path clip-path="url(#pfa5df21e29)" d="M 190.492509 176.411985 
L 204.500339 176.411985 
" style="fill:none;stroke:#000000;stroke-linecap:square;"/>
   </g>
   <g id="line2d_29">
    <g clip-path="url(#pfa5df21e29)">
     <use style="fill-opacity:0;stroke:#000000;" x="197.496424" xlink:href="#m5bb067b133" y="303.956996"/>
     <use style="fill-opacity:0;stroke:#000000;" x="197.496424" xlink:href="#m5bb067b133" y="369.009244"/>
     <use style="fill-opacity:0;stroke:#000000;" x="197.496424" xlink:href="#m5bb067b133" y="306.243406"/>
     <use style="fill-opacity:0;stroke:#000000;" x="197.496424" xlink:href="#m5bb067b133" y="165.786714"/>
    </g>
   </g>
   <g id="line2d_30">
    <path clip-path="url(#pfa5df21e29)" d="M 239.519913 235.805504 
L 267.535573 235.805504 
L 267.535573 205.753458 
L 239.519913 205.753458 
L 239.519913 235.805504 
" style="fill:none;stroke:#000000;stroke-linecap:square;"/>
   </g>
   <g id="line2d_31">
    <path clip-path="url(#pfa5df21e29)" d="M 253.527743 235.805504 
L 253.527743 280.876781 
" style="fill:none;stroke:#000000;stroke-linecap:square;"/>
   </g>
   <g id="line2d_32">
    <path clip-path="url(#pfa5df21e29)" d="M 253.527743 205.753458 
L 253.527743 160.69657 
" style="fill:none;stroke:#000000;stroke-linecap:square;"/>
   </g>
   <g id="line2d_33">
    <path clip-path="url(#pfa5df21e29)" d="M 246.523828 280.876781 
L 260.531658 280.876781 
" style="fill:none;stroke:#000000;stroke-linecap:square;"/>
   </g>
   <g id="line2d_34">
    <path clip-path="url(#pfa5df21e29)" d="M 246.523828 160.69657 
L 260.531658 160.69657 
" style="fill:none;stroke:#000000;stroke-linecap:square;"/>
   </g>
   <g id="line2d_35">
    <g clip-path="url(#pfa5df21e29)">
     <use style="fill-opacity:0;stroke:#000000;" x="253.527743" xlink:href="#m5bb067b133" y="300.4494"/>
     <use style="fill-opacity:0;stroke:#000000;" x="253.527743" xlink:href="#m5bb067b133" y="295.187991"/>
     <use style="fill-opacity:0;stroke:#000000;" x="253.527743" xlink:href="#m5bb067b133" y="282.859527"/>
     <use style="fill-opacity:0;stroke:#000000;" x="253.527743" xlink:href="#m5bb067b133" y="301.409362"/>
     <use style="fill-opacity:0;stroke:#000000;" x="253.527743" xlink:href="#m5bb067b133" y="281.410441"/>
     <use style="fill-opacity:0;stroke:#000000;" x="253.527743" xlink:href="#m5bb067b133" y="286.732979"/>
     <use style="fill-opacity:0;stroke:#000000;" x="253.527743" xlink:href="#m5bb067b133" y="283.173042"/>
     <use style="fill-opacity:0;stroke:#000000;" x="253.527743" xlink:href="#m5bb067b133" y="290.345705"/>
     <use style="fill-opacity:0;stroke:#000000;" x="253.527743" xlink:href="#m5bb067b133" y="290.800353"/>
     <use style="fill-opacity:0;stroke:#000000;" x="253.527743" xlink:href="#m5bb067b133" y="322.240657"/>
     <use style="fill-opacity:0;stroke:#000000;" x="253.527743" xlink:href="#m5bb067b133" y="312.376857"/>
     <use style="fill-opacity:0;stroke:#000000;" x="253.527743" xlink:href="#m5bb067b133" y="287.953557"/>
     <use style="fill-opacity:0;stroke:#000000;" x="253.527743" xlink:href="#m5bb067b133" y="336.084211"/>
     <use style="fill-opacity:0;stroke:#000000;" x="253.527743" xlink:href="#m5bb067b133" y="310.463701"/>
     <use style="fill-opacity:0;stroke:#000000;" x="253.527743" xlink:href="#m5bb067b133" y="338.309844"/>
     <use style="fill-opacity:0;stroke:#000000;" x="253.527743" xlink:href="#m5bb067b133" y="322.653908"/>
     <use style="fill-opacity:0;stroke:#000000;" x="253.527743" xlink:href="#m5bb067b133" y="287.323948"/>
     <use style="fill-opacity:0;stroke:#000000;" x="253.527743" xlink:href="#m5bb067b133" y="282.884329"/>
     <use style="fill-opacity:0;stroke:#000000;" x="253.527743" xlink:href="#m5bb067b133" y="289.168548"/>
     <use style="fill-opacity:0;stroke:#000000;" x="253.527743" xlink:href="#m5bb067b133" y="336.742856"/>
     <use style="fill-opacity:0;stroke:#000000;" x="253.527743" xlink:href="#m5bb067b133" y="283.386618"/>
     <use style="fill-opacity:0;stroke:#000000;" x="253.527743" xlink:href="#m5bb067b133" y="295.598902"/>
     <use style="fill-opacity:0;stroke:#000000;" x="253.527743" xlink:href="#m5bb067b133" y="329.681925"/>
     <use style="fill-opacity:0;stroke:#000000;" x="253.527743" xlink:href="#m5bb067b133" y="387.383039"/>
     <use style="fill-opacity:0;stroke:#000000;" x="253.527743" xlink:href="#m5bb067b133" y="387.383186"/>
     <use style="fill-opacity:0;stroke:#000000;" x="253.527743" xlink:href="#m5bb067b133" y="286.290216"/>
     <use style="fill-opacity:0;stroke:#000000;" x="253.527743" xlink:href="#m5bb067b133" y="304.694925"/>
     <use style="fill-opacity:0;stroke:#000000;" x="253.527743" xlink:href="#m5bb067b133" y="296.963155"/>
     <use style="fill-opacity:0;stroke:#000000;" x="253.527743" xlink:href="#m5bb067b133" y="353.868028"/>
     <use style="fill-opacity:0;stroke:#000000;" x="253.527743" xlink:href="#m5bb067b133" y="286.049544"/>
     <use style="fill-opacity:0;stroke:#000000;" x="253.527743" xlink:href="#m5bb067b133" y="309.227732"/>
     <use style="fill-opacity:0;stroke:#000000;" x="253.527743" xlink:href="#m5bb067b133" y="319.419854"/>
     <use style="fill-opacity:0;stroke:#000000;" x="253.527743" xlink:href="#m5bb067b133" y="461.792973"/>
     <use style="fill-opacity:0;stroke:#000000;" x="253.527743" xlink:href="#m5bb067b133" y="285.24119"/>
     <use style="fill-opacity:0;stroke:#000000;" x="253.527743" xlink:href="#m5bb067b133" y="329.844722"/>
     <use style="fill-opacity:0;stroke:#000000;" x="253.527743" xlink:href="#m5bb067b133" y="281.749152"/>
     <use style="fill-opacity:0;stroke:#000000;" x="253.527743" xlink:href="#m5bb067b133" y="288.217172"/>
     <use style="fill-opacity:0;stroke:#000000;" x="253.527743" xlink:href="#m5bb067b133" y="146.622836"/>
     <use style="fill-opacity:0;stroke:#000000;" x="253.527743" xlink:href="#m5bb067b133" y="85.651505"/>
     <use style="fill-opacity:0;stroke:#000000;" x="253.527743" xlink:href="#m5bb067b133" y="159.254992"/>
     <use style="fill-opacity:0;stroke:#000000;" x="253.527743" xlink:href="#m5bb067b133" y="120.42751"/>
     <use style="fill-opacity:0;stroke:#000000;" x="253.527743" xlink:href="#m5bb067b133" y="153.598691"/>
     <use style="fill-opacity:0;stroke:#000000;" x="253.527743" xlink:href="#m5bb067b133" y="153.293694"/>
     <use style="fill-opacity:0;stroke:#000000;" x="253.527743" xlink:href="#m5bb067b133" y="99.849571"/>
     <use style="fill-opacity:0;stroke:#000000;" x="253.527743" xlink:href="#m5bb067b133" y="160.225534"/>
     <use style="fill-opacity:0;stroke:#000000;" x="253.527743" xlink:href="#m5bb067b133" y="149.556042"/>
     <use style="fill-opacity:0;stroke:#000000;" x="253.527743" xlink:href="#m5bb067b133" y="145.378839"/>
     <use style="fill-opacity:0;stroke:#000000;" x="253.527743" xlink:href="#m5bb067b133" y="144.02392"/>
     <use style="fill-opacity:0;stroke:#000000;" x="253.527743" xlink:href="#m5bb067b133" y="156.663533"/>
     <use style="fill-opacity:0;stroke:#000000;" x="253.527743" xlink:href="#m5bb067b133" y="153.234537"/>
     <use style="fill-opacity:0;stroke:#000000;" x="253.527743" xlink:href="#m5bb067b133" y="102.566243"/>
     <use style="fill-opacity:0;stroke:#000000;" x="253.527743" xlink:href="#m5bb067b133" y="150.954353"/>
     <use style="fill-opacity:0;stroke:#000000;" x="253.527743" xlink:href="#m5bb067b133" y="113.030367"/>
     <use style="fill-opacity:0;stroke:#000000;" x="253.527743" xlink:href="#m5bb067b133" y="158.209096"/>
     <use style="fill-opacity:0;stroke:#000000;" x="253.527743" xlink:href="#m5bb067b133" y="158.209191"/>
     <use style="fill-opacity:0;stroke:#000000;" x="253.527743" xlink:href="#m5bb067b133" y="154.339787"/>
     <use style="fill-opacity:0;stroke:#000000;" x="253.527743" xlink:href="#m5bb067b133" y="157.10837"/>
     <use style="fill-opacity:0;stroke:#000000;" x="253.527743" xlink:href="#m5bb067b133" y="127.486161"/>
     <use style="fill-opacity:0;stroke:#000000;" x="253.527743" xlink:href="#m5bb067b133" y="159.858073"/>
     <use style="fill-opacity:0;stroke:#000000;" x="253.527743" xlink:href="#m5bb067b133" y="118.470096"/>
     <use style="fill-opacity:0;stroke:#000000;" x="253.527743" xlink:href="#m5bb067b133" y="156.861671"/>
     <use style="fill-opacity:0;stroke:#000000;" x="253.527743" xlink:href="#m5bb067b133" y="157.535728"/>
     <use style="fill-opacity:0;stroke:#000000;" x="253.527743" xlink:href="#m5bb067b133" y="150.315827"/>
     <use style="fill-opacity:0;stroke:#000000;" x="253.527743" xlink:href="#m5bb067b133" y="131.335687"/>
     <use style="fill-opacity:0;stroke:#000000;" x="253.527743" xlink:href="#m5bb067b133" y="157.941683"/>
     <use style="fill-opacity:0;stroke:#000000;" x="253.527743" xlink:href="#m5bb067b133" y="158.091495"/>
     <use style="fill-opacity:0;stroke:#000000;" x="253.527743" xlink:href="#m5bb067b133" y="159.334964"/>
     <use style="fill-opacity:0;stroke:#000000;" x="253.527743" xlink:href="#m5bb067b133" y="153.177375"/>
     <use style="fill-opacity:0;stroke:#000000;" x="253.527743" xlink:href="#m5bb067b133" y="149.769314"/>
     <use style="fill-opacity:0;stroke:#000000;" x="253.527743" xlink:href="#m5bb067b133" y="149.769218"/>
     <use style="fill-opacity:0;stroke:#000000;" x="253.527743" xlink:href="#m5bb067b133" y="130.181884"/>
     <use style="fill-opacity:0;stroke:#000000;" x="253.527743" xlink:href="#m5bb067b133" y="116.261693"/>
     <use style="fill-opacity:0;stroke:#000000;" x="253.527743" xlink:href="#m5bb067b133" y="155.103019"/>
     <use style="fill-opacity:0;stroke:#000000;" x="253.527743" xlink:href="#m5bb067b133" y="123.149284"/>
     <use style="fill-opacity:0;stroke:#000000;" x="253.527743" xlink:href="#m5bb067b133" y="37.56483"/>
     <use style="fill-opacity:0;stroke:#000000;" x="253.527743" xlink:href="#m5bb067b133" y="58.212006"/>
     <use style="fill-opacity:0;stroke:#000000;" x="253.527743" xlink:href="#m5bb067b133" y="143.956464"/>
    </g>
   </g>
   <g id="line2d_36">
    <path clip-path="url(#pfa5df21e29)" d="M 295.551233 236.924966 
L 323.566892 236.924966 
L 323.566892 205.130372 
L 295.551233 205.130372 
L 295.551233 236.924966 
" style="fill:none;stroke:#000000;stroke-linecap:square;"/>
   </g>
   <g id="line2d_37">
    <path clip-path="url(#pfa5df21e29)" d="M 309.559062 236.924966 
L 309.559062 284.472122 
" style="fill:none;stroke:#000000;stroke-linecap:square;"/>
   </g>
   <g id="line2d_38">
    <path clip-path="url(#pfa5df21e29)" d="M 309.559062 205.130372 
L 309.559062 160.223202 
" style="fill:none;stroke:#000000;stroke-linecap:square;"/>
   </g>
   <g id="line2d_39">
    <path clip-path="url(#pfa5df21e29)" d="M 302.555148 284.472122 
L 316.562977 284.472122 
" style="fill:none;stroke:#000000;stroke-linecap:square;"/>
   </g>
   <g id="line2d_40">
    <path clip-path="url(#pfa5df21e29)" d="M 302.555148 160.223202 
L 316.562977 160.223202 
" style="fill:none;stroke:#000000;stroke-linecap:square;"/>
   </g>
   <g id="line2d_41">
    <g clip-path="url(#pfa5df21e29)">
     <use style="fill-opacity:0;stroke:#000000;" x="309.559062" xlink:href="#m5bb067b133" y="291.408384"/>
     <use style="fill-opacity:0;stroke:#000000;" x="309.559062" xlink:href="#m5bb067b133" y="285.363784"/>
     <use style="fill-opacity:0;stroke:#000000;" x="309.559062" xlink:href="#m5bb067b133" y="370.050887"/>
     <use style="fill-opacity:0;stroke:#000000;" x="309.559062" xlink:href="#m5bb067b133" y="312.083261"/>
     <use style="fill-opacity:0;stroke:#000000;" x="309.559062" xlink:href="#m5bb067b133" y="309.498357"/>
     <use style="fill-opacity:0;stroke:#000000;" x="309.559062" xlink:href="#m5bb067b133" y="295.974546"/>
     <use style="fill-opacity:0;stroke:#000000;" x="309.559062" xlink:href="#m5bb067b133" y="318.75384"/>
     <use style="fill-opacity:0;stroke:#000000;" x="309.559062" xlink:href="#m5bb067b133" y="357.239114"/>
     <use style="fill-opacity:0;stroke:#000000;" x="309.559062" xlink:href="#m5bb067b133" y="295.389091"/>
     <use style="fill-opacity:0;stroke:#000000;" x="309.559062" xlink:href="#m5bb067b133" y="284.847912"/>
     <use style="fill-opacity:0;stroke:#000000;" x="309.559062" xlink:href="#m5bb067b133" y="284.807189"/>
     <use style="fill-opacity:0;stroke:#000000;" x="309.559062" xlink:href="#m5bb067b133" y="502.86142"/>
     <use style="fill-opacity:0;stroke:#000000;" x="309.559062" xlink:href="#m5bb067b133" y="501.952051"/>
     <use style="fill-opacity:0;stroke:#000000;" x="309.559062" xlink:href="#m5bb067b133" y="286.505571"/>
     <use style="fill-opacity:0;stroke:#000000;" x="309.559062" xlink:href="#m5bb067b133" y="333.215235"/>
     <use style="fill-opacity:0;stroke:#000000;" x="309.559062" xlink:href="#m5bb067b133" y="299.738931"/>
     <use style="fill-opacity:0;stroke:#000000;" x="309.559062" xlink:href="#m5bb067b133" y="294.378097"/>
     <use style="fill-opacity:0;stroke:#000000;" x="309.559062" xlink:href="#m5bb067b133" y="291.660421"/>
     <use style="fill-opacity:0;stroke:#000000;" x="309.559062" xlink:href="#m5bb067b133" y="296.49569"/>
     <use style="fill-opacity:0;stroke:#000000;" x="309.559062" xlink:href="#m5bb067b133" y="286.125176"/>
     <use style="fill-opacity:0;stroke:#000000;" x="309.559062" xlink:href="#m5bb067b133" y="294.949848"/>
     <use style="fill-opacity:0;stroke:#000000;" x="309.559062" xlink:href="#m5bb067b133" y="288.316435"/>
     <use style="fill-opacity:0;stroke:#000000;" x="309.559062" xlink:href="#m5bb067b133" y="290.484965"/>
     <use style="fill-opacity:0;stroke:#000000;" x="309.559062" xlink:href="#m5bb067b133" y="366.807645"/>
     <use style="fill-opacity:0;stroke:#000000;" x="309.559062" xlink:href="#m5bb067b133" y="364.763851"/>
     <use style="fill-opacity:0;stroke:#000000;" x="309.559062" xlink:href="#m5bb067b133" y="306.933352"/>
     <use style="fill-opacity:0;stroke:#000000;" x="309.559062" xlink:href="#m5bb067b133" y="135.987482"/>
     <use style="fill-opacity:0;stroke:#000000;" x="309.559062" xlink:href="#m5bb067b133" y="154.330226"/>
     <use style="fill-opacity:0;stroke:#000000;" x="309.559062" xlink:href="#m5bb067b133" y="52.785482"/>
     <use style="fill-opacity:0;stroke:#000000;" x="309.559062" xlink:href="#m5bb067b133" y="157.168289"/>
     <use style="fill-opacity:0;stroke:#000000;" x="309.559062" xlink:href="#m5bb067b133" y="133.56514"/>
     <use style="fill-opacity:0;stroke:#000000;" x="309.559062" xlink:href="#m5bb067b133" y="124.902826"/>
     <use style="fill-opacity:0;stroke:#000000;" x="309.559062" xlink:href="#m5bb067b133" y="106.353577"/>
     <use style="fill-opacity:0;stroke:#000000;" x="309.559062" xlink:href="#m5bb067b133" y="143.827065"/>
     <use style="fill-opacity:0;stroke:#000000;" x="309.559062" xlink:href="#m5bb067b133" y="149.935249"/>
     <use style="fill-opacity:0;stroke:#000000;" x="309.559062" xlink:href="#m5bb067b133" y="95.700311"/>
     <use style="fill-opacity:0;stroke:#000000;" x="309.559062" xlink:href="#m5bb067b133" y="130.800282"/>
     <use style="fill-opacity:0;stroke:#000000;" x="309.559062" xlink:href="#m5bb067b133" y="156.830854"/>
     <use style="fill-opacity:0;stroke:#000000;" x="309.559062" xlink:href="#m5bb067b133" y="134.812422"/>
     <use style="fill-opacity:0;stroke:#000000;" x="309.559062" xlink:href="#m5bb067b133" y="145.982147"/>
     <use style="fill-opacity:0;stroke:#000000;" x="309.559062" xlink:href="#m5bb067b133" y="152.378546"/>
     <use style="fill-opacity:0;stroke:#000000;" x="309.559062" xlink:href="#m5bb067b133" y="113.465834"/>
     <use style="fill-opacity:0;stroke:#000000;" x="309.559062" xlink:href="#m5bb067b133" y="139.326467"/>
     <use style="fill-opacity:0;stroke:#000000;" x="309.559062" xlink:href="#m5bb067b133" y="143.031542"/>
     <use style="fill-opacity:0;stroke:#000000;" x="309.559062" xlink:href="#m5bb067b133" y="109.358214"/>
     <use style="fill-opacity:0;stroke:#000000;" x="309.559062" xlink:href="#m5bb067b133" y="144.950007"/>
     <use style="fill-opacity:0;stroke:#000000;" x="309.559062" xlink:href="#m5bb067b133" y="156.888111"/>
     <use style="fill-opacity:0;stroke:#000000;" x="309.559062" xlink:href="#m5bb067b133" y="130.442617"/>
     <use style="fill-opacity:0;stroke:#000000;" x="309.559062" xlink:href="#m5bb067b133" y="117.923142"/>
     <use style="fill-opacity:0;stroke:#000000;" x="309.559062" xlink:href="#m5bb067b133" y="118.719457"/>
     <use style="fill-opacity:0;stroke:#000000;" x="309.559062" xlink:href="#m5bb067b133" y="155.486046"/>
     <use style="fill-opacity:0;stroke:#000000;" x="309.559062" xlink:href="#m5bb067b133" y="153.468281"/>
     <use style="fill-opacity:0;stroke:#000000;" x="309.559062" xlink:href="#m5bb067b133" y="122.00414"/>
     <use style="fill-opacity:0;stroke:#000000;" x="309.559062" xlink:href="#m5bb067b133" y="132.165121"/>
     <use style="fill-opacity:0;stroke:#000000;" x="309.559062" xlink:href="#m5bb067b133" y="154.987764"/>
     <use style="fill-opacity:0;stroke:#000000;" x="309.559062" xlink:href="#m5bb067b133" y="95.881842"/>
    </g>
   </g>
   <g id="line2d_42">
    <path clip-path="url(#pfa5df21e29)" d="M 351.582552 238.972722 
L 379.598212 238.972722 
L 379.598212 205.815943 
L 351.582552 205.815943 
L 351.582552 238.972722 
" style="fill:none;stroke:#000000;stroke-linecap:square;"/>
   </g>
   <g id="line2d_43">
    <path clip-path="url(#pfa5df21e29)" d="M 365.590382 238.972722 
L 365.590382 288.484409 
" style="fill:none;stroke:#000000;stroke-linecap:square;"/>
   </g>
   <g id="line2d_44">
    <path clip-path="url(#pfa5df21e29)" d="M 365.590382 205.815943 
L 365.590382 156.311286 
" style="fill:none;stroke:#000000;stroke-linecap:square;"/>
   </g>
   <g id="line2d_45">
    <path clip-path="url(#pfa5df21e29)" d="M 358.586467 288.484409 
L 372.594297 288.484409 
" style="fill:none;stroke:#000000;stroke-linecap:square;"/>
   </g>
   <g id="line2d_46">
    <path clip-path="url(#pfa5df21e29)" d="M 358.586467 156.311286 
L 372.594297 156.311286 
" style="fill:none;stroke:#000000;stroke-linecap:square;"/>
   </g>
   <g id="line2d_47">
    <g clip-path="url(#pfa5df21e29)">
     <use style="fill-opacity:0;stroke:#000000;" x="365.590382" xlink:href="#m5bb067b133" y="295.666989"/>
     <use style="fill-opacity:0;stroke:#000000;" x="365.590382" xlink:href="#m5bb067b133" y="297.945201"/>
     <use style="fill-opacity:0;stroke:#000000;" x="365.590382" xlink:href="#m5bb067b133" y="302.856197"/>
     <use style="fill-opacity:0;stroke:#000000;" x="365.590382" xlink:href="#m5bb067b133" y="290.499747"/>
     <use style="fill-opacity:0;stroke:#000000;" x="365.590382" xlink:href="#m5bb067b133" y="302.95329"/>
     <use style="fill-opacity:0;stroke:#000000;" x="365.590382" xlink:href="#m5bb067b133" y="368.402489"/>
     <use style="fill-opacity:0;stroke:#000000;" x="365.590382" xlink:href="#m5bb067b133" y="340.967499"/>
     <use style="fill-opacity:0;stroke:#000000;" x="365.590382" xlink:href="#m5bb067b133" y="310.232238"/>
     <use style="fill-opacity:0;stroke:#000000;" x="365.590382" xlink:href="#m5bb067b133" y="289.933869"/>
     <use style="fill-opacity:0;stroke:#000000;" x="365.590382" xlink:href="#m5bb067b133" y="309.135963"/>
     <use style="fill-opacity:0;stroke:#000000;" x="365.590382" xlink:href="#m5bb067b133" y="336.819654"/>
     <use style="fill-opacity:0;stroke:#000000;" x="365.590382" xlink:href="#m5bb067b133" y="322.731747"/>
     <use style="fill-opacity:0;stroke:#000000;" x="365.590382" xlink:href="#m5bb067b133" y="306.788189"/>
     <use style="fill-opacity:0;stroke:#000000;" x="365.590382" xlink:href="#m5bb067b133" y="288.820334"/>
     <use style="fill-opacity:0;stroke:#000000;" x="365.590382" xlink:href="#m5bb067b133" y="296.984294"/>
     <use style="fill-opacity:0;stroke:#000000;" x="365.590382" xlink:href="#m5bb067b133" y="296.989719"/>
     <use style="fill-opacity:0;stroke:#000000;" x="365.590382" xlink:href="#m5bb067b133" y="316.67021"/>
     <use style="fill-opacity:0;stroke:#000000;" x="365.590382" xlink:href="#m5bb067b133" y="289.025152"/>
     <use style="fill-opacity:0;stroke:#000000;" x="365.590382" xlink:href="#m5bb067b133" y="320.785456"/>
     <use style="fill-opacity:0;stroke:#000000;" x="365.590382" xlink:href="#m5bb067b133" y="300.000383"/>
     <use style="fill-opacity:0;stroke:#000000;" x="365.590382" xlink:href="#m5bb067b133" y="296.866113"/>
     <use style="fill-opacity:0;stroke:#000000;" x="365.590382" xlink:href="#m5bb067b133" y="304.709406"/>
     <use style="fill-opacity:0;stroke:#000000;" x="365.590382" xlink:href="#m5bb067b133" y="309.796594"/>
     <use style="fill-opacity:0;stroke:#000000;" x="365.590382" xlink:href="#m5bb067b133" y="296.148957"/>
     <use style="fill-opacity:0;stroke:#000000;" x="365.590382" xlink:href="#m5bb067b133" y="294.523656"/>
     <use style="fill-opacity:0;stroke:#000000;" x="365.590382" xlink:href="#m5bb067b133" y="299.513905"/>
     <use style="fill-opacity:0;stroke:#000000;" x="365.590382" xlink:href="#m5bb067b133" y="320.154021"/>
     <use style="fill-opacity:0;stroke:#000000;" x="365.590382" xlink:href="#m5bb067b133" y="308.392873"/>
     <use style="fill-opacity:0;stroke:#000000;" x="365.590382" xlink:href="#m5bb067b133" y="308.444081"/>
     <use style="fill-opacity:0;stroke:#000000;" x="365.590382" xlink:href="#m5bb067b133" y="298.801112"/>
     <use style="fill-opacity:0;stroke:#000000;" x="365.590382" xlink:href="#m5bb067b133" y="295.378841"/>
     <use style="fill-opacity:0;stroke:#000000;" x="365.590382" xlink:href="#m5bb067b133" y="306.798821"/>
     <use style="fill-opacity:0;stroke:#000000;" x="365.590382" xlink:href="#m5bb067b133" y="298.718515"/>
     <use style="fill-opacity:0;stroke:#000000;" x="365.590382" xlink:href="#m5bb067b133" y="304.556082"/>
     <use style="fill-opacity:0;stroke:#000000;" x="365.590382" xlink:href="#m5bb067b133" y="297.666886"/>
     <use style="fill-opacity:0;stroke:#000000;" x="365.590382" xlink:href="#m5bb067b133" y="145.429651"/>
     <use style="fill-opacity:0;stroke:#000000;" x="365.590382" xlink:href="#m5bb067b133" y="139.285986"/>
     <use style="fill-opacity:0;stroke:#000000;" x="365.590382" xlink:href="#m5bb067b133" y="95.54962"/>
     <use style="fill-opacity:0;stroke:#000000;" x="365.590382" xlink:href="#m5bb067b133" y="107.203776"/>
     <use style="fill-opacity:0;stroke:#000000;" x="365.590382" xlink:href="#m5bb067b133" y="154.677032"/>
     <use style="fill-opacity:0;stroke:#000000;" x="365.590382" xlink:href="#m5bb067b133" y="147.248984"/>
     <use style="fill-opacity:0;stroke:#000000;" x="365.590382" xlink:href="#m5bb067b133" y="145.5762"/>
     <use style="fill-opacity:0;stroke:#000000;" x="365.590382" xlink:href="#m5bb067b133" y="140.519535"/>
     <use style="fill-opacity:0;stroke:#000000;" x="365.590382" xlink:href="#m5bb067b133" y="135.413979"/>
     <use style="fill-opacity:0;stroke:#000000;" x="365.590382" xlink:href="#m5bb067b133" y="147.698463"/>
     <use style="fill-opacity:0;stroke:#000000;" x="365.590382" xlink:href="#m5bb067b133" y="148.550957"/>
     <use style="fill-opacity:0;stroke:#000000;" x="365.590382" xlink:href="#m5bb067b133" y="151.935571"/>
     <use style="fill-opacity:0;stroke:#000000;" x="365.590382" xlink:href="#m5bb067b133" y="131.673988"/>
     <use style="fill-opacity:0;stroke:#000000;" x="365.590382" xlink:href="#m5bb067b133" y="150.511964"/>
     <use style="fill-opacity:0;stroke:#000000;" x="365.590382" xlink:href="#m5bb067b133" y="115.498454"/>
     <use style="fill-opacity:0;stroke:#000000;" x="365.590382" xlink:href="#m5bb067b133" y="153.143075"/>
     <use style="fill-opacity:0;stroke:#000000;" x="365.590382" xlink:href="#m5bb067b133" y="154.667999"/>
     <use style="fill-opacity:0;stroke:#000000;" x="365.590382" xlink:href="#m5bb067b133" y="153.332958"/>
     <use style="fill-opacity:0;stroke:#000000;" x="365.590382" xlink:href="#m5bb067b133" y="152.117593"/>
     <use style="fill-opacity:0;stroke:#000000;" x="365.590382" xlink:href="#m5bb067b133" y="141.832205"/>
     <use style="fill-opacity:0;stroke:#000000;" x="365.590382" xlink:href="#m5bb067b133" y="141.850998"/>
     <use style="fill-opacity:0;stroke:#000000;" x="365.590382" xlink:href="#m5bb067b133" y="143.704052"/>
     <use style="fill-opacity:0;stroke:#000000;" x="365.590382" xlink:href="#m5bb067b133" y="133.721522"/>
     <use style="fill-opacity:0;stroke:#000000;" x="365.590382" xlink:href="#m5bb067b133" y="154.749577"/>
     <use style="fill-opacity:0;stroke:#000000;" x="365.590382" xlink:href="#m5bb067b133" y="155.148141"/>
     <use style="fill-opacity:0;stroke:#000000;" x="365.590382" xlink:href="#m5bb067b133" y="131.243661"/>
     <use style="fill-opacity:0;stroke:#000000;" x="365.590382" xlink:href="#m5bb067b133" y="130.047814"/>
     <use style="fill-opacity:0;stroke:#000000;" x="365.590382" xlink:href="#m5bb067b133" y="146.782531"/>
     <use style="fill-opacity:0;stroke:#000000;" x="365.590382" xlink:href="#m5bb067b133" y="126.934155"/>
     <use style="fill-opacity:0;stroke:#000000;" x="365.590382" xlink:href="#m5bb067b133" y="147.025594"/>
     <use style="fill-opacity:0;stroke:#000000;" x="365.590382" xlink:href="#m5bb067b133" y="142.385626"/>
     <use style="fill-opacity:0;stroke:#000000;" x="365.590382" xlink:href="#m5bb067b133" y="150.610223"/>
     <use style="fill-opacity:0;stroke:#000000;" x="365.590382" xlink:href="#m5bb067b133" y="127.953662"/>
     <use style="fill-opacity:0;stroke:#000000;" x="365.590382" xlink:href="#m5bb067b133" y="147.384755"/>
    </g>
   </g>
   <g id="line2d_48">
    <path clip-path="url(#pfa5df21e29)" d="M 407.613872 224.717115 
L 435.629531 224.717115 
L 435.629531 198.624797 
L 407.613872 198.624797 
L 407.613872 224.717115 
" style="fill:none;stroke:#000000;stroke-linecap:square;"/>
   </g>
   <g id="line2d_49">
    <path clip-path="url(#pfa5df21e29)" d="M 421.621701 224.717115 
L 421.621701 252.412461 
" style="fill:none;stroke:#000000;stroke-linecap:square;"/>
   </g>
   <g id="line2d_50">
    <path clip-path="url(#pfa5df21e29)" d="M 421.621701 198.624797 
L 421.621701 160.58607 
" style="fill:none;stroke:#000000;stroke-linecap:square;"/>
   </g>
   <g id="line2d_51">
    <path clip-path="url(#pfa5df21e29)" d="M 414.617786 252.412461 
L 428.625616 252.412461 
" style="fill:none;stroke:#000000;stroke-linecap:square;"/>
   </g>
   <g id="line2d_52">
    <path clip-path="url(#pfa5df21e29)" d="M 414.617786 160.58607 
L 428.625616 160.58607 
" style="fill:none;stroke:#000000;stroke-linecap:square;"/>
   </g>
   <g id="line2d_53">
    <g clip-path="url(#pfa5df21e29)">
     <use style="fill-opacity:0;stroke:#000000;" x="421.621701" xlink:href="#m5bb067b133" y="69.734923"/>
     <use style="fill-opacity:0;stroke:#000000;" x="421.621701" xlink:href="#m5bb067b133" y="144.433893"/>
     <use style="fill-opacity:0;stroke:#000000;" x="421.621701" xlink:href="#m5bb067b133" y="153.591073"/>
     <use style="fill-opacity:0;stroke:#000000;" x="421.621701" xlink:href="#m5bb067b133" y="138.426057"/>
     <use style="fill-opacity:0;stroke:#000000;" x="421.621701" xlink:href="#m5bb067b133" y="112.783851"/>
     <use style="fill-opacity:0;stroke:#000000;" x="421.621701" xlink:href="#m5bb067b133" y="143.796291"/>
     <use style="fill-opacity:0;stroke:#000000;" x="421.621701" xlink:href="#m5bb067b133" y="149.77845"/>
     <use style="fill-opacity:0;stroke:#000000;" x="421.621701" xlink:href="#m5bb067b133" y="152.832747"/>
     <use style="fill-opacity:0;stroke:#000000;" x="421.621701" xlink:href="#m5bb067b133" y="126.530348"/>
     <use style="fill-opacity:0;stroke:#000000;" x="421.621701" xlink:href="#m5bb067b133" y="126.528127"/>
     <use style="fill-opacity:0;stroke:#000000;" x="421.621701" xlink:href="#m5bb067b133" y="140.339932"/>
     <use style="fill-opacity:0;stroke:#000000;" x="421.621701" xlink:href="#m5bb067b133" y="146.094235"/>
    </g>
   </g>
   <g id="line2d_54">
    <path clip-path="url(#pfa5df21e29)" d="M 463.645191 225.233909 
L 491.660851 225.233909 
L 491.660851 188.134165 
L 463.645191 188.134165 
L 463.645191 225.233909 
" style="fill:none;stroke:#000000;stroke-linecap:square;"/>
   </g>
   <g id="line2d_55">
    <path clip-path="url(#pfa5df21e29)" d="M 477.653021 225.233909 
L 477.653021 257.061434 
" style="fill:none;stroke:#000000;stroke-linecap:square;"/>
   </g>
   <g id="line2d_56">
    <path clip-path="url(#pfa5df21e29)" d="M 477.653021 188.134165 
L 477.653021 141.365481 
" style="fill:none;stroke:#000000;stroke-linecap:square;"/>
   </g>
   <g id="line2d_57">
    <path clip-path="url(#pfa5df21e29)" d="M 470.649106 257.061434 
L 484.656936 257.061434 
" style="fill:none;stroke:#000000;stroke-linecap:square;"/>
   </g>
   <g id="line2d_58">
    <path clip-path="url(#pfa5df21e29)" d="M 470.649106 141.365481 
L 484.656936 141.365481 
" style="fill:none;stroke:#000000;stroke-linecap:square;"/>
   </g>
   <g id="line2d_59">
    <g clip-path="url(#pfa5df21e29)">
     <use style="fill-opacity:0;stroke:#000000;" x="477.653021" xlink:href="#m5bb067b133" y="122.66898"/>
     <use style="fill-opacity:0;stroke:#000000;" x="477.653021" xlink:href="#m5bb067b133" y="66.271408"/>
    </g>
   </g>
   <g id="line2d_60">
    <path clip-path="url(#pfa5df21e29)" d="M 519.67651 225.540857 
L 547.69217 225.540857 
L 547.69217 189.336671 
L 519.67651 189.336671 
L 519.67651 225.540857 
" style="fill:none;stroke:#000000;stroke-linecap:square;"/>
   </g>
   <g id="line2d_61">
    <path clip-path="url(#pfa5df21e29)" d="M 533.68434 225.540857 
L 533.68434 259.119571 
" style="fill:none;stroke:#000000;stroke-linecap:square;"/>
   </g>
   <g id="line2d_62">
    <path clip-path="url(#pfa5df21e29)" d="M 533.68434 189.336671 
L 533.68434 138.587366 
" style="fill:none;stroke:#000000;stroke-linecap:square;"/>
   </g>
   <g id="line2d_63">
    <path clip-path="url(#pfa5df21e29)" d="M 526.680425 259.119571 
L 540.688255 259.119571 
" style="fill:none;stroke:#000000;stroke-linecap:square;"/>
   </g>
   <g id="line2d_64">
    <path clip-path="url(#pfa5df21e29)" d="M 526.680425 138.587366 
L 540.688255 138.587366 
" style="fill:none;stroke:#000000;stroke-linecap:square;"/>
   </g>
   <g id="line2d_65">
    <g clip-path="url(#pfa5df21e29)">
     <use style="fill-opacity:0;stroke:#000000;" x="533.68434" xlink:href="#m5bb067b133" y="127.481893"/>
     <use style="fill-opacity:0;stroke:#000000;" x="533.68434" xlink:href="#m5bb067b133" y="127.052042"/>
     <use style="fill-opacity:0;stroke:#000000;" x="533.68434" xlink:href="#m5bb067b133" y="81.947816"/>
    </g>
   </g>
   <g id="line2d_66">
    <path clip-path="url(#pfa5df21e29)" d="M 57.418125 221.752324 
L 561.7 221.752324 
" style="fill:none;stroke:#000000;stroke-dasharray:5.55,2.4;stroke-dashoffset:0;stroke-width:1.5;"/>
   </g>
   <g id="line2d_67">
    <path clip-path="url(#pfa5df21e29)" d="M 71.425955 228.881005 
L 99.441615 228.881005 
" style="fill:none;stroke:#ff7f0e;stroke-linecap:square;"/>
   </g>
   <g id="line2d_68">
    <path clip-path="url(#pfa5df21e29)" d="M 127.457274 230.684343 
L 155.472934 230.684343 
" style="fill:none;stroke:#ff7f0e;stroke-linecap:square;"/>
   </g>
   <g id="line2d_69">
    <path clip-path="url(#pfa5df21e29)" d="M 183.488594 232.634765 
L 211.504253 232.634765 
" style="fill:none;stroke:#ff7f0e;stroke-linecap:square;"/>
   </g>
   <g id="line2d_70">
    <path clip-path="url(#pfa5df21e29)" d="M 239.519913 220.747168 
L 267.535573 220.747168 
" style="fill:none;stroke:#ff7f0e;stroke-linecap:square;"/>
   </g>
   <g id="line2d_71">
    <path clip-path="url(#pfa5df21e29)" d="M 295.551233 221.804511 
L 323.566892 221.804511 
" style="fill:none;stroke:#ff7f0e;stroke-linecap:square;"/>
   </g>
   <g id="line2d_72">
    <path clip-path="url(#pfa5df21e29)" d="M 351.582552 222.720262 
L 379.598212 222.720262 
" style="fill:none;stroke:#ff7f0e;stroke-linecap:square;"/>
   </g>
   <g id="line2d_73">
    <path clip-path="url(#pfa5df21e29)" d="M 407.613872 212.240373 
L 435.629531 212.240373 
" style="fill:none;stroke:#ff7f0e;stroke-linecap:square;"/>
   </g>
   <g id="line2d_74">
    <path clip-path="url(#pfa5df21e29)" d="M 463.645191 213.295143 
L 491.660851 213.295143 
" style="fill:none;stroke:#ff7f0e;stroke-linecap:square;"/>
   </g>
   <g id="line2d_75">
    <path clip-path="url(#pfa5df21e29)" d="M 519.67651 206.869979 
L 547.69217 206.869979 
" style="fill:none;stroke:#ff7f0e;stroke-linecap:square;"/>
   </g>
   <g id="patch_3">
    <path d="M 57.418125 526.12625 
L 57.418125 14.3 
" style="fill:none;stroke:#000000;stroke-linecap:square;stroke-linejoin:miter;stroke-width:0.8;"/>
   </g>
   <g id="patch_4">
    <path d="M 561.7 526.12625 
L 561.7 14.3 
" style="fill:none;stroke:#000000;stroke-linecap:square;stroke-linejoin:miter;stroke-width:0.8;"/>
   </g>
   <g id="patch_5">
    <path d="M 57.418125 526.12625 
L 561.7 526.12625 
" style="fill:none;stroke:#000000;stroke-linecap:square;stroke-linejoin:miter;stroke-width:0.8;"/>
   </g>
   <g id="patch_6">
    <path d="M 57.418125 14.3 
L 561.7 14.3 
" style="fill:none;stroke:#000000;stroke-linecap:square;stroke-linejoin:miter;stroke-width:0.8;"/>
   </g>
  </g>
 </g>
 <defs>
  <clipPath id="pfa5df21e29">
   <rect height="511.82625" width="504.281875" x="57.418125" y="14.3"/>
  </clipPath>
 </defs>
</svg>
