<?xml version="1.0" encoding="utf-8" standalone="no"?>
<!DOCTYPE svg PUBLIC "-//W3C//DTD SVG 1.1//EN"
  "http://www.w3.org/Graphics/SVG/1.1/DTD/svg11.dtd">
<!-- Created with matplotlib (https://matplotlib.org/) -->
<svg height="360pt" version="1.1" viewBox="0 0 360 360" width="360pt" xmlns="http://www.w3.org/2000/svg" xmlns:xlink="http://www.w3.org/1999/xlink">
 <defs>
  <style type="text/css">
*{stroke-linecap:butt;stroke-linejoin:round;}
  </style>
 </defs>
 <g id="figure_1">
  <g id="patch_1">
   <path d="M 0 360 
L 360 360 
L 360 0 
L 0 0 
z
" style="fill:#ffffff;"/>
  </g>
  <g id="axes_1">
   <g id="patch_2">
    <path d="M 57.418125 310.12625 
L 345.7 310.12625 
L 345.7 39.3555 
L 57.418125 39.3555 
z
" style="fill:#ffffff;"/>
   </g>
   <g id="PolyCollection_1">
    <defs>
     <path d="M 106.447425 25.287963 
L 104.482784 25.287963 
L 104.486241 22.837345 
L 104.500926 20.386727 
L 104.525833 17.936109 
L 104.559476 15.485491 
L 104.599951 13.034873 
L 104.645021 10.584254 
L 104.692221 8.133636 
L 104.73896 5.683018 
L 104.782632 3.2324 
L 104.820719 0.781782 
L 104.850872 -1.668836 
L 104.870985 -4.119454 
L 104.87924 -6.570072 
L 104.874134 -9.02069 
L 104.854472 -11.471308 
L 104.819352 -13.921927 
L 104.768113 -16.372545 
L 104.700276 -18.823163 
L 104.615463 -21.273781 
L 104.513312 -23.724399 
L 104.393387 -26.175017 
L 104.255088 -28.625635 
L 104.097578 -31.076253 
L 103.919728 -33.526871 
L 103.720086 -35.977489 
L 103.496885 -38.428107 
L 103.248077 -40.878726 
L 102.971419 -43.329344 
L 102.664585 -45.779962 
L 102.32532 -48.23058 
L 101.951607 -50.681198 
L 101.541865 -53.131816 
L 101.095132 -55.582434 
L 100.611252 -58.033052 
L 100.091035 -60.48367 
L 99.536378 -62.934288 
L 98.950351 -65.384906 
L 98.337222 -67.835525 
L 97.702432 -70.286143 
L 97.052503 -72.736761 
L 96.394887 -75.187379 
L 95.737756 -77.637997 
L 95.089735 -80.088615 
L 94.459585 -82.539233 
L 93.855854 -84.989851 
L 93.286503 -87.440469 
L 92.758525 -89.891087 
L 92.27759 -92.341706 
L 91.847718 -94.792324 
L 91.47102 -97.242942 
L 91.147529 -99.69356 
L 90.875114 -102.144178 
L 90.649523 -104.594796 
L 90.464525 -107.045414 
L 90.312162 -109.496032 
L 90.183094 -111.94665 
L 90.067006 -114.397268 
L 89.953065 -116.847886 
L 89.830387 -119.298505 
L 89.688487 -121.749123 
L 89.51771 -124.199741 
L 89.309596 -126.650359 
L 89.057204 -129.100977 
L 88.755376 -131.551595 
L 88.400946 -134.002213 
L 87.992912 -136.452831 
L 87.532573 -138.903449 
L 87.023622 -141.354067 
L 86.472214 -143.804685 
L 85.886977 -146.255304 
L 85.278968 -148.705922 
L 84.66154 -151.15654 
L 84.0501 -153.607158 
L 83.461757 -156.057776 
L 82.914829 -158.508394 
L 82.428227 -160.959012 
L 82.020728 -163.40963 
L 81.710174 -165.860248 
L 81.512638 -168.310866 
L 81.441615 -170.761484 
L 81.507296 -173.212103 
L 81.715997 -175.662721 
L 82.069765 -178.113339 
L 82.566235 -180.563957 
L 83.198717 -183.014575 
L 83.956545 -185.465193 
L 84.825628 -187.915811 
L 85.789193 -190.366429 
L 86.828636 -192.817047 
L 87.924426 -195.267665 
L 89.056995 -197.718284 
L 90.207542 -200.168902 
L 91.358717 -202.61952 
L 92.495126 -205.070138 
L 93.603665 -207.520756 
L 94.673664 -209.971374 
L 95.696866 -212.421992 
L 96.667275 -214.87261 
L 97.580898 -217.323228 
L 113.349311 -217.323228 
L 113.349311 -217.323228 
L 114.262934 -214.87261 
L 115.233343 -212.421992 
L 116.256545 -209.971374 
L 117.326543 -207.520756 
L 118.435082 -205.070138 
L 119.571491 -202.61952 
L 120.722666 -200.168902 
L 121.873213 -197.718284 
L 123.005782 -195.267665 
L 124.101572 -192.817047 
L 125.141015 -190.366429 
L 126.10458 -187.915811 
L 126.973663 -185.465193 
L 127.731491 -183.014575 
L 128.363974 -180.563957 
L 128.860443 -178.113339 
L 129.214212 -175.662721 
L 129.422912 -173.212103 
L 129.488594 -170.761484 
L 129.41757 -168.310866 
L 129.220034 -165.860248 
L 128.909481 -163.40963 
L 128.501981 -160.959012 
L 128.015379 -158.508394 
L 127.468451 -156.057776 
L 126.880108 -153.607158 
L 126.268669 -151.15654 
L 125.65124 -148.705922 
L 125.043232 -146.255304 
L 124.457995 -143.804685 
L 123.906586 -141.354067 
L 123.397635 -138.903449 
L 122.937296 -136.452831 
L 122.529263 -134.002213 
L 122.174833 -131.551595 
L 121.873004 -129.100977 
L 121.620613 -126.650359 
L 121.412499 -124.199741 
L 121.241721 -121.749123 
L 121.099822 -119.298505 
L 120.977143 -116.847886 
L 120.863203 -114.397268 
L 120.747115 -111.94665 
L 120.618046 -109.496032 
L 120.465683 -107.045414 
L 120.280685 -104.594796 
L 120.055094 -102.144178 
L 119.78268 -99.69356 
L 119.459188 -97.242942 
L 119.082491 -94.792324 
L 118.652618 -92.341706 
L 118.171683 -89.891087 
L 117.643706 -87.440469 
L 117.074354 -84.989851 
L 116.470623 -82.539233 
L 115.840473 -80.088615 
L 115.192452 -77.637997 
L 114.535322 -75.187379 
L 113.877706 -72.736761 
L 113.227777 -70.286143 
L 112.592986 -67.835525 
L 111.979857 -65.384906 
L 111.39383 -62.934288 
L 110.839173 -60.48367 
L 110.318956 -58.033052 
L 109.835077 -55.582434 
L 109.388344 -53.131816 
L 108.978601 -50.681198 
L 108.604889 -48.23058 
L 108.265623 -45.779962 
L 107.95879 -43.329344 
L 107.682131 -40.878726 
L 107.433323 -38.428107 
L 107.210122 -35.977489 
L 107.010481 -33.526871 
L 106.83263 -31.076253 
L 106.67512 -28.625635 
L 106.536821 -26.175017 
L 106.416896 -23.724399 
L 106.314746 -21.273781 
L 106.229933 -18.823163 
L 106.162095 -16.372545 
L 106.110856 -13.921927 
L 106.075736 -11.471308 
L 106.056075 -9.02069 
L 106.050968 -6.570072 
L 106.059224 -4.119454 
L 106.079337 -1.668836 
L 106.10949 0.781782 
L 106.147576 3.2324 
L 106.191248 5.683018 
L 106.237987 8.133636 
L 106.285187 10.584254 
L 106.330258 13.034873 
L 106.370733 15.485491 
L 106.404376 17.936109 
L 106.429283 20.386727 
L 106.443967 22.837345 
L 106.447425 25.287963 
z
" id="m84519607a0" style="stroke:#000000;"/>
    </defs>
    <g clip-path="url(#p608ffb038d)">
     <use style="fill:#440154;stroke:#000000;" x="0" xlink:href="#m84519607a0" y="360"/>
    </g>
   </g>
   <g id="PolyCollection_2">
    <defs>
     <path d="M 201.655584 -71.869815 
L 201.462541 -71.869815 
L 201.471787 -74.448999 
L 201.494542 -77.028184 
L 201.520064 -79.607368 
L 201.53979 -82.186552 
L 201.551272 -84.765737 
L 201.556461 -87.344921 
L 201.558204 -89.924105 
L 201.558173 -92.50329 
L 201.556329 -95.082474 
L 201.550908 -97.661658 
L 201.5389 -100.240843 
L 201.517853 -102.820027 
L 201.488497 -105.399211 
L 201.454832 -107.978396 
L 201.419277 -110.55758 
L 201.37804 -113.136764 
L 201.325957 -115.715949 
L 201.268567 -118.295133 
L 201.223945 -120.874317 
L 201.205465 -123.453502 
L 201.204106 -126.032686 
L 201.194405 -128.61187 
L 201.15893 -131.191055 
L 201.102952 -133.770239 
L 201.045023 -136.349423 
L 200.997777 -138.928608 
L 200.95908 -141.507792 
L 200.914495 -144.086976 
L 200.839463 -146.666161 
L 200.702144 -149.245345 
L 200.479084 -151.824529 
L 200.175268 -154.403713 
L 199.815012 -156.982898 
L 199.391723 -159.562082 
L 198.816985 -162.141266 
L 197.922262 -164.720451 
L 196.519157 -167.299635 
L 194.471718 -169.878819 
L 191.737735 -172.458004 
L 188.39565 -175.037188 
L 184.707433 -177.616372 
L 181.193107 -180.195557 
L 178.580535 -182.774741 
L 177.535573 -185.353925 
L 178.305813 -187.93311 
L 180.570938 -190.512294 
L 183.644436 -193.091478 
L 186.85219 -195.670663 
L 189.786505 -198.249847 
L 192.307253 -200.829031 
L 194.398107 -203.408216 
L 196.054743 -205.9874 
L 197.278344 -208.566584 
L 198.117972 -211.145769 
L 198.678862 -213.724953 
L 199.081485 -216.304137 
L 199.414543 -218.883322 
L 199.720168 -221.462506 
L 200.010037 -224.04169 
L 200.283327 -226.620875 
L 200.527533 -229.200059 
L 200.715652 -231.779243 
L 200.8218 -234.358428 
L 200.849028 -236.937612 
L 200.839177 -239.516796 
L 200.848365 -242.095981 
L 200.907286 -244.675165 
L 201.003639 -247.254349 
L 201.102337 -249.833534 
L 201.179247 -252.412718 
L 201.233814 -254.991902 
L 201.276205 -257.571087 
L 201.311859 -260.150271 
L 201.339243 -262.729455 
L 201.355777 -265.30864 
L 201.361608 -267.887824 
L 201.359417 -270.467008 
L 201.354245 -273.046193 
L 201.354062 -275.625377 
L 201.367542 -278.204561 
L 201.398353 -280.783746 
L 201.441314 -283.36293 
L 201.485182 -285.942114 
L 201.51989 -288.521299 
L 201.541677 -291.100483 
L 201.552648 -293.679667 
L 201.557104 -296.258852 
L 201.558569 -298.838036 
L 201.558956 -301.41722 
L 201.559018 -303.996405 
L 201.558907 -306.575589 
L 201.558368 -309.154773 
L 201.55649 -311.733958 
L 201.551276 -314.313142 
L 201.539791 -316.892326 
L 201.520065 -319.471511 
L 201.494542 -322.050695 
L 201.471787 -324.629879 
L 201.462541 -327.209064 
L 201.655584 -327.209064 
L 201.655584 -327.209064 
L 201.646338 -324.629879 
L 201.623583 -322.050695 
L 201.59806 -319.471511 
L 201.578334 -316.892326 
L 201.566849 -314.313142 
L 201.561635 -311.733958 
L 201.559757 -309.154773 
L 201.559218 -306.575589 
L 201.559107 -303.996405 
L 201.559169 -301.41722 
L 201.559556 -298.838036 
L 201.561021 -296.258852 
L 201.565477 -293.679667 
L 201.576448 -291.100483 
L 201.598235 -288.521299 
L 201.632943 -285.942114 
L 201.676811 -283.36293 
L 201.719772 -280.783746 
L 201.750583 -278.204561 
L 201.764063 -275.625377 
L 201.76388 -273.046193 
L 201.758708 -270.467008 
L 201.756517 -267.887824 
L 201.762348 -265.30864 
L 201.778882 -262.729455 
L 201.806266 -260.150271 
L 201.84192 -257.571087 
L 201.884311 -254.991902 
L 201.938878 -252.412718 
L 202.015788 -249.833534 
L 202.114486 -247.254349 
L 202.210839 -244.675165 
L 202.26976 -242.095981 
L 202.278948 -239.516796 
L 202.269097 -236.937612 
L 202.296325 -234.358428 
L 202.402473 -231.779243 
L 202.590592 -229.200059 
L 202.834798 -226.620875 
L 203.108088 -224.04169 
L 203.397957 -221.462506 
L 203.703582 -218.883322 
L 204.03664 -216.304137 
L 204.439263 -213.724953 
L 205.000153 -211.145769 
L 205.839781 -208.566584 
L 207.063382 -205.9874 
L 208.720018 -203.408216 
L 210.810872 -200.829031 
L 213.33162 -198.249847 
L 216.265935 -195.670663 
L 219.473689 -193.091478 
L 222.547187 -190.512294 
L 224.812312 -187.93311 
L 225.582552 -185.353925 
L 224.53759 -182.774741 
L 221.925018 -180.195557 
L 218.410692 -177.616372 
L 214.722475 -175.037188 
L 211.38039 -172.458004 
L 208.646407 -169.878819 
L 206.598968 -167.299635 
L 205.195863 -164.720451 
L 204.30114 -162.141266 
L 203.726402 -159.562082 
L 203.303113 -156.982898 
L 202.942857 -154.403713 
L 202.639041 -151.824529 
L 202.415981 -149.245345 
L 202.278662 -146.666161 
L 202.20363 -144.086976 
L 202.159045 -141.507792 
L 202.120348 -138.928608 
L 202.073102 -136.349423 
L 202.015173 -133.770239 
L 201.959195 -131.191055 
L 201.92372 -128.61187 
L 201.914019 -126.032686 
L 201.91266 -123.453502 
L 201.89418 -120.874317 
L 201.849558 -118.295133 
L 201.792168 -115.715949 
L 201.740085 -113.136764 
L 201.698848 -110.55758 
L 201.663293 -107.978396 
L 201.629628 -105.399211 
L 201.600272 -102.820027 
L 201.579225 -100.240843 
L 201.567217 -97.661658 
L 201.561796 -95.082474 
L 201.559952 -92.50329 
L 201.559921 -89.924105 
L 201.561664 -87.344921 
L 201.566853 -84.765737 
L 201.578335 -82.186552 
L 201.598061 -79.607368 
L 201.623583 -77.028184 
L 201.646338 -74.448999 
L 201.655584 -71.869815 
z
" id="m7625e15079" style="stroke:#000000;"/>
    </defs>
    <g clip-path="url(#p608ffb038d)">
     <use style="fill:#238a8d;stroke:#000000;" x="0" xlink:href="#m7625e15079" y="360"/>
    </g>
   </g>
   <g id="PolyCollection_3">
    <defs>
     <path d="M 310.9089 -166.95971 
L 284.397141 -166.95971 
L 283.321995 -168.826955 
L 282.260115 -170.694199 
L 281.223762 -172.561444 
L 280.224772 -174.428689 
L 279.274203 -176.295933 
L 278.382009 -178.163178 
L 277.556755 -180.030422 
L 276.805394 -181.897667 
L 276.133101 -183.764911 
L 275.543186 -185.632156 
L 275.037085 -187.499401 
L 274.614424 -189.366645 
L 274.273157 -191.23389 
L 274.009774 -193.101134 
L 273.819564 -194.968379 
L 273.696924 -196.835623 
L 273.635699 -198.702868 
L 273.629531 -200.570113 
L 273.672214 -202.437357 
L 273.758016 -204.304602 
L 273.881967 -206.171846 
L 274.040087 -208.039091 
L 274.229542 -209.906336 
L 274.448718 -211.77358 
L 274.697202 -213.640825 
L 274.975679 -215.508069 
L 275.28574 -217.375314 
L 275.629614 -219.242558 
L 276.009853 -221.109803 
L 276.428978 -222.977048 
L 276.889121 -224.844292 
L 277.391682 -226.711537 
L 277.937046 -228.578781 
L 278.524351 -230.446026 
L 279.151365 -232.31327 
L 279.814442 -234.180515 
L 280.508599 -236.04776 
L 281.227675 -237.915004 
L 281.964585 -239.782249 
L 282.711631 -241.649493 
L 283.460855 -243.516738 
L 284.204408 -245.383983 
L 284.934899 -247.251227 
L 285.645707 -249.118472 
L 286.331231 -250.985716 
L 286.987066 -252.852961 
L 287.610094 -254.720205 
L 288.198489 -256.58745 
L 288.751647 -258.454695 
L 289.270041 -260.321939 
L 289.755036 -262.189184 
L 290.208666 -264.056428 
L 290.633395 -265.923673 
L 291.031895 -267.790917 
L 291.406839 -269.658162 
L 291.760734 -271.525407 
L 292.0958 -273.392651 
L 292.413894 -275.259896 
L 292.716482 -277.12714 
L 293.004658 -278.994385 
L 293.27919 -280.86163 
L 293.54059 -282.728874 
L 293.7892 -284.596119 
L 294.025277 -286.463363 
L 294.249062 -288.330608 
L 294.460842 -290.197852 
L 294.660984 -292.065097 
L 294.849944 -293.932342 
L 295.028257 -295.799586 
L 295.196507 -297.666831 
L 295.35528 -299.534075 
L 295.505109 -301.40132 
L 295.646429 -303.268564 
L 295.779524 -305.135809 
L 295.904497 -307.003054 
L 296.021253 -308.870298 
L 296.1295 -310.737543 
L 296.228777 -312.604787 
L 296.318489 -314.472032 
L 296.397972 -316.339277 
L 296.466553 -318.206521 
L 296.523631 -320.073766 
L 296.568754 -321.94101 
L 296.601684 -323.808255 
L 296.622459 -325.675499 
L 296.631445 -327.542744 
L 296.629354 -329.409989 
L 296.617257 -331.277233 
L 296.59657 -333.144478 
L 296.569015 -335.011722 
L 296.536568 -336.878967 
L 296.501388 -338.746211 
L 296.46573 -340.613456 
L 296.43186 -342.480701 
L 296.401952 -344.347945 
L 296.378005 -346.21519 
L 296.361756 -348.082434 
L 296.354608 -349.949679 
L 296.357583 -351.816924 
L 298.948459 -351.816924 
L 298.948459 -351.816924 
L 298.951433 -349.949679 
L 298.944286 -348.082434 
L 298.928036 -346.21519 
L 298.90409 -344.347945 
L 298.874182 -342.480701 
L 298.840311 -340.613456 
L 298.804654 -338.746211 
L 298.769474 -336.878967 
L 298.737027 -335.011722 
L 298.709472 -333.144478 
L 298.688785 -331.277233 
L 298.676688 -329.409989 
L 298.674597 -327.542744 
L 298.683582 -325.675499 
L 298.704358 -323.808255 
L 298.737287 -321.94101 
L 298.78241 -320.073766 
L 298.839489 -318.206521 
L 298.90807 -316.339277 
L 298.987552 -314.472032 
L 299.077265 -312.604787 
L 299.176542 -310.737543 
L 299.284789 -308.870298 
L 299.401544 -307.003054 
L 299.526517 -305.135809 
L 299.659612 -303.268564 
L 299.800932 -301.40132 
L 299.950762 -299.534075 
L 300.109534 -297.666831 
L 300.277784 -295.799586 
L 300.456098 -293.932342 
L 300.645058 -292.065097 
L 300.845199 -290.197852 
L 301.05698 -288.330608 
L 301.280765 -286.463363 
L 301.516841 -284.596119 
L 301.765452 -282.728874 
L 302.026852 -280.86163 
L 302.301383 -278.994385 
L 302.58956 -277.12714 
L 302.892148 -275.259896 
L 303.210242 -273.392651 
L 303.545307 -271.525407 
L 303.899203 -269.658162 
L 304.274146 -267.790917 
L 304.672646 -265.923673 
L 305.097376 -264.056428 
L 305.551005 -262.189184 
L 306.036001 -260.321939 
L 306.554395 -258.454695 
L 307.107552 -256.58745 
L 307.695948 -254.720205 
L 308.318976 -252.852961 
L 308.974811 -250.985716 
L 309.660335 -249.118472 
L 310.371142 -247.251227 
L 311.101633 -245.383983 
L 311.845186 -243.516738 
L 312.594411 -241.649493 
L 313.341456 -239.782249 
L 314.078367 -237.915004 
L 314.797443 -236.04776 
L 315.4916 -234.180515 
L 316.154677 -232.31327 
L 316.78169 -230.446026 
L 317.368996 -228.578781 
L 317.914359 -226.711537 
L 318.416921 -224.844292 
L 318.877064 -222.977048 
L 319.296189 -221.109803 
L 319.676428 -219.242558 
L 320.020302 -217.375314 
L 320.330363 -215.508069 
L 320.60884 -213.640825 
L 320.857324 -211.77358 
L 321.0765 -209.906336 
L 321.265955 -208.039091 
L 321.424074 -206.171846 
L 321.548025 -204.304602 
L 321.633827 -202.437357 
L 321.67651 -200.570113 
L 321.670343 -198.702868 
L 321.609117 -196.835623 
L 321.486478 -194.968379 
L 321.296268 -193.101134 
L 321.032885 -191.23389 
L 320.691618 -189.366645 
L 320.268956 -187.499401 
L 319.762856 -185.632156 
L 319.172941 -183.764911 
L 318.500647 -181.897667 
L 317.749286 -180.030422 
L 316.924033 -178.163178 
L 316.031839 -176.295933 
L 315.08127 -174.428689 
L 314.08228 -172.561444 
L 313.045927 -170.694199 
L 311.984047 -168.826955 
L 310.9089 -166.95971 
z
" id="m072f18b8b5" style="stroke:#000000;"/>
    </defs>
    <g clip-path="url(#p608ffb038d)">
     <use style="fill:#fde725;stroke:#000000;" x="0" xlink:href="#m072f18b8b5" y="360"/>
    </g>
   </g>
   <g id="matplotlib.axis_1">
    <g id="xtick_1">
     <g id="line2d_1">
      <defs>
       <path d="M 0 0 
L 0 3.5 
" id="mc6369a19d8" style="stroke:#000000;stroke-width:0.8;"/>
      </defs>
      <g>
       <use style="stroke:#000000;stroke-width:0.8;" x="105.465104" xlink:href="#mc6369a19d8" y="310.12625"/>
      </g>
     </g>
     <g id="text_1">
      <text style="font-family:DejaVu Sans;font-size:10px;font-style:normal;font-weight:normal;" transform="translate(83.024479 324.724687)">Negative</text>
      <text style="font-family:DejaVu Sans;font-size:10px;font-style:normal;font-weight:normal;" transform="translate(64.139323 335.9225)">(Log.Skew&lt;-0.5,</text>
      <text style="font-family:DejaVu Sans;font-size:10px;font-style:normal;font-weight:normal;" transform="translate(85.017448 347.120313)">q&lt;0.05)</text>
     </g>
    </g>
    <g id="xtick_2">
     <g id="line2d_2">
      <g>
       <use style="stroke:#000000;stroke-width:0.8;" x="201.559062" xlink:href="#mc6369a19d8" y="310.12625"/>
      </g>
     </g>
     <g id="text_2">
      <text style="font-family:DejaVu Sans;font-size:10px;font-style:normal;font-weight:normal;" transform="translate(183.104375 324.724687)">Neutral</text>
      <text style="font-family:DejaVu Sans;font-size:10px;font-style:normal;font-weight:normal;" transform="translate(148.091875 335.9225)">(-0.2&lt;Log.Skew&lt;0.2,</text>
      <text style="font-family:DejaVu Sans;font-size:10px;font-style:normal;font-weight:normal;" transform="translate(181.111406 347.120313)">q&gt;0.05)</text>
     </g>
    </g>
    <g id="xtick_3">
     <g id="line2d_3">
      <g>
       <use style="stroke:#000000;stroke-width:0.8;" x="297.653021" xlink:href="#mc6369a19d8" y="310.12625"/>
      </g>
     </g>
     <g id="text_3">
      <text style="font-family:DejaVu Sans;font-size:10px;font-style:normal;font-weight:normal;" transform="translate(278.20224 324.724687)">Positive</text>
      <text style="font-family:DejaVu Sans;font-size:10px;font-style:normal;font-weight:normal;" transform="translate(258.131146 335.9225)">(Log.Skew&gt;0.5,</text>
      <text style="font-family:DejaVu Sans;font-size:10px;font-style:normal;font-weight:normal;" transform="translate(277.205365 347.120313)">q&lt;0.05)</text>
     </g>
    </g>
   </g>
   <g id="matplotlib.axis_2">
    <g id="ytick_1">
     <g id="line2d_4">
      <defs>
       <path d="M 0 0 
L -3.5 0 
" id="mea863247f2" style="stroke:#000000;stroke-width:0.8;"/>
      </defs>
      <g>
       <use style="stroke:#000000;stroke-width:0.8;" x="57.418125" xlink:href="#mea863247f2" y="310.12625"/>
      </g>
     </g>
     <g id="text_4">
      <text style="font-family:DejaVu Sans;font-size:10px;font-style:normal;font-weight:normal;text-anchor:end;" transform="rotate(-0, 50.418125, 313.925469)" x="50.418125" y="313.925469">−3</text>
     </g>
    </g>
    <g id="ytick_2">
     <g id="line2d_5">
      <g>
       <use style="stroke:#000000;stroke-width:0.8;" x="57.418125" xlink:href="#mea863247f2" y="264.997792"/>
      </g>
     </g>
     <g id="text_5">
      <text style="font-family:DejaVu Sans;font-size:10px;font-style:normal;font-weight:normal;text-anchor:end;" transform="rotate(-0, 50.418125, 268.79701)" x="50.418125" y="268.79701">−2</text>
     </g>
    </g>
    <g id="ytick_3">
     <g id="line2d_6">
      <g>
       <use style="stroke:#000000;stroke-width:0.8;" x="57.418125" xlink:href="#mea863247f2" y="219.869333"/>
      </g>
     </g>
     <g id="text_6">
      <text style="font-family:DejaVu Sans;font-size:10px;font-style:normal;font-weight:normal;text-anchor:end;" transform="rotate(-0, 50.418125, 223.668552)" x="50.418125" y="223.668552">−1</text>
     </g>
    </g>
    <g id="ytick_4">
     <g id="line2d_7">
      <g>
       <use style="stroke:#000000;stroke-width:0.8;" x="57.418125" xlink:href="#mea863247f2" y="174.740875"/>
      </g>
     </g>
     <g id="text_7">
      <text style="font-family:DejaVu Sans;font-size:10px;font-style:normal;font-weight:normal;text-anchor:end;" transform="rotate(-0, 50.418125, 178.540094)" x="50.418125" y="178.540094">0</text>
     </g>
    </g>
    <g id="ytick_5">
     <g id="line2d_8">
      <g>
       <use style="stroke:#000000;stroke-width:0.8;" x="57.418125" xlink:href="#mea863247f2" y="129.612417"/>
      </g>
     </g>
     <g id="text_8">
      <text style="font-family:DejaVu Sans;font-size:10px;font-style:normal;font-weight:normal;text-anchor:end;" transform="rotate(-0, 50.418125, 133.411635)" x="50.418125" y="133.411635">1</text>
     </g>
    </g>
    <g id="ytick_6">
     <g id="line2d_9">
      <g>
       <use style="stroke:#000000;stroke-width:0.8;" x="57.418125" xlink:href="#mea863247f2" y="84.483958"/>
      </g>
     </g>
     <g id="text_9">
      <text style="font-family:DejaVu Sans;font-size:10px;font-style:normal;font-weight:normal;text-anchor:end;" transform="rotate(-0, 50.418125, 88.283177)" x="50.418125" y="88.283177">2</text>
     </g>
    </g>
    <g id="ytick_7">
     <g id="line2d_10">
      <g>
       <use style="stroke:#000000;stroke-width:0.8;" x="57.418125" xlink:href="#mea863247f2" y="39.3555"/>
      </g>
     </g>
     <g id="text_10">
      <text style="font-family:DejaVu Sans;font-size:10px;font-style:normal;font-weight:normal;text-anchor:end;" transform="rotate(-0, 50.418125, 43.154719)" x="50.418125" y="43.154719">3</text>
     </g>
    </g>
    <g id="text_11">
     <text style="font-family:DejaVu Sans;font-size:10px;font-style:normal;font-weight:normal;" transform="translate(18.398438 213.230719)rotate(-90)">Predicted.Skew</text>
     <text style="font-family:DejaVu Sans;font-size:10px;font-style:normal;font-weight:normal;" transform="translate(29.59625 204.434625)rotate(-90)">log2(alt/ref)</text>
    </g>
   </g>
   <g id="line2d_11">
    <path clip-path="url(#p608ffb038d)" d="M 91.05101 251.410053 
L 119.879198 251.410053 
L 119.879198 182.888758 
L 91.05101 182.888758 
L 91.05101 251.410053 
" style="fill:none;stroke:#000000;stroke-linecap:square;"/>
   </g>
   <g id="line2d_12">
    <path clip-path="url(#p608ffb038d)" d="M 105.465104 251.410053 
L 105.465104 316.781968 
" style="fill:none;stroke:#000000;stroke-linecap:square;"/>
   </g>
   <g id="line2d_13">
    <path clip-path="url(#p608ffb038d)" d="M 105.465104 182.888758 
L 105.465104 142.676772 
" style="fill:none;stroke:#000000;stroke-linecap:square;"/>
   </g>
   <g id="line2d_14">
    <path clip-path="url(#p608ffb038d)" d="M 98.258057 316.781968 
L 112.672151 316.781968 
" style="fill:none;stroke:#000000;stroke-linecap:square;"/>
   </g>
   <g id="line2d_15">
    <path clip-path="url(#p608ffb038d)" d="M 98.258057 142.676772 
L 112.672151 142.676772 
" style="fill:none;stroke:#000000;stroke-linecap:square;"/>
   </g>
   <g id="line2d_16">
    <defs>
     <path d="M 0 3 
C 0.795609 3 1.55874 2.683901 2.12132 2.12132 
C 2.683901 1.55874 3 0.795609 3 0 
C 3 -0.795609 2.683901 -1.55874 2.12132 -2.12132 
C 1.55874 -2.683901 0.795609 -3 0 -3 
C -0.795609 -3 -1.55874 -2.683901 -2.12132 -2.12132 
C -2.683901 -1.55874 -3 -0.795609 -3 0 
C -3 0.795609 -2.683901 1.55874 -2.12132 2.12132 
C -1.55874 2.683901 -0.795609 3 0 3 
z
" id="m665e113331" style="stroke:#000000;"/>
    </defs>
    <g clip-path="url(#p608ffb038d)">
     <use style="fill-opacity:0;stroke:#000000;" x="105.465104" xlink:href="#m665e113331" y="385.287963"/>
    </g>
   </g>
   <g id="line2d_17">
    <path clip-path="url(#p608ffb038d)" d="M 187.144969 179.962039 
L 215.973156 179.962039 
L 215.973156 165.809531 
L 187.144969 165.809531 
L 187.144969 179.962039 
" style="fill:none;stroke:#000000;stroke-linecap:square;"/>
   </g>
   <g id="line2d_18">
    <path clip-path="url(#p608ffb038d)" d="M 201.559062 179.962039 
L 201.559062 199.822345 
" style="fill:none;stroke:#000000;stroke-linecap:square;"/>
   </g>
   <g id="line2d_19">
    <path clip-path="url(#p608ffb038d)" d="M 201.559062 165.809531 
L 201.559062 145.167286 
" style="fill:none;stroke:#000000;stroke-linecap:square;"/>
   </g>
   <g id="line2d_20">
    <path clip-path="url(#p608ffb038d)" d="M 194.352016 199.822345 
L 208.766109 199.822345 
" style="fill:none;stroke:#000000;stroke-linecap:square;"/>
   </g>
   <g id="line2d_21">
    <path clip-path="url(#p608ffb038d)" d="M 194.352016 145.167286 
L 208.766109 145.167286 
" style="fill:none;stroke:#000000;stroke-linecap:square;"/>
   </g>
   <g id="line2d_22">
    <g clip-path="url(#p608ffb038d)">
     <use style="fill-opacity:0;stroke:#000000;" x="201.559062" xlink:href="#m665e113331" y="238.334551"/>
     <use style="fill-opacity:0;stroke:#000000;" x="201.559062" xlink:href="#m665e113331" y="238.022183"/>
     <use style="fill-opacity:0;stroke:#000000;" x="201.559062" xlink:href="#m665e113331" y="288.130185"/>
     <use style="fill-opacity:0;stroke:#000000;" x="201.559062" xlink:href="#m665e113331" y="202.866068"/>
     <use style="fill-opacity:0;stroke:#000000;" x="201.559062" xlink:href="#m665e113331" y="203.906809"/>
     <use style="fill-opacity:0;stroke:#000000;" x="201.559062" xlink:href="#m665e113331" y="202.984982"/>
     <use style="fill-opacity:0;stroke:#000000;" x="201.559062" xlink:href="#m665e113331" y="202.930324"/>
     <use style="fill-opacity:0;stroke:#000000;" x="201.559062" xlink:href="#m665e113331" y="206.107765"/>
     <use style="fill-opacity:0;stroke:#000000;" x="201.559062" xlink:href="#m665e113331" y="223.701424"/>
     <use style="fill-opacity:0;stroke:#000000;" x="201.559062" xlink:href="#m665e113331" y="215.420231"/>
     <use style="fill-opacity:0;stroke:#000000;" x="201.559062" xlink:href="#m665e113331" y="249.546148"/>
     <use style="fill-opacity:0;stroke:#000000;" x="201.559062" xlink:href="#m665e113331" y="202.874525"/>
     <use style="fill-opacity:0;stroke:#000000;" x="201.559062" xlink:href="#m665e113331" y="204.561867"/>
     <use style="fill-opacity:0;stroke:#000000;" x="201.559062" xlink:href="#m665e113331" y="201.48154"/>
     <use style="fill-opacity:0;stroke:#000000;" x="201.559062" xlink:href="#m665e113331" y="211.595543"/>
     <use style="fill-opacity:0;stroke:#000000;" x="201.559062" xlink:href="#m665e113331" y="238.302122"/>
     <use style="fill-opacity:0;stroke:#000000;" x="201.559062" xlink:href="#m665e113331" y="222.646092"/>
     <use style="fill-opacity:0;stroke:#000000;" x="201.559062" xlink:href="#m665e113331" y="229.242332"/>
     <use style="fill-opacity:0;stroke:#000000;" x="201.559062" xlink:href="#m665e113331" y="215.052085"/>
     <use style="fill-opacity:0;stroke:#000000;" x="201.559062" xlink:href="#m665e113331" y="224.704593"/>
     <use style="fill-opacity:0;stroke:#000000;" x="201.559062" xlink:href="#m665e113331" y="218.524314"/>
     <use style="fill-opacity:0;stroke:#000000;" x="201.559062" xlink:href="#m665e113331" y="211.851704"/>
     <use style="fill-opacity:0;stroke:#000000;" x="201.559062" xlink:href="#m665e113331" y="201.349307"/>
     <use style="fill-opacity:0;stroke:#000000;" x="201.559062" xlink:href="#m665e113331" y="201.295595"/>
     <use style="fill-opacity:0;stroke:#000000;" x="201.559062" xlink:href="#m665e113331" y="107.231529"/>
     <use style="fill-opacity:0;stroke:#000000;" x="201.559062" xlink:href="#m665e113331" y="79.899071"/>
     <use style="fill-opacity:0;stroke:#000000;" x="201.559062" xlink:href="#m665e113331" y="134.647759"/>
     <use style="fill-opacity:0;stroke:#000000;" x="201.559062" xlink:href="#m665e113331" y="130.802026"/>
     <use style="fill-opacity:0;stroke:#000000;" x="201.559062" xlink:href="#m665e113331" y="117.592267"/>
     <use style="fill-opacity:0;stroke:#000000;" x="201.559062" xlink:href="#m665e113331" y="119.638093"/>
     <use style="fill-opacity:0;stroke:#000000;" x="201.559062" xlink:href="#m665e113331" y="119.377026"/>
     <use style="fill-opacity:0;stroke:#000000;" x="201.559062" xlink:href="#m665e113331" y="143.783942"/>
     <use style="fill-opacity:0;stroke:#000000;" x="201.559062" xlink:href="#m665e113331" y="92.534145"/>
     <use style="fill-opacity:0;stroke:#000000;" x="201.559062" xlink:href="#m665e113331" y="85.003554"/>
     <use style="fill-opacity:0;stroke:#000000;" x="201.559062" xlink:href="#m665e113331" y="137.124717"/>
     <use style="fill-opacity:0;stroke:#000000;" x="201.559062" xlink:href="#m665e113331" y="137.236443"/>
     <use style="fill-opacity:0;stroke:#000000;" x="201.559062" xlink:href="#m665e113331" y="132.432601"/>
     <use style="fill-opacity:0;stroke:#000000;" x="201.559062" xlink:href="#m665e113331" y="32.790936"/>
     <use style="fill-opacity:0;stroke:#000000;" x="201.559062" xlink:href="#m665e113331" y="131.700247"/>
     <use style="fill-opacity:0;stroke:#000000;" x="201.559062" xlink:href="#m665e113331" y="136.155251"/>
     <use style="fill-opacity:0;stroke:#000000;" x="201.559062" xlink:href="#m665e113331" y="143.024711"/>
     <use style="fill-opacity:0;stroke:#000000;" x="201.559062" xlink:href="#m665e113331" y="140.699914"/>
     <use style="fill-opacity:0;stroke:#000000;" x="201.559062" xlink:href="#m665e113331" y="116.62652"/>
     <use style="fill-opacity:0;stroke:#000000;" x="201.559062" xlink:href="#m665e113331" y="144.565197"/>
     <use style="fill-opacity:0;stroke:#000000;" x="201.559062" xlink:href="#m665e113331" y="114.69752"/>
     <use style="fill-opacity:0;stroke:#000000;" x="201.559062" xlink:href="#m665e113331" y="139.087501"/>
     <use style="fill-opacity:0;stroke:#000000;" x="201.559062" xlink:href="#m665e113331" y="106.012977"/>
     <use style="fill-opacity:0;stroke:#000000;" x="201.559062" xlink:href="#m665e113331" y="122.74605"/>
     <use style="fill-opacity:0;stroke:#000000;" x="201.559062" xlink:href="#m665e113331" y="141.519893"/>
     <use style="fill-opacity:0;stroke:#000000;" x="201.559062" xlink:href="#m665e113331" y="142.406537"/>
     <use style="fill-opacity:0;stroke:#000000;" x="201.559062" xlink:href="#m665e113331" y="140.572866"/>
     <use style="fill-opacity:0;stroke:#000000;" x="201.559062" xlink:href="#m665e113331" y="116.759786"/>
     <use style="fill-opacity:0;stroke:#000000;" x="201.559062" xlink:href="#m665e113331" y="133.082322"/>
     <use style="fill-opacity:0;stroke:#000000;" x="201.559062" xlink:href="#m665e113331" y="141.443199"/>
     <use style="fill-opacity:0;stroke:#000000;" x="201.559062" xlink:href="#m665e113331" y="142.93586"/>
     <use style="fill-opacity:0;stroke:#000000;" x="201.559062" xlink:href="#m665e113331" y="99.971022"/>
     <use style="fill-opacity:0;stroke:#000000;" x="201.559062" xlink:href="#m665e113331" y="126.034465"/>
     <use style="fill-opacity:0;stroke:#000000;" x="201.559062" xlink:href="#m665e113331" y="134.20165"/>
    </g>
   </g>
   <g id="line2d_23">
    <path clip-path="url(#p608ffb038d)" d="M 283.238927 172.871451 
L 312.067115 172.871451 
L 312.067115 130.379631 
L 283.238927 130.379631 
L 283.238927 172.871451 
" style="fill:none;stroke:#000000;stroke-linecap:square;"/>
   </g>
   <g id="line2d_24">
    <path clip-path="url(#p608ffb038d)" d="M 297.653021 172.871451 
L 297.653021 193.04029 
" style="fill:none;stroke:#000000;stroke-linecap:square;"/>
   </g>
   <g id="line2d_25">
    <path clip-path="url(#p608ffb038d)" d="M 297.653021 130.379631 
L 297.653021 88.227821 
" style="fill:none;stroke:#000000;stroke-linecap:square;"/>
   </g>
   <g id="line2d_26">
    <path clip-path="url(#p608ffb038d)" d="M 290.445974 193.04029 
L 304.860068 193.04029 
" style="fill:none;stroke:#000000;stroke-linecap:square;"/>
   </g>
   <g id="line2d_27">
    <path clip-path="url(#p608ffb038d)" d="M 290.445974 88.227821 
L 304.860068 88.227821 
" style="fill:none;stroke:#000000;stroke-linecap:square;"/>
   </g>
   <g id="line2d_28">
    <g clip-path="url(#p608ffb038d)">
     <use style="fill-opacity:0;stroke:#000000;" x="297.653021" xlink:href="#m665e113331" y="8.183076"/>
     <use style="fill-opacity:0;stroke:#000000;" x="297.653021" xlink:href="#m665e113331" y="59.139376"/>
    </g>
   </g>
   <g id="line2d_29">
    <path clip-path="url(#p608ffb038d)" d="M 57.418125 174.740875 
L 345.7 174.740875 
" style="fill:none;stroke:#000000;stroke-dasharray:5.55,2.4;stroke-dashoffset:0;stroke-width:1.5;"/>
   </g>
   <g id="line2d_30">
    <path clip-path="url(#p608ffb038d)" d="M 91.05101 203.408603 
L 119.879198 203.408603 
" style="fill:none;stroke:#ff7f0e;stroke-linecap:square;"/>
   </g>
   <g id="line2d_31">
    <path clip-path="url(#p608ffb038d)" d="M 187.144969 173.628519 
L 215.973156 173.628519 
" style="fill:none;stroke:#ff7f0e;stroke-linecap:square;"/>
   </g>
   <g id="line2d_32">
    <path clip-path="url(#p608ffb038d)" d="M 283.238927 153.398891 
L 312.067115 153.398891 
" style="fill:none;stroke:#ff7f0e;stroke-linecap:square;"/>
   </g>
   <g id="patch_3">
    <path d="M 57.418125 310.12625 
L 57.418125 39.3555 
" style="fill:none;stroke:#000000;stroke-linecap:square;stroke-linejoin:miter;stroke-width:0.8;"/>
   </g>
   <g id="patch_4">
    <path d="M 345.7 310.12625 
L 345.7 39.3555 
" style="fill:none;stroke:#000000;stroke-linecap:square;stroke-linejoin:miter;stroke-width:0.8;"/>
   </g>
   <g id="patch_5">
    <path d="M 57.418125 310.12625 
L 345.7 310.12625 
" style="fill:none;stroke:#000000;stroke-linecap:square;stroke-linejoin:miter;stroke-width:0.8;"/>
   </g>
   <g id="patch_6">
    <path d="M 57.418125 39.3555 
L 345.7 39.3555 
" style="fill:none;stroke:#000000;stroke-linecap:square;stroke-linejoin:miter;stroke-width:0.8;"/>
   </g>
   <g id="text_12">
    <text style="font-family:DejaVu Sans;font-size:12px;font-style:normal;font-weight:normal;" transform="translate(115.236875 19.918125)">Predicted skews by category</text>
    <text style="font-family:DejaVu Sans;font-size:12px;font-style:normal;font-weight:normal;" transform="translate(62.46875 33.3555)">(Variants overlapping GM12878 DNase peaks)</text>
   </g>
  </g>
 </g>
 <defs>
  <clipPath id="p608ffb038d">
   <rect height="270.77075" width="288.281875" x="57.418125" y="39.3555"/>
  </clipPath>
 </defs>
</svg>
