<?xml version="1.0" encoding="utf-8" standalone="no"?>
<!DOCTYPE svg PUBLIC "-//W3C//DTD SVG 1.1//EN"
  "http://www.w3.org/Graphics/SVG/1.1/DTD/svg11.dtd">
<!-- Created with matplotlib (https://matplotlib.org/) -->
<svg height="576pt" version="1.1" viewBox="0 0 576 576" width="576pt" xmlns="http://www.w3.org/2000/svg" xmlns:xlink="http://www.w3.org/1999/xlink">
 <defs>
  <style type="text/css">
*{stroke-linecap:butt;stroke-linejoin:round;}
  </style>
 </defs>
 <g id="figure_1">
  <g id="patch_1">
   <path d="M 0 576 
L 576 576 
L 576 0 
L 0 0 
z
" style="fill:#ffffff;"/>
  </g>
  <g id="axes_1">
   <g id="patch_2">
    <path d="M 94.938125 504.689375 
L 556.3 504.689375 
L 556.3 35.877187 
L 94.938125 35.877187 
z
" style="fill:#ffffff;"/>
   </g>
   <g id="PolyCollection_1">
    <defs>
     <path d="M 172.200602 -92.62027 
L 171.46294 -92.62027 
L 171.47048 -95.315731 
L 171.492367 -98.011192 
L 171.525622 -100.706653 
L 171.565878 -103.402114 
L 171.608036 -106.097575 
L 171.646898 -108.793036 
L 171.677636 -111.488497 
L 171.696036 -114.183959 
L 171.698519 -116.87942 
L 171.682085 -119.574881 
L 171.644285 -122.270342 
L 171.583352 -124.965803 
L 171.49853 -127.661264 
L 171.390534 -130.356725 
L 171.262024 -133.052186 
L 171.11791 -135.747647 
L 170.965323 -138.443108 
L 170.813176 -141.138569 
L 170.671304 -143.83403 
L 170.549344 -146.529492 
L 170.455534 -149.224953 
L 170.395688 -151.920414 
L 170.372533 -154.615875 
L 170.385506 -157.311336 
L 170.430992 -160.006797 
L 170.502891 -162.702258 
L 170.593347 -165.397719 
L 170.693483 -168.09318 
L 170.794061 -170.788641 
L 170.886031 -173.484102 
L 170.961014 -176.179563 
L 171.011756 -178.875025 
L 171.032577 -181.570486 
L 171.01977 -184.265947 
L 170.97191 -186.961408 
L 170.889975 -189.656869 
L 170.777246 -192.35233 
L 170.638953 -195.047791 
L 170.481699 -197.743252 
L 170.312689 -200.438713 
L 170.138837 -203.134174 
L 169.965813 -205.829635 
L 169.797126 -208.525096 
L 169.633366 -211.220558 
L 169.471697 -213.916019 
L 169.305745 -216.61148 
L 169.125954 -219.306941 
L 168.920479 -222.002402 
L 168.676616 -224.697863 
L 168.382674 -227.393324 
L 168.030061 -230.088785 
L 167.615191 -232.784246 
L 167.14072 -235.479707 
L 166.615588 -238.175168 
L 166.053552 -240.870629 
L 165.470239 -243.566091 
L 164.879213 -246.261552 
L 164.287926 -248.957013 
L 163.694604 -251.652474 
L 163.086885 -254.347935 
L 162.44259 -257.043396 
L 161.732361 -259.738857 
L 160.923374 -262.434318 
L 159.98314 -265.129779 
L 158.882587 -267.82524 
L 157.598106 -270.520701 
L 156.112839 -273.216162 
L 154.41787 -275.911624 
L 152.514013 -278.607085 
L 150.414513 -281.302546 
L 148.148361 -283.998007 
L 145.763424 -286.693468 
L 143.328248 -289.388929 
L 140.931548 -292.08439 
L 138.678794 -294.779851 
L 136.68585 -297.475312 
L 135.070133 -300.170773 
L 133.940204 -302.866234 
L 133.384948 -305.561695 
L 133.463749 -308.257157 
L 134.199091 -310.952618 
L 135.572865 -313.648079 
L 137.527219 -316.34354 
L 139.969994 -319.039001 
L 142.783949 -321.734462 
L 145.838239 -324.429923 
L 149.000265 -327.125384 
L 152.146169 -329.820845 
L 155.168811 -332.516306 
L 157.98277 -335.211767 
L 160.526568 -337.907228 
L 162.762633 -340.602689 
L 164.67561 -343.298151 
L 166.269514 -345.993612 
L 167.564056 -348.689073 
L 168.59041 -351.384534 
L 169.386712 -354.079995 
L 169.993687 -356.775456 
L 170.450799 -359.470917 
L 173.212742 -359.470917 
L 173.212742 -359.470917 
L 173.669855 -356.775456 
L 174.27683 -354.079995 
L 175.073132 -351.384534 
L 176.099485 -348.689073 
L 177.394028 -345.993612 
L 178.987932 -343.298151 
L 180.900908 -340.602689 
L 183.136973 -337.907228 
L 185.680772 -335.211767 
L 188.494731 -332.516306 
L 191.517372 -329.820845 
L 194.663277 -327.125384 
L 197.825303 -324.429923 
L 200.879593 -321.734462 
L 203.693548 -319.039001 
L 206.136323 -316.34354 
L 208.090677 -313.648079 
L 209.464451 -310.952618 
L 210.199792 -308.257157 
L 210.278594 -305.561695 
L 209.723338 -302.866234 
L 208.593408 -300.170773 
L 206.977692 -297.475312 
L 204.984748 -294.779851 
L 202.731994 -292.08439 
L 200.335294 -289.388929 
L 197.900117 -286.693468 
L 195.515181 -283.998007 
L 193.249029 -281.302546 
L 191.149528 -278.607085 
L 189.245672 -275.911624 
L 187.550703 -273.216162 
L 186.065435 -270.520701 
L 184.780954 -267.82524 
L 183.680402 -265.129779 
L 182.740168 -262.434318 
L 181.931181 -259.738857 
L 181.220952 -257.043396 
L 180.576657 -254.347935 
L 179.968937 -251.652474 
L 179.375616 -248.957013 
L 178.784329 -246.261552 
L 178.193302 -243.566091 
L 177.60999 -240.870629 
L 177.047954 -238.175168 
L 176.522822 -235.479707 
L 176.048351 -232.784246 
L 175.633481 -230.088785 
L 175.280868 -227.393324 
L 174.986926 -224.697863 
L 174.743063 -222.002402 
L 174.537588 -219.306941 
L 174.357796 -216.61148 
L 174.191845 -213.916019 
L 174.030176 -211.220558 
L 173.866415 -208.525096 
L 173.697729 -205.829635 
L 173.524704 -203.134174 
L 173.350853 -200.438713 
L 173.181843 -197.743252 
L 173.024589 -195.047791 
L 172.886296 -192.35233 
L 172.773567 -189.656869 
L 172.691632 -186.961408 
L 172.643772 -184.265947 
L 172.630965 -181.570486 
L 172.651785 -178.875025 
L 172.702528 -176.179563 
L 172.777511 -173.484102 
L 172.869481 -170.788641 
L 172.970059 -168.09318 
L 173.070195 -165.397719 
L 173.160651 -162.702258 
L 173.23255 -160.006797 
L 173.278036 -157.311336 
L 173.291008 -154.615875 
L 173.267854 -151.920414 
L 173.208008 -149.224953 
L 173.114197 -146.529492 
L 172.992237 -143.83403 
L 172.850366 -141.138569 
L 172.698218 -138.443108 
L 172.545632 -135.747647 
L 172.401517 -133.052186 
L 172.273008 -130.356725 
L 172.165012 -127.661264 
L 172.08019 -124.965803 
L 172.019257 -122.270342 
L 171.981456 -119.574881 
L 171.965022 -116.87942 
L 171.967506 -114.183959 
L 171.985905 -111.488497 
L 172.016644 -108.793036 
L 172.055505 -106.097575 
L 172.097663 -103.402114 
L 172.13792 -100.706653 
L 172.171175 -98.011192 
L 172.193062 -95.315731 
L 172.200602 -92.62027 
z
" id="mb5c876a061" style="stroke:#000000;"/>
    </defs>
    <g clip-path="url(#p68ae80e157)">
     <use style="fill:#440154;stroke:#000000;" x="0" xlink:href="#mb5c876a061" y="576"/>
    </g>
   </g>
   <g id="PolyCollection_2">
    <defs>
     <path d="M 325.661005 -121.014127 
L 325.57712 -121.014127 
L 325.59051 -124.258264 
L 325.610055 -127.5024 
L 325.617746 -130.746537 
L 325.618973 -133.990674 
L 325.619051 -137.23481 
L 325.618821 -140.478947 
L 325.615786 -143.723084 
L 325.598379 -146.96722 
L 325.558234 -150.211357 
L 325.535715 -153.455494 
L 325.565853 -156.69963 
L 325.603236 -159.943767 
L 325.616869 -163.187904 
L 325.618921 -166.43204 
L 325.619058 -169.676177 
L 325.619062 -172.920314 
L 325.619054 -176.164451 
L 325.618839 -179.408587 
L 325.616464 -182.652724 
L 325.605061 -185.896861 
L 325.583961 -189.140997 
L 325.576565 -192.385134 
L 325.585235 -195.629271 
L 325.580773 -198.873407 
L 325.577177 -202.117544 
L 325.595029 -205.361681 
L 325.612193 -208.605817 
L 325.614225 -211.849954 
L 325.600466 -215.094091 
L 325.576912 -218.338227 
L 325.557312 -221.582364 
L 325.523377 -224.826501 
L 325.482612 -228.070637 
L 325.473483 -231.314774 
L 325.46355 -234.558911 
L 325.449762 -237.803048 
L 325.462202 -241.047184 
L 325.465886 -244.291321 
L 325.406589 -247.535458 
L 325.347522 -250.779594 
L 325.324488 -254.023731 
L 325.242388 -257.267868 
L 325.069546 -260.512004 
L 324.84486 -263.756141 
L 324.628944 -267.000278 
L 324.446845 -270.244414 
L 324.12994 -273.488551 
L 323.407499 -276.732688 
L 322.295835 -279.976824 
L 320.943413 -283.220961 
L 319.136712 -286.465098 
L 316.834769 -289.709235 
L 314.123289 -292.953371 
L 310.397639 -296.197508 
L 305.58089 -299.441645 
L 300.05517 -302.685781 
L 294.013065 -305.929918 
L 288.960208 -309.174055 
L 287.17224 -312.418191 
L 289.294355 -315.662328 
L 294.329853 -318.906465 
L 299.946398 -322.150601 
L 304.60984 -325.394738 
L 309.149667 -328.638875 
L 313.736166 -331.883011 
L 317.420928 -335.127148 
L 319.990248 -338.371285 
L 321.571503 -341.615422 
L 322.279062 -344.859558 
L 322.765296 -348.103695 
L 323.449733 -351.347832 
L 324.113951 -354.591968 
L 324.580624 -357.836105 
L 324.858646 -361.080242 
L 324.955918 -364.324378 
L 324.919064 -367.568515 
L 324.906826 -370.812652 
L 324.978917 -374.056788 
L 325.133367 -377.300925 
L 325.288003 -380.545062 
L 325.339822 -383.789198 
L 325.341322 -387.033335 
L 325.338774 -390.277472 
L 325.371983 -393.521609 
L 325.467475 -396.765745 
L 325.541461 -400.009882 
L 325.570136 -403.254019 
L 325.590317 -406.498155 
L 325.592216 -409.742292 
L 325.578331 -412.986429 
L 325.583349 -416.230565 
L 325.604317 -419.474702 
L 325.616184 -422.718839 
L 325.617893 -425.962975 
L 325.611912 -429.207112 
L 325.592597 -432.451249 
L 325.56849 -435.695385 
L 325.558673 -438.939522 
L 325.565819 -442.183659 
L 325.672306 -442.183659 
L 325.672306 -442.183659 
L 325.679452 -438.939522 
L 325.669635 -435.695385 
L 325.645528 -432.451249 
L 325.626213 -429.207112 
L 325.620232 -425.962975 
L 325.621941 -422.718839 
L 325.633808 -419.474702 
L 325.654776 -416.230565 
L 325.659794 -412.986429 
L 325.645909 -409.742292 
L 325.647808 -406.498155 
L 325.667989 -403.254019 
L 325.696664 -400.009882 
L 325.77065 -396.765745 
L 325.866142 -393.521609 
L 325.899351 -390.277472 
L 325.896803 -387.033335 
L 325.898303 -383.789198 
L 325.950122 -380.545062 
L 326.104758 -377.300925 
L 326.259208 -374.056788 
L 326.331299 -370.812652 
L 326.319061 -367.568515 
L 326.282207 -364.324378 
L 326.379479 -361.080242 
L 326.657501 -357.836105 
L 327.124174 -354.591968 
L 327.788392 -351.347832 
L 328.472829 -348.103695 
L 328.959063 -344.859558 
L 329.666622 -341.615422 
L 331.247877 -338.371285 
L 333.817197 -335.127148 
L 337.501959 -331.883011 
L 342.088458 -328.638875 
L 346.628285 -325.394738 
L 351.291727 -322.150601 
L 356.908272 -318.906465 
L 361.94377 -315.662328 
L 364.065885 -312.418191 
L 362.277917 -309.174055 
L 357.22506 -305.929918 
L 351.182955 -302.685781 
L 345.657235 -299.441645 
L 340.840486 -296.197508 
L 337.114836 -292.953371 
L 334.403356 -289.709235 
L 332.101413 -286.465098 
L 330.294712 -283.220961 
L 328.94229 -279.976824 
L 327.830626 -276.732688 
L 327.108185 -273.488551 
L 326.79128 -270.244414 
L 326.609181 -267.000278 
L 326.393265 -263.756141 
L 326.168579 -260.512004 
L 325.995737 -257.267868 
L 325.913637 -254.023731 
L 325.890603 -250.779594 
L 325.831536 -247.535458 
L 325.772239 -244.291321 
L 325.775923 -241.047184 
L 325.788363 -237.803048 
L 325.774575 -234.558911 
L 325.764642 -231.314774 
L 325.755513 -228.070637 
L 325.714748 -224.826501 
L 325.680813 -221.582364 
L 325.661213 -218.338227 
L 325.637659 -215.094091 
L 325.6239 -211.849954 
L 325.625932 -208.605817 
L 325.643096 -205.361681 
L 325.660948 -202.117544 
L 325.657352 -198.873407 
L 325.65289 -195.629271 
L 325.66156 -192.385134 
L 325.654164 -189.140997 
L 325.633064 -185.896861 
L 325.621661 -182.652724 
L 325.619286 -179.408587 
L 325.619071 -176.164451 
L 325.619063 -172.920314 
L 325.619067 -169.676177 
L 325.619204 -166.43204 
L 325.621256 -163.187904 
L 325.634889 -159.943767 
L 325.672272 -156.69963 
L 325.70241 -153.455494 
L 325.679891 -150.211357 
L 325.639746 -146.96722 
L 325.622339 -143.723084 
L 325.619304 -140.478947 
L 325.619074 -137.23481 
L 325.619152 -133.990674 
L 325.620379 -130.746537 
L 325.62807 -127.5024 
L 325.647615 -124.258264 
L 325.661005 -121.014127 
z
" id="mec717c91a9" style="stroke:#000000;"/>
    </defs>
    <g clip-path="url(#p68ae80e157)">
     <use style="fill:#238a8d;stroke:#000000;" x="0" xlink:href="#mec717c91a9" y="576"/>
    </g>
   </g>
   <g id="PolyCollection_3">
    <defs>
     <path d="M 485.798856 -279.823698 
L 473.013853 -279.823698 
L 471.176446 -282.237733 
L 469.014695 -284.651769 
L 466.536127 -287.065804 
L 463.771757 -289.479839 
L 460.779474 -291.893874 
L 457.644583 -294.307909 
L 454.476483 -296.721944 
L 451.401082 -299.135979 
L 448.549424 -301.550014 
L 446.044041 -303.964049 
L 443.985272 -306.378084 
L 442.440106 -308.792119 
L 441.435797 -311.206154 
L 440.959531 -313.620189 
L 440.964202 -316.034224 
L 441.378989 -318.448259 
L 442.122489 -320.862294 
L 443.115675 -323.276329 
L 444.292173 -325.690364 
L 445.604107 -328.104399 
L 447.022812 -330.518434 
L 448.534961 -332.932469 
L 450.135568 -335.346504 
L 451.81997 -337.760539 
L 453.576944 -340.174574 
L 455.384663 -342.58861 
L 457.210347 -345.002645 
L 459.013436 -347.41668 
L 460.751203 -349.830715 
L 462.385171 -352.24475 
L 463.886614 -354.658785 
L 465.239894 -357.07282 
L 466.443027 -359.486855 
L 467.50569 -361.90089 
L 468.445448 -364.314925 
L 469.283236 -366.72896 
L 470.03915 -369.142995 
L 470.729291 -371.55703 
L 471.364111 -373.971065 
L 471.948333 -376.3851 
L 472.482219 -378.799135 
L 472.963747 -381.21317 
L 473.391072 -383.627205 
L 473.764631 -386.04124 
L 474.088319 -388.455275 
L 474.369433 -390.86931 
L 474.617443 -393.283345 
L 474.842046 -395.69738 
L 475.051174 -398.111416 
L 475.249686 -400.525451 
L 475.439192 -402.939486 
L 475.619085 -405.353521 
L 475.788362 -407.767556 
L 475.947572 -410.181591 
L 476.100158 -412.595626 
L 476.252691 -415.009661 
L 476.413871 -417.423696 
L 476.592601 -419.837731 
L 476.795723 -422.251766 
L 477.026085 -424.665801 
L 477.281507 -427.079836 
L 477.554868 -429.493871 
L 477.835269 -431.907906 
L 478.109888 -434.321941 
L 478.366037 -436.735976 
L 478.592939 -439.150011 
L 478.782911 -441.564046 
L 478.931831 -443.978081 
L 479.038991 -446.392116 
L 479.10656 -448.806151 
L 479.138901 -451.220186 
L 479.141941 -453.634221 
L 479.122661 -456.048257 
L 479.088685 -458.462292 
L 479.04788 -460.876327 
L 479.007877 -463.290362 
L 478.975479 -465.704397 
L 478.956024 -468.118432 
L 478.952828 -470.532467 
L 478.966848 -472.946502 
L 478.996688 -475.360537 
L 479.038963 -477.774572 
L 479.088947 -480.188607 
L 479.141352 -482.602642 
L 479.191058 -485.016677 
L 479.233665 -487.430712 
L 479.265791 -489.844747 
L 479.285143 -492.258782 
L 479.290456 -494.672817 
L 479.281396 -497.086852 
L 479.258535 -499.500887 
L 479.2234 -501.914922 
L 479.178566 -504.328957 
L 479.127704 -506.742992 
L 479.075451 -509.157027 
L 479.027056 -511.571062 
L 478.987784 -513.985098 
L 478.962178 -516.399133 
L 478.953337 -518.813168 
L 479.859372 -518.813168 
L 479.859372 -518.813168 
L 479.850531 -516.399133 
L 479.824925 -513.985098 
L 479.785653 -511.571062 
L 479.737258 -509.157027 
L 479.685005 -506.742992 
L 479.634142 -504.328957 
L 479.589309 -501.914922 
L 479.554173 -499.500887 
L 479.531312 -497.086852 
L 479.522253 -494.672817 
L 479.527565 -492.258782 
L 479.546917 -489.844747 
L 479.579043 -487.430712 
L 479.621651 -485.016677 
L 479.671357 -482.602642 
L 479.723761 -480.188607 
L 479.773746 -477.774572 
L 479.816021 -475.360537 
L 479.84586 -472.946502 
L 479.85988 -470.532467 
L 479.856684 -468.118432 
L 479.837229 -465.704397 
L 479.804831 -463.290362 
L 479.764828 -460.876327 
L 479.724024 -458.462292 
L 479.690047 -456.048257 
L 479.670767 -453.634221 
L 479.673807 -451.220186 
L 479.706149 -448.806151 
L 479.773717 -446.392116 
L 479.880877 -443.978081 
L 480.029797 -441.564046 
L 480.21977 -439.150011 
L 480.446672 -436.735976 
L 480.70282 -434.321941 
L 480.977439 -431.907906 
L 481.257841 -429.493871 
L 481.531202 -427.079836 
L 481.786623 -424.665801 
L 482.016986 -422.251766 
L 482.220107 -419.837731 
L 482.398837 -417.423696 
L 482.560017 -415.009661 
L 482.71255 -412.595626 
L 482.865137 -410.181591 
L 483.024346 -407.767556 
L 483.193623 -405.353521 
L 483.373516 -402.939486 
L 483.563023 -400.525451 
L 483.761534 -398.111416 
L 483.970662 -395.69738 
L 484.195266 -393.283345 
L 484.443276 -390.86931 
L 484.724389 -388.455275 
L 485.048077 -386.04124 
L 485.421636 -383.627205 
L 485.848961 -381.21317 
L 486.330489 -378.799135 
L 486.864376 -376.3851 
L 487.448598 -373.971065 
L 488.083417 -371.55703 
L 488.773558 -369.142995 
L 489.529472 -366.72896 
L 490.367261 -364.314925 
L 491.307018 -361.90089 
L 492.369682 -359.486855 
L 493.572814 -357.07282 
L 494.926094 -354.658785 
L 496.427538 -352.24475 
L 498.061505 -349.830715 
L 499.799273 -347.41668 
L 501.602361 -345.002645 
L 503.428045 -342.58861 
L 505.235764 -340.174574 
L 506.992739 -337.760539 
L 508.677141 -335.346504 
L 510.277747 -332.932469 
L 511.789896 -330.518434 
L 513.208601 -328.104399 
L 514.520535 -325.690364 
L 515.697034 -323.276329 
L 516.690219 -320.862294 
L 517.433719 -318.448259 
L 517.848506 -316.034224 
L 517.853177 -313.620189 
L 517.376912 -311.206154 
L 516.372602 -308.792119 
L 514.827436 -306.378084 
L 512.768667 -303.964049 
L 510.263285 -301.550014 
L 507.411627 -299.135979 
L 504.336225 -296.721944 
L 501.168125 -294.307909 
L 498.033234 -291.893874 
L 495.040951 -289.479839 
L 492.276582 -287.065804 
L 489.798014 -284.651769 
L 487.636262 -282.237733 
L 485.798856 -279.823698 
z
" id="me0ffbcd7ad" style="stroke:#000000;"/>
    </defs>
    <g clip-path="url(#p68ae80e157)">
     <use style="fill:#fde725;stroke:#000000;" x="0" xlink:href="#me0ffbcd7ad" y="576"/>
    </g>
   </g>
   <g id="matplotlib.axis_1">
    <g id="xtick_1">
     <g id="line2d_1">
      <defs>
       <path d="M 0 0 
L 0 3.5 
" id="me393f4178b" style="stroke:#000000;stroke-width:0.8;"/>
      </defs>
      <g>
       <use style="stroke:#000000;stroke-width:0.8;" x="171.831771" xlink:href="#me393f4178b" y="504.689375"/>
      </g>
     </g>
     <g id="text_1">
      <text style="font-family:DejaVu Sans;font-size:15px;font-style:normal;font-weight:normal;" transform="translate(138.170833 523.087031)">Negative</text>
      <text style="font-family:DejaVu Sans;font-size:15px;font-style:normal;font-weight:normal;" transform="translate(109.843099 539.88375)">(Log.Skew&lt;-0.5,</text>
      <text style="font-family:DejaVu Sans;font-size:15px;font-style:normal;font-weight:normal;" transform="translate(141.160286 556.680469)">q&lt;0.05)</text>
     </g>
    </g>
    <g id="xtick_2">
     <g id="line2d_2">
      <g>
       <use style="stroke:#000000;stroke-width:0.8;" x="325.619063" xlink:href="#me393f4178b" y="504.689375"/>
      </g>
     </g>
     <g id="text_2">
      <text style="font-family:DejaVu Sans;font-size:15px;font-style:normal;font-weight:normal;" transform="translate(297.937031 523.087031)">Neutral</text>
      <text style="font-family:DejaVu Sans;font-size:15px;font-style:normal;font-weight:normal;" transform="translate(245.418281 539.88375)">(-0.5&lt;Log.Skew&lt;0.5,</text>
      <text style="font-family:DejaVu Sans;font-size:15px;font-style:normal;font-weight:normal;" transform="translate(294.947578 556.680469)">q&gt;0.05)</text>
     </g>
    </g>
    <g id="xtick_3">
     <g id="line2d_3">
      <g>
       <use style="stroke:#000000;stroke-width:0.8;" x="479.406354" xlink:href="#me393f4178b" y="504.689375"/>
      </g>
     </g>
     <g id="text_3">
      <text style="font-family:DejaVu Sans;font-size:15px;font-style:normal;font-weight:normal;" transform="translate(450.230182 523.087031)">Positive</text>
      <text style="font-family:DejaVu Sans;font-size:15px;font-style:normal;font-weight:normal;" transform="translate(422.507135 539.88375)">(Log.Skew&gt;05,</text>
      <text style="font-family:DejaVu Sans;font-size:15px;font-style:normal;font-weight:normal;" transform="translate(448.73487 556.680469)">q&lt;0.05)</text>
     </g>
    </g>
   </g>
   <g id="matplotlib.axis_2">
    <g id="ytick_1">
     <g id="line2d_4">
      <defs>
       <path d="M 0 0 
L -3.5 0 
" id="mb80f5d4df5" style="stroke:#000000;stroke-width:0.8;"/>
      </defs>
      <g>
       <use style="stroke:#000000;stroke-width:0.8;" x="94.938125" xlink:href="#mb80f5d4df5" y="505.150345"/>
      </g>
     </g>
     <g id="text_4">
      <text style="font-family:DejaVu Sans;font-size:15px;font-style:normal;font-weight:normal;text-anchor:end;" transform="rotate(-0, 87.938125, 510.849173)" x="87.938125" y="510.849173">−0.8</text>
     </g>
    </g>
    <g id="ytick_2">
     <g id="line2d_5">
      <g>
       <use style="stroke:#000000;stroke-width:0.8;" x="94.938125" xlink:href="#mb80f5d4df5" y="444.745685"/>
      </g>
     </g>
     <g id="text_5">
      <text style="font-family:DejaVu Sans;font-size:15px;font-style:normal;font-weight:normal;text-anchor:end;" transform="rotate(-0, 87.938125, 450.444513)" x="87.938125" y="450.444513">−0.6</text>
     </g>
    </g>
    <g id="ytick_3">
     <g id="line2d_6">
      <g>
       <use style="stroke:#000000;stroke-width:0.8;" x="94.938125" xlink:href="#mb80f5d4df5" y="384.341026"/>
      </g>
     </g>
     <g id="text_6">
      <text style="font-family:DejaVu Sans;font-size:15px;font-style:normal;font-weight:normal;text-anchor:end;" transform="rotate(-0, 87.938125, 390.039854)" x="87.938125" y="390.039854">−0.4</text>
     </g>
    </g>
    <g id="ytick_4">
     <g id="line2d_7">
      <g>
       <use style="stroke:#000000;stroke-width:0.8;" x="94.938125" xlink:href="#mb80f5d4df5" y="323.936366"/>
      </g>
     </g>
     <g id="text_7">
      <text style="font-family:DejaVu Sans;font-size:15px;font-style:normal;font-weight:normal;text-anchor:end;" transform="rotate(-0, 87.938125, 329.635194)" x="87.938125" y="329.635194">−0.2</text>
     </g>
    </g>
    <g id="ytick_5">
     <g id="line2d_8">
      <g>
       <use style="stroke:#000000;stroke-width:0.8;" x="94.938125" xlink:href="#mb80f5d4df5" y="263.531706"/>
      </g>
     </g>
     <g id="text_8">
      <text style="font-family:DejaVu Sans;font-size:15px;font-style:normal;font-weight:normal;text-anchor:end;" transform="rotate(-0, 87.938125, 269.230535)" x="87.938125" y="269.230535">0.0</text>
     </g>
    </g>
    <g id="ytick_6">
     <g id="line2d_9">
      <g>
       <use style="stroke:#000000;stroke-width:0.8;" x="94.938125" xlink:href="#mb80f5d4df5" y="203.127047"/>
      </g>
     </g>
     <g id="text_9">
      <text style="font-family:DejaVu Sans;font-size:15px;font-style:normal;font-weight:normal;text-anchor:end;" transform="rotate(-0, 87.938125, 208.825875)" x="87.938125" y="208.825875">0.2</text>
     </g>
    </g>
    <g id="ytick_7">
     <g id="line2d_10">
      <g>
       <use style="stroke:#000000;stroke-width:0.8;" x="94.938125" xlink:href="#mb80f5d4df5" y="142.722387"/>
      </g>
     </g>
     <g id="text_10">
      <text style="font-family:DejaVu Sans;font-size:15px;font-style:normal;font-weight:normal;text-anchor:end;" transform="rotate(-0, 87.938125, 148.421215)" x="87.938125" y="148.421215">0.4</text>
     </g>
    </g>
    <g id="ytick_8">
     <g id="line2d_11">
      <g>
       <use style="stroke:#000000;stroke-width:0.8;" x="94.938125" xlink:href="#mb80f5d4df5" y="82.317728"/>
      </g>
     </g>
     <g id="text_11">
      <text style="font-family:DejaVu Sans;font-size:15px;font-style:normal;font-weight:normal;text-anchor:end;" transform="rotate(-0, 87.938125, 88.016556)" x="87.938125" y="88.016556">0.6</text>
     </g>
    </g>
    <g id="text_12">
     <text style="font-family:DejaVu Sans;font-size:15px;font-style:normal;font-weight:normal;" transform="translate(27.597656 328.018047)rotate(-90)">Predicted.Skew</text>
     <text style="font-family:DejaVu Sans;font-size:15px;font-style:normal;font-weight:normal;" transform="translate(44.394375 314.823906)rotate(-90)">log2(alt/ref)</text>
    </g>
   </g>
   <g id="line2d_12">
    <path clip-path="url(#p68ae80e157)" d="M 148.763677 295.4539 
L 194.899865 295.4539 
L 194.899865 262.076353 
L 148.763677 262.076353 
L 148.763677 295.4539 
" style="fill:none;stroke:#000000;stroke-linecap:square;"/>
   </g>
   <g id="line2d_13">
    <path clip-path="url(#p68ae80e157)" d="M 171.831771 295.4539 
L 171.831771 339.371432 
" style="fill:none;stroke:#000000;stroke-linecap:square;"/>
   </g>
   <g id="line2d_14">
    <path clip-path="url(#p68ae80e157)" d="M 171.831771 262.076353 
L 171.831771 216.529083 
" style="fill:none;stroke:#000000;stroke-linecap:square;"/>
   </g>
   <g id="line2d_15">
    <path clip-path="url(#p68ae80e157)" d="M 160.297724 339.371432 
L 183.365818 339.371432 
" style="fill:none;stroke:#000000;stroke-linecap:square;"/>
   </g>
   <g id="line2d_16">
    <path clip-path="url(#p68ae80e157)" d="M 160.297724 216.529083 
L 183.365818 216.529083 
" style="fill:none;stroke:#000000;stroke-linecap:square;"/>
   </g>
   <g id="line2d_17">
    <defs>
     <path d="M 0 3 
C 0.795609 3 1.55874 2.683901 2.12132 2.12132 
C 2.683901 1.55874 3 0.795609 3 0 
C 3 -0.795609 2.683901 -1.55874 2.12132 -2.12132 
C 1.55874 -2.683901 0.795609 -3 0 -3 
C -0.795609 -3 -1.55874 -2.683901 -2.12132 -2.12132 
C -2.683901 -1.55874 -3 -0.795609 -3 0 
C -3 0.795609 -2.683901 1.55874 -2.12132 2.12132 
C -1.55874 2.683901 -0.795609 3 0 3 
z
" id="mf3aeb79eac" style="stroke:#000000;"/>
    </defs>
    <g clip-path="url(#p68ae80e157)">
     <use style="fill-opacity:0;stroke:#000000;" x="171.831771" xlink:href="#mf3aeb79eac" y="432.53865"/>
     <use style="fill-opacity:0;stroke:#000000;" x="171.831771" xlink:href="#mf3aeb79eac" y="347.02271"/>
     <use style="fill-opacity:0;stroke:#000000;" x="171.831771" xlink:href="#mf3aeb79eac" y="346.022592"/>
     <use style="fill-opacity:0;stroke:#000000;" x="171.831771" xlink:href="#mf3aeb79eac" y="381.22527"/>
     <use style="fill-opacity:0;stroke:#000000;" x="171.831771" xlink:href="#mf3aeb79eac" y="368.285222"/>
     <use style="fill-opacity:0;stroke:#000000;" x="171.831771" xlink:href="#mf3aeb79eac" y="369.393713"/>
     <use style="fill-opacity:0;stroke:#000000;" x="171.831771" xlink:href="#mf3aeb79eac" y="361.203815"/>
     <use style="fill-opacity:0;stroke:#000000;" x="171.831771" xlink:href="#mf3aeb79eac" y="358.708811"/>
     <use style="fill-opacity:0;stroke:#000000;" x="171.831771" xlink:href="#mf3aeb79eac" y="415.229663"/>
     <use style="fill-opacity:0;stroke:#000000;" x="171.831771" xlink:href="#mf3aeb79eac" y="404.346235"/>
     <use style="fill-opacity:0;stroke:#000000;" x="171.831771" xlink:href="#mf3aeb79eac" y="351.17973"/>
     <use style="fill-opacity:0;stroke:#000000;" x="171.831771" xlink:href="#mf3aeb79eac" y="421.54649"/>
     <use style="fill-opacity:0;stroke:#000000;" x="171.831771" xlink:href="#mf3aeb79eac" y="483.37973"/>
     <use style="fill-opacity:0;stroke:#000000;" x="171.831771" xlink:href="#mf3aeb79eac" y="426.11698"/>
    </g>
   </g>
   <g id="line2d_18">
    <path clip-path="url(#p68ae80e157)" d="M 302.550969 272.307641 
L 348.687156 272.307641 
L 348.687156 254.392761 
L 302.550969 254.392761 
L 302.550969 272.307641 
" style="fill:none;stroke:#000000;stroke-linecap:square;"/>
   </g>
   <g id="line2d_19">
    <path clip-path="url(#p68ae80e157)" d="M 325.619063 272.307641 
L 325.619063 298.843009 
" style="fill:none;stroke:#000000;stroke-linecap:square;"/>
   </g>
   <g id="line2d_20">
    <path clip-path="url(#p68ae80e157)" d="M 325.619063 254.392761 
L 325.619063 227.578741 
" style="fill:none;stroke:#000000;stroke-linecap:square;"/>
   </g>
   <g id="line2d_21">
    <path clip-path="url(#p68ae80e157)" d="M 314.085016 298.843009 
L 337.153109 298.843009 
" style="fill:none;stroke:#000000;stroke-linecap:square;"/>
   </g>
   <g id="line2d_22">
    <path clip-path="url(#p68ae80e157)" d="M 314.085016 227.578741 
L 337.153109 227.578741 
" style="fill:none;stroke:#000000;stroke-linecap:square;"/>
   </g>
   <g id="line2d_23">
    <g clip-path="url(#p68ae80e157)">
     <use style="fill-opacity:0;stroke:#000000;" x="325.619063" xlink:href="#mf3aeb79eac" y="318.342154"/>
     <use style="fill-opacity:0;stroke:#000000;" x="325.619063" xlink:href="#mf3aeb79eac" y="325.945547"/>
     <use style="fill-opacity:0;stroke:#000000;" x="325.619063" xlink:href="#mf3aeb79eac" y="315.31087"/>
     <use style="fill-opacity:0;stroke:#000000;" x="325.619063" xlink:href="#mf3aeb79eac" y="301.366636"/>
     <use style="fill-opacity:0;stroke:#000000;" x="325.619063" xlink:href="#mf3aeb79eac" y="321.200438"/>
     <use style="fill-opacity:0;stroke:#000000;" x="325.619063" xlink:href="#mf3aeb79eac" y="346.231343"/>
     <use style="fill-opacity:0;stroke:#000000;" x="325.619063" xlink:href="#mf3aeb79eac" y="315.636166"/>
     <use style="fill-opacity:0;stroke:#000000;" x="325.619063" xlink:href="#mf3aeb79eac" y="305.790517"/>
     <use style="fill-opacity:0;stroke:#000000;" x="325.619063" xlink:href="#mf3aeb79eac" y="308.771719"/>
     <use style="fill-opacity:0;stroke:#000000;" x="325.619063" xlink:href="#mf3aeb79eac" y="304.807176"/>
     <use style="fill-opacity:0;stroke:#000000;" x="325.619063" xlink:href="#mf3aeb79eac" y="327.677194"/>
     <use style="fill-opacity:0;stroke:#000000;" x="325.619063" xlink:href="#mf3aeb79eac" y="303.568711"/>
     <use style="fill-opacity:0;stroke:#000000;" x="325.619063" xlink:href="#mf3aeb79eac" y="309.654753"/>
     <use style="fill-opacity:0;stroke:#000000;" x="325.619063" xlink:href="#mf3aeb79eac" y="317.851131"/>
     <use style="fill-opacity:0;stroke:#000000;" x="325.619063" xlink:href="#mf3aeb79eac" y="305.032705"/>
     <use style="fill-opacity:0;stroke:#000000;" x="325.619063" xlink:href="#mf3aeb79eac" y="334.893184"/>
     <use style="fill-opacity:0;stroke:#000000;" x="325.619063" xlink:href="#mf3aeb79eac" y="334.032545"/>
     <use style="fill-opacity:0;stroke:#000000;" x="325.619063" xlink:href="#mf3aeb79eac" y="304.105387"/>
     <use style="fill-opacity:0;stroke:#000000;" x="325.619063" xlink:href="#mf3aeb79eac" y="303.725257"/>
     <use style="fill-opacity:0;stroke:#000000;" x="325.619063" xlink:href="#mf3aeb79eac" y="306.618609"/>
     <use style="fill-opacity:0;stroke:#000000;" x="325.619063" xlink:href="#mf3aeb79eac" y="314.125583"/>
     <use style="fill-opacity:0;stroke:#000000;" x="325.619063" xlink:href="#mf3aeb79eac" y="326.020903"/>
     <use style="fill-opacity:0;stroke:#000000;" x="325.619063" xlink:href="#mf3aeb79eac" y="300.618761"/>
     <use style="fill-opacity:0;stroke:#000000;" x="325.619063" xlink:href="#mf3aeb79eac" y="337.786537"/>
     <use style="fill-opacity:0;stroke:#000000;" x="325.619063" xlink:href="#mf3aeb79eac" y="301.59022"/>
     <use style="fill-opacity:0;stroke:#000000;" x="325.619063" xlink:href="#mf3aeb79eac" y="374.549699"/>
     <use style="fill-opacity:0;stroke:#000000;" x="325.619063" xlink:href="#mf3aeb79eac" y="347.697893"/>
     <use style="fill-opacity:0;stroke:#000000;" x="325.619063" xlink:href="#mf3aeb79eac" y="310.190132"/>
     <use style="fill-opacity:0;stroke:#000000;" x="325.619063" xlink:href="#mf3aeb79eac" y="312.498995"/>
     <use style="fill-opacity:0;stroke:#000000;" x="325.619063" xlink:href="#mf3aeb79eac" y="340.714452"/>
     <use style="fill-opacity:0;stroke:#000000;" x="325.619063" xlink:href="#mf3aeb79eac" y="326.226738"/>
     <use style="fill-opacity:0;stroke:#000000;" x="325.619063" xlink:href="#mf3aeb79eac" y="306.820087"/>
     <use style="fill-opacity:0;stroke:#000000;" x="325.619063" xlink:href="#mf3aeb79eac" y="309.419719"/>
     <use style="fill-opacity:0;stroke:#000000;" x="325.619063" xlink:href="#mf3aeb79eac" y="301.038351"/>
     <use style="fill-opacity:0;stroke:#000000;" x="325.619063" xlink:href="#mf3aeb79eac" y="305.726754"/>
     <use style="fill-opacity:0;stroke:#000000;" x="325.619063" xlink:href="#mf3aeb79eac" y="303.345991"/>
     <use style="fill-opacity:0;stroke:#000000;" x="325.619063" xlink:href="#mf3aeb79eac" y="325.334703"/>
     <use style="fill-opacity:0;stroke:#000000;" x="325.619063" xlink:href="#mf3aeb79eac" y="300.90024"/>
     <use style="fill-opacity:0;stroke:#000000;" x="325.619063" xlink:href="#mf3aeb79eac" y="308.132324"/>
     <use style="fill-opacity:0;stroke:#000000;" x="325.619063" xlink:href="#mf3aeb79eac" y="348.636265"/>
     <use style="fill-opacity:0;stroke:#000000;" x="325.619063" xlink:href="#mf3aeb79eac" y="308.823349"/>
     <use style="fill-opacity:0;stroke:#000000;" x="325.619063" xlink:href="#mf3aeb79eac" y="306.307174"/>
     <use style="fill-opacity:0;stroke:#000000;" x="325.619063" xlink:href="#mf3aeb79eac" y="308.966572"/>
     <use style="fill-opacity:0;stroke:#000000;" x="325.619063" xlink:href="#mf3aeb79eac" y="299.302815"/>
     <use style="fill-opacity:0;stroke:#000000;" x="325.619063" xlink:href="#mf3aeb79eac" y="423.13837"/>
     <use style="fill-opacity:0;stroke:#000000;" x="325.619063" xlink:href="#mf3aeb79eac" y="422.519102"/>
     <use style="fill-opacity:0;stroke:#000000;" x="325.619063" xlink:href="#mf3aeb79eac" y="313.894654"/>
     <use style="fill-opacity:0;stroke:#000000;" x="325.619063" xlink:href="#mf3aeb79eac" y="300.435501"/>
     <use style="fill-opacity:0;stroke:#000000;" x="325.619063" xlink:href="#mf3aeb79eac" y="302.830342"/>
     <use style="fill-opacity:0;stroke:#000000;" x="325.619063" xlink:href="#mf3aeb79eac" y="317.242448"/>
     <use style="fill-opacity:0;stroke:#000000;" x="325.619063" xlink:href="#mf3aeb79eac" y="454.985873"/>
     <use style="fill-opacity:0;stroke:#000000;" x="325.619063" xlink:href="#mf3aeb79eac" y="299.499469"/>
     <use style="fill-opacity:0;stroke:#000000;" x="325.619063" xlink:href="#mf3aeb79eac" y="311.319001"/>
     <use style="fill-opacity:0;stroke:#000000;" x="325.619063" xlink:href="#mf3aeb79eac" y="311.123427"/>
     <use style="fill-opacity:0;stroke:#000000;" x="325.619063" xlink:href="#mf3aeb79eac" y="384.62239"/>
     <use style="fill-opacity:0;stroke:#000000;" x="325.619063" xlink:href="#mf3aeb79eac" y="340.200388"/>
     <use style="fill-opacity:0;stroke:#000000;" x="325.619063" xlink:href="#mf3aeb79eac" y="301.205734"/>
     <use style="fill-opacity:0;stroke:#000000;" x="325.619063" xlink:href="#mf3aeb79eac" y="305.141653"/>
     <use style="fill-opacity:0;stroke:#000000;" x="325.619063" xlink:href="#mf3aeb79eac" y="305.249449"/>
     <use style="fill-opacity:0;stroke:#000000;" x="325.619063" xlink:href="#mf3aeb79eac" y="299.445679"/>
     <use style="fill-opacity:0;stroke:#000000;" x="325.619063" xlink:href="#mf3aeb79eac" y="300.42542"/>
     <use style="fill-opacity:0;stroke:#000000;" x="325.619063" xlink:href="#mf3aeb79eac" y="309.815186"/>
     <use style="fill-opacity:0;stroke:#000000;" x="325.619063" xlink:href="#mf3aeb79eac" y="312.855003"/>
     <use style="fill-opacity:0;stroke:#000000;" x="325.619063" xlink:href="#mf3aeb79eac" y="321.412429"/>
     <use style="fill-opacity:0;stroke:#000000;" x="325.619063" xlink:href="#mf3aeb79eac" y="356.140215"/>
     <use style="fill-opacity:0;stroke:#000000;" x="325.619063" xlink:href="#mf3aeb79eac" y="303.085826"/>
     <use style="fill-opacity:0;stroke:#000000;" x="325.619063" xlink:href="#mf3aeb79eac" y="313.831503"/>
     <use style="fill-opacity:0;stroke:#000000;" x="325.619063" xlink:href="#mf3aeb79eac" y="307.728503"/>
     <use style="fill-opacity:0;stroke:#000000;" x="325.619063" xlink:href="#mf3aeb79eac" y="309.772342"/>
     <use style="fill-opacity:0;stroke:#000000;" x="325.619063" xlink:href="#mf3aeb79eac" y="208.54538"/>
     <use style="fill-opacity:0;stroke:#000000;" x="325.619063" xlink:href="#mf3aeb79eac" y="182.793279"/>
     <use style="fill-opacity:0;stroke:#000000;" x="325.619063" xlink:href="#mf3aeb79eac" y="227.13618"/>
     <use style="fill-opacity:0;stroke:#000000;" x="325.619063" xlink:href="#mf3aeb79eac" y="222.611164"/>
     <use style="fill-opacity:0;stroke:#000000;" x="325.619063" xlink:href="#mf3aeb79eac" y="225.154341"/>
     <use style="fill-opacity:0;stroke:#000000;" x="325.619063" xlink:href="#mf3aeb79eac" y="207.027632"/>
     <use style="fill-opacity:0;stroke:#000000;" x="325.619063" xlink:href="#mf3aeb79eac" y="226.454877"/>
     <use style="fill-opacity:0;stroke:#000000;" x="325.619063" xlink:href="#mf3aeb79eac" y="214.797939"/>
     <use style="fill-opacity:0;stroke:#000000;" x="325.619063" xlink:href="#mf3aeb79eac" y="227.106261"/>
     <use style="fill-opacity:0;stroke:#000000;" x="325.619063" xlink:href="#mf3aeb79eac" y="221.060112"/>
     <use style="fill-opacity:0;stroke:#000000;" x="325.619063" xlink:href="#mf3aeb79eac" y="218.526584"/>
     <use style="fill-opacity:0;stroke:#000000;" x="325.619063" xlink:href="#mf3aeb79eac" y="223.835515"/>
     <use style="fill-opacity:0;stroke:#000000;" x="325.619063" xlink:href="#mf3aeb79eac" y="227.33683"/>
     <use style="fill-opacity:0;stroke:#000000;" x="325.619063" xlink:href="#mf3aeb79eac" y="219.402849"/>
     <use style="fill-opacity:0;stroke:#000000;" x="325.619063" xlink:href="#mf3aeb79eac" y="206.918108"/>
     <use style="fill-opacity:0;stroke:#000000;" x="325.619063" xlink:href="#mf3aeb79eac" y="222.761876"/>
     <use style="fill-opacity:0;stroke:#000000;" x="325.619063" xlink:href="#mf3aeb79eac" y="198.030885"/>
     <use style="fill-opacity:0;stroke:#000000;" x="325.619063" xlink:href="#mf3aeb79eac" y="218.33209"/>
     <use style="fill-opacity:0;stroke:#000000;" x="325.619063" xlink:href="#mf3aeb79eac" y="204.138672"/>
     <use style="fill-opacity:0;stroke:#000000;" x="325.619063" xlink:href="#mf3aeb79eac" y="224.282757"/>
     <use style="fill-opacity:0;stroke:#000000;" x="325.619063" xlink:href="#mf3aeb79eac" y="208.767992"/>
     <use style="fill-opacity:0;stroke:#000000;" x="325.619063" xlink:href="#mf3aeb79eac" y="200.445456"/>
     <use style="fill-opacity:0;stroke:#000000;" x="325.619063" xlink:href="#mf3aeb79eac" y="224.469761"/>
     <use style="fill-opacity:0;stroke:#000000;" x="325.619063" xlink:href="#mf3aeb79eac" y="221.311924"/>
     <use style="fill-opacity:0;stroke:#000000;" x="325.619063" xlink:href="#mf3aeb79eac" y="201.226598"/>
     <use style="fill-opacity:0;stroke:#000000;" x="325.619063" xlink:href="#mf3aeb79eac" y="203.572474"/>
     <use style="fill-opacity:0;stroke:#000000;" x="325.619063" xlink:href="#mf3aeb79eac" y="215.014647"/>
     <use style="fill-opacity:0;stroke:#000000;" x="325.619063" xlink:href="#mf3aeb79eac" y="216.957458"/>
     <use style="fill-opacity:0;stroke:#000000;" x="325.619063" xlink:href="#mf3aeb79eac" y="222.938224"/>
     <use style="fill-opacity:0;stroke:#000000;" x="325.619063" xlink:href="#mf3aeb79eac" y="222.247307"/>
     <use style="fill-opacity:0;stroke:#000000;" x="325.619063" xlink:href="#mf3aeb79eac" y="133.816341"/>
     <use style="fill-opacity:0;stroke:#000000;" x="325.619063" xlink:href="#mf3aeb79eac" y="224.214133"/>
     <use style="fill-opacity:0;stroke:#000000;" x="325.619063" xlink:href="#mf3aeb79eac" y="173.542704"/>
     <use style="fill-opacity:0;stroke:#000000;" x="325.619063" xlink:href="#mf3aeb79eac" y="224.486251"/>
     <use style="fill-opacity:0;stroke:#000000;" x="325.619063" xlink:href="#mf3aeb79eac" y="201.411587"/>
     <use style="fill-opacity:0;stroke:#000000;" x="325.619063" xlink:href="#mf3aeb79eac" y="190.33993"/>
     <use style="fill-opacity:0;stroke:#000000;" x="325.619063" xlink:href="#mf3aeb79eac" y="221.56244"/>
     <use style="fill-opacity:0;stroke:#000000;" x="325.619063" xlink:href="#mf3aeb79eac" y="139.80726"/>
     <use style="fill-opacity:0;stroke:#000000;" x="325.619063" xlink:href="#mf3aeb79eac" y="183.312889"/>
     <use style="fill-opacity:0;stroke:#000000;" x="325.619063" xlink:href="#mf3aeb79eac" y="180.551635"/>
     <use style="fill-opacity:0;stroke:#000000;" x="325.619063" xlink:href="#mf3aeb79eac" y="207.132547"/>
     <use style="fill-opacity:0;stroke:#000000;" x="325.619063" xlink:href="#mf3aeb79eac" y="221.964136"/>
     <use style="fill-opacity:0;stroke:#000000;" x="325.619063" xlink:href="#mf3aeb79eac" y="227.107845"/>
     <use style="fill-opacity:0;stroke:#000000;" x="325.619063" xlink:href="#mf3aeb79eac" y="205.975451"/>
     <use style="fill-opacity:0;stroke:#000000;" x="325.619063" xlink:href="#mf3aeb79eac" y="217.115444"/>
     <use style="fill-opacity:0;stroke:#000000;" x="325.619063" xlink:href="#mf3aeb79eac" y="212.397122"/>
     <use style="fill-opacity:0;stroke:#000000;" x="325.619063" xlink:href="#mf3aeb79eac" y="205.87608"/>
     <use style="fill-opacity:0;stroke:#000000;" x="325.619063" xlink:href="#mf3aeb79eac" y="211.87276"/>
     <use style="fill-opacity:0;stroke:#000000;" x="325.619063" xlink:href="#mf3aeb79eac" y="200.854749"/>
     <use style="fill-opacity:0;stroke:#000000;" x="325.619063" xlink:href="#mf3aeb79eac" y="219.638963"/>
     <use style="fill-opacity:0;stroke:#000000;" x="325.619063" xlink:href="#mf3aeb79eac" y="225.905888"/>
     <use style="fill-opacity:0;stroke:#000000;" x="325.619063" xlink:href="#mf3aeb79eac" y="186.137689"/>
     <use style="fill-opacity:0;stroke:#000000;" x="325.619063" xlink:href="#mf3aeb79eac" y="224.528376"/>
     <use style="fill-opacity:0;stroke:#000000;" x="325.619063" xlink:href="#mf3aeb79eac" y="213.740142"/>
     <use style="fill-opacity:0;stroke:#000000;" x="325.619063" xlink:href="#mf3aeb79eac" y="208.02055"/>
     <use style="fill-opacity:0;stroke:#000000;" x="325.619063" xlink:href="#mf3aeb79eac" y="207.679232"/>
     <use style="fill-opacity:0;stroke:#000000;" x="325.619063" xlink:href="#mf3aeb79eac" y="192.815996"/>
     <use style="fill-opacity:0;stroke:#000000;" x="325.619063" xlink:href="#mf3aeb79eac" y="219.594174"/>
     <use style="fill-opacity:0;stroke:#000000;" x="325.619063" xlink:href="#mf3aeb79eac" y="217.888629"/>
     <use style="fill-opacity:0;stroke:#000000;" x="325.619063" xlink:href="#mf3aeb79eac" y="201.333602"/>
     <use style="fill-opacity:0;stroke:#000000;" x="325.619063" xlink:href="#mf3aeb79eac" y="215.680325"/>
     <use style="fill-opacity:0;stroke:#000000;" x="325.619063" xlink:href="#mf3aeb79eac" y="216.988926"/>
     <use style="fill-opacity:0;stroke:#000000;" x="325.619063" xlink:href="#mf3aeb79eac" y="224.118434"/>
     <use style="fill-opacity:0;stroke:#000000;" x="325.619063" xlink:href="#mf3aeb79eac" y="161.874533"/>
     <use style="fill-opacity:0;stroke:#000000;" x="325.619063" xlink:href="#mf3aeb79eac" y="195.562524"/>
     <use style="fill-opacity:0;stroke:#000000;" x="325.619063" xlink:href="#mf3aeb79eac" y="199.080257"/>
     <use style="fill-opacity:0;stroke:#000000;" x="325.619063" xlink:href="#mf3aeb79eac" y="183.741696"/>
     <use style="fill-opacity:0;stroke:#000000;" x="325.619063" xlink:href="#mf3aeb79eac" y="227.507993"/>
     <use style="fill-opacity:0;stroke:#000000;" x="325.619063" xlink:href="#mf3aeb79eac" y="200.31721"/>
     <use style="fill-opacity:0;stroke:#000000;" x="325.619063" xlink:href="#mf3aeb79eac" y="225.313911"/>
     <use style="fill-opacity:0;stroke:#000000;" x="325.619063" xlink:href="#mf3aeb79eac" y="226.570594"/>
     <use style="fill-opacity:0;stroke:#000000;" x="325.619063" xlink:href="#mf3aeb79eac" y="227.13204"/>
     <use style="fill-opacity:0;stroke:#000000;" x="325.619063" xlink:href="#mf3aeb79eac" y="214.682511"/>
     <use style="fill-opacity:0;stroke:#000000;" x="325.619063" xlink:href="#mf3aeb79eac" y="220.992209"/>
     <use style="fill-opacity:0;stroke:#000000;" x="325.619063" xlink:href="#mf3aeb79eac" y="183.678185"/>
     <use style="fill-opacity:0;stroke:#000000;" x="325.619063" xlink:href="#mf3aeb79eac" y="210.507849"/>
     <use style="fill-opacity:0;stroke:#000000;" x="325.619063" xlink:href="#mf3aeb79eac" y="222.325076"/>
     <use style="fill-opacity:0;stroke:#000000;" x="325.619063" xlink:href="#mf3aeb79eac" y="199.025099"/>
     <use style="fill-opacity:0;stroke:#000000;" x="325.619063" xlink:href="#mf3aeb79eac" y="209.368719"/>
     <use style="fill-opacity:0;stroke:#000000;" x="325.619063" xlink:href="#mf3aeb79eac" y="191.914528"/>
     <use style="fill-opacity:0;stroke:#000000;" x="325.619063" xlink:href="#mf3aeb79eac" y="204.105765"/>
     <use style="fill-opacity:0;stroke:#000000;" x="325.619063" xlink:href="#mf3aeb79eac" y="225.235422"/>
     <use style="fill-opacity:0;stroke:#000000;" x="325.619063" xlink:href="#mf3aeb79eac" y="221.431853"/>
     <use style="fill-opacity:0;stroke:#000000;" x="325.619063" xlink:href="#mf3aeb79eac" y="188.926846"/>
     <use style="fill-opacity:0;stroke:#000000;" x="325.619063" xlink:href="#mf3aeb79eac" y="216.795008"/>
     <use style="fill-opacity:0;stroke:#000000;" x="325.619063" xlink:href="#mf3aeb79eac" y="190.367005"/>
     <use style="fill-opacity:0;stroke:#000000;" x="325.619063" xlink:href="#mf3aeb79eac" y="223.348597"/>
     <use style="fill-opacity:0;stroke:#000000;" x="325.619063" xlink:href="#mf3aeb79eac" y="209.143226"/>
     <use style="fill-opacity:0;stroke:#000000;" x="325.619063" xlink:href="#mf3aeb79eac" y="225.529143"/>
     <use style="fill-opacity:0;stroke:#000000;" x="325.619063" xlink:href="#mf3aeb79eac" y="225.67179"/>
     <use style="fill-opacity:0;stroke:#000000;" x="325.619063" xlink:href="#mf3aeb79eac" y="223.291855"/>
     <use style="fill-opacity:0;stroke:#000000;" x="325.619063" xlink:href="#mf3aeb79eac" y="203.445956"/>
    </g>
   </g>
   <g id="line2d_24">
    <path clip-path="url(#p68ae80e157)" d="M 456.33826 267.898701 
L 502.474448 267.898701 
L 502.474448 232.720902 
L 456.33826 232.720902 
L 456.33826 267.898701 
" style="fill:none;stroke:#000000;stroke-linecap:square;"/>
   </g>
   <g id="line2d_25">
    <path clip-path="url(#p68ae80e157)" d="M 479.406354 267.898701 
L 479.406354 296.176302 
" style="fill:none;stroke:#000000;stroke-linecap:square;"/>
   </g>
   <g id="line2d_26">
    <path clip-path="url(#p68ae80e157)" d="M 479.406354 232.720902 
L 479.406354 180.27048 
" style="fill:none;stroke:#000000;stroke-linecap:square;"/>
   </g>
   <g id="line2d_27">
    <path clip-path="url(#p68ae80e157)" d="M 467.872307 296.176302 
L 490.940401 296.176302 
" style="fill:none;stroke:#000000;stroke-linecap:square;"/>
   </g>
   <g id="line2d_28">
    <path clip-path="url(#p68ae80e157)" d="M 467.872307 180.27048 
L 490.940401 180.27048 
" style="fill:none;stroke:#000000;stroke-linecap:square;"/>
   </g>
   <g id="line2d_29">
    <g clip-path="url(#p68ae80e157)">
     <use style="fill-opacity:0;stroke:#000000;" x="479.406354" xlink:href="#mf3aeb79eac" y="179.50734"/>
     <use style="fill-opacity:0;stroke:#000000;" x="479.406354" xlink:href="#mf3aeb79eac" y="162.540967"/>
     <use style="fill-opacity:0;stroke:#000000;" x="479.406354" xlink:href="#mf3aeb79eac" y="179.953789"/>
     <use style="fill-opacity:0;stroke:#000000;" x="479.406354" xlink:href="#mf3aeb79eac" y="179.167462"/>
     <use style="fill-opacity:0;stroke:#000000;" x="479.406354" xlink:href="#mf3aeb79eac" y="148.672953"/>
     <use style="fill-opacity:0;stroke:#000000;" x="479.406354" xlink:href="#mf3aeb79eac" y="153.019209"/>
     <use style="fill-opacity:0;stroke:#000000;" x="479.406354" xlink:href="#mf3aeb79eac" y="106.100043"/>
     <use style="fill-opacity:0;stroke:#000000;" x="479.406354" xlink:href="#mf3aeb79eac" y="154.119635"/>
     <use style="fill-opacity:0;stroke:#000000;" x="479.406354" xlink:href="#mf3aeb79eac" y="157.802627"/>
     <use style="fill-opacity:0;stroke:#000000;" x="479.406354" xlink:href="#mf3aeb79eac" y="167.967487"/>
     <use style="fill-opacity:0;stroke:#000000;" x="479.406354" xlink:href="#mf3aeb79eac" y="175.44465"/>
     <use style="fill-opacity:0;stroke:#000000;" x="479.406354" xlink:href="#mf3aeb79eac" y="57.186832"/>
    </g>
   </g>
   <g id="line2d_30">
    <path clip-path="url(#p68ae80e157)" d="M 94.938125 263.531706 
L 556.3 263.531706 
" style="fill:none;stroke:#000000;stroke-dasharray:5.55,2.4;stroke-dashoffset:0;stroke-width:1.5;"/>
   </g>
   <g id="line2d_31">
    <path clip-path="url(#p68ae80e157)" d="M 148.763677 274.395224 
L 194.899865 274.395224 
" style="fill:none;stroke:#ff7f0e;stroke-linecap:square;"/>
   </g>
   <g id="line2d_32">
    <path clip-path="url(#p68ae80e157)" d="M 302.550969 263.525046 
L 348.687156 263.525046 
" style="fill:none;stroke:#ff7f0e;stroke-linecap:square;"/>
   </g>
   <g id="line2d_33">
    <path clip-path="url(#p68ae80e157)" d="M 456.33826 252.492201 
L 502.474448 252.492201 
" style="fill:none;stroke:#ff7f0e;stroke-linecap:square;"/>
   </g>
   <g id="patch_3">
    <path d="M 94.938125 504.689375 
L 94.938125 35.877187 
" style="fill:none;stroke:#000000;stroke-linecap:square;stroke-linejoin:miter;stroke-width:0.8;"/>
   </g>
   <g id="patch_4">
    <path d="M 556.3 504.689375 
L 556.3 35.877187 
" style="fill:none;stroke:#000000;stroke-linecap:square;stroke-linejoin:miter;stroke-width:0.8;"/>
   </g>
   <g id="patch_5">
    <path d="M 94.938125 504.689375 
L 556.3 504.689375 
" style="fill:none;stroke:#000000;stroke-linecap:square;stroke-linejoin:miter;stroke-width:0.8;"/>
   </g>
   <g id="patch_6">
    <path d="M 94.938125 35.877187 
L 556.3 35.877187 
" style="fill:none;stroke:#000000;stroke-linecap:square;stroke-linejoin:miter;stroke-width:0.8;"/>
   </g>
   <g id="text_13">
    <text style="font-family:DejaVu Sans;font-size:18px;font-style:normal;font-weight:normal;text-anchor:middle;" transform="rotate(-0, 325.619063, 29.877187)" x="325.619063" y="29.877187">Predicted skews by category</text>
   </g>
  </g>
 </g>
 <defs>
  <clipPath id="p68ae80e157">
   <rect height="468.812188" width="461.361875" x="94.938125" y="35.877187"/>
  </clipPath>
 </defs>
</svg>
